<svg width="1798" height="293" viewBox="0 0 1798 293" fill="none" xmlns="http://www.w3.org/2000/svg">
<path fill-rule="evenodd" clip-rule="evenodd" d="M502.133 117.16H409.233C406.274 117.16 404.499 115.385 403.316 113.61C389.706 100 376.097 85.799 363.079 72.1895C360.12 69.2309 357.162 68.0475 352.428 68.0475H274.321C269.588 68.0475 267.812 66.8641 267.812 61.5386C268.208 49.2903 268.075 36.7781 267.943 24.3545V24.3539V24.3533V24.3528V24.3523V24.3517V24.3512V24.3507V24.3501V24.3496V24.3491V24.3486V24.3481V24.3476C267.878 18.1678 267.812 12.0098 267.812 5.91717C267.812 1.77515 268.996 0 273.138 0H384.973C387.931 0 390.298 0.591717 392.073 2.95859C415.635 27.6989 439.458 52.1786 463.196 76.5706C475.225 88.932 487.233 101.271 499.174 113.61C500.148 114.097 500.721 114.984 501.553 116.272L501.555 116.276L501.56 116.283C501.737 116.558 501.926 116.85 502.133 117.16ZM247.698 34.3138V62.7163C247.698 67.45 246.515 68.6334 241.781 68.6334C227.58 67.45 213.97 69.2252 200.953 75.734C175.509 88.7518 160.124 117.746 163.083 146.74C166.041 176.326 187.343 201.178 215.154 208.279C223.438 210.646 232.314 211.237 240.598 210.054C245.331 209.462 247.698 210.054 247.107 215.971C246.712 228.594 246.844 241.218 246.975 253.841C247.041 260.153 247.107 266.464 247.107 272.776C247.107 275.735 247.107 277.51 242.965 278.101C184.385 281.652 131.722 249.699 108.053 195.261C72.5501 114.196 122.254 18.3375 208.053 2.95281C219.296 1.17765 231.13 0.585938 242.373 0.585938C245.923 0.585938 247.107 1.76937 247.107 5.31968C247.698 14.7872 247.698 24.2546 247.698 34.3138ZM231.125 170.418H275.504C283.196 170.418 290.889 170.566 298.581 170.714L298.583 170.714C306.275 170.862 313.966 171.01 321.658 171.01C337.043 171.01 350.652 159.176 353.019 143.791C355.977 126.631 347.102 111.247 331.125 105.921C328.758 104.738 325.8 104.146 323.433 104.146C312.738 104.146 302.109 104.014 291.524 103.881C270.486 103.619 249.622 103.359 228.758 104.146C209.823 104.738 197.397 120.714 197.989 139.057C198.581 156.217 213.374 170.418 231.125 170.418ZM0 168.89V106H74.0741C78.2222 106 80 107.176 80 111.878V163.6C80 167.714 79.5 168.89 74.6667 168.89H0ZM717.504 230.2V98.8388H678.451V170.437C678.451 179.312 676.084 186.413 671.35 191.147C666.616 195.88 660.107 198.247 652.415 198.247C644.723 198.247 638.805 195.88 634.072 191.147C629.338 185.821 626.971 179.312 626.971 170.437V98.8388H586.734V175.762C586.734 187.596 589.101 197.656 593.243 205.94C597.385 214.224 603.302 220.733 610.995 225.466C618.687 229.608 627.563 231.975 637.622 231.975C645.906 231.975 653.598 230.2 660.699 226.65C667.8 223.099 673.125 218.366 677.267 212.449V230.2H717.504ZM786.151 55.0312V229.588H745.914V55.0312H786.151ZM887.932 229.554V195.235V194.643H873.731C869.589 194.643 866.039 194.051 864.263 192.276C862.488 190.501 861.305 188.134 861.305 183.992V131.329H887.34V97.6012H860.713V65.6484H820.476V97.6012H804.5V131.329H820.476V183.992C820.476 199.968 824.618 211.803 832.902 218.903C841.187 226.004 852.429 229.554 867.222 229.554H887.932ZM950.065 120.108C954.799 113.008 960.716 107.09 967.817 102.948C974.917 98.8063 982.609 96.4395 991.485 96.4395V139.043H980.243C970.183 139.043 962.491 141.41 957.757 145.552C953.024 149.694 950.065 157.386 950.065 168.037V228.984H909.828V97.0312H950.065V120.108ZM1009.23 128.392C1003.91 138.451 1001.54 150.286 1001.54 163.895C1001.54 176.913 1003.91 189.339 1009.82 199.99C1014.56 210.049 1021.66 217.742 1030.53 223.659C1038.82 228.984 1048.88 231.943 1059.53 231.943C1068.99 231.943 1076.69 229.576 1083.79 226.026C1090.89 222.475 1096.21 217.15 1100.36 211.233V230.168H1140.59V98.2146H1100.36V117.15C1096.21 111.232 1090.89 105.907 1083.79 102.357C1076.69 98.2146 1068.99 96.4395 1059.53 96.4395C1048.88 96.4395 1038.82 99.398 1029.94 104.724C1021.66 110.049 1014.56 118.333 1009.23 128.392ZM1092.07 140.227C1097.4 146.144 1100.36 153.836 1100.36 163.895C1100.36 173.954 1097.4 181.647 1092.07 188.156C1086.75 194.073 1080.24 197.031 1071.95 197.031C1063.67 197.031 1057.16 194.073 1051.24 188.156C1045.92 182.238 1042.96 173.954 1042.96 163.895C1042.96 153.836 1045.92 146.144 1051.24 140.227C1057.16 134.309 1063.67 131.351 1071.95 131.351C1079.65 131.351 1086.75 134.309 1092.07 140.227ZM1209.24 55.0312V229.588H1169V55.0312H1209.24ZM1289.11 292.33L1371.95 98.2471H1327.57L1297.39 180.496L1267.21 98.2471H1222.24L1276.09 225.466L1245.91 292.33H1289.11ZM1458.92 195.235V229.554H1438.21C1423.42 229.554 1412.17 226.004 1403.89 218.903C1395.6 211.803 1391.46 199.968 1391.46 183.992V131.329H1376.08V97.6012H1392.05V65.6484H1432.29V97.6012H1458.92V131.329H1432.29V183.992C1432.29 188.134 1433.47 190.501 1435.25 192.276C1437.03 194.051 1440.58 194.643 1444.72 194.643H1458.92V195.235ZM1483.2 78.6864C1487.94 82.8284 1493.85 84.6036 1500.96 84.6036C1508.06 84.6036 1513.38 82.2367 1518.12 78.6864C1522.85 74.5444 1525.22 69.2189 1525.22 63.3017C1525.22 57.3846 1522.85 52.0591 1518.12 47.9171C1513.38 43.7751 1508.06 41.4082 1500.96 41.4082C1493.85 41.4082 1487.94 43.7751 1483.2 47.9171C1479.06 52.0591 1476.7 56.7929 1476.7 63.3017C1476.7 69.2189 1479.06 74.5444 1483.2 78.6864ZM1521.07 230.166V98.2131H1480.84V230.166H1521.07ZM1541.2 163.901C1541.2 150.292 1544.15 138.457 1549.48 127.806C1555.4 117.747 1563.09 109.463 1572.56 104.138C1582.62 98.8121 1593.86 95.8535 1606.88 95.8535C1623.44 95.8535 1637.05 99.9955 1648.3 108.871C1659.54 117.747 1666.64 129.581 1670.19 145.558H1626.99C1623.44 135.499 1616.34 130.173 1606.28 130.173C1599.18 130.173 1593.27 133.132 1588.53 139.049C1584.39 144.966 1582.02 152.658 1582.02 163.309C1582.02 173.96 1584.39 182.244 1588.53 188.161C1592.67 194.079 1598.59 196.445 1606.28 196.445C1616.93 196.445 1623.44 191.712 1626.99 181.061H1670.19C1666.64 196.445 1659.54 208.872 1648.3 217.156C1637.05 226.031 1623.44 230.173 1606.88 230.173C1593.86 230.173 1582.62 227.215 1572.56 221.889C1562.5 216.564 1554.8 208.28 1549.48 198.221C1544.15 189.345 1541.2 177.51 1541.2 163.901ZM1713.97 225.44C1722.85 229.582 1733.5 231.357 1744.74 231.357C1755.99 231.357 1764.86 229.582 1772.55 226.623C1780.84 223.073 1787.35 218.339 1791.49 212.422C1795.63 206.505 1798 199.404 1798 191.712C1798 182.244 1795.63 175.144 1790.9 169.818C1786.16 164.493 1780.84 160.351 1774.92 157.984C1769 155.617 1761.31 152.658 1751.25 150.291C1750.31 150.022 1749.39 149.76 1748.49 149.504C1741.52 147.52 1735.99 145.947 1732.32 144.374C1728.18 142.599 1726.4 139.641 1726.4 136.09C1726.4 133.132 1727.58 130.765 1729.95 128.99C1732.32 127.215 1735.87 126.031 1740.6 126.031C1745.93 126.031 1750.07 127.215 1753.62 130.173C1756.58 132.54 1758.95 136.09 1759.54 140.824H1796.81C1795.63 127.215 1789.71 116.564 1780.25 108.28C1770.78 99.9955 1757.76 95.8535 1741.19 95.8535C1729.95 95.8535 1720.48 97.6287 1712.2 101.179C1704.51 104.729 1698 109.463 1693.86 115.972C1689.71 122.481 1687.94 128.99 1687.94 136.682C1687.94 145.558 1690.31 152.658 1695.04 157.984C1699.77 163.309 1705.1 167.451 1711.61 169.818C1718.12 172.185 1725.81 174.552 1735.28 176.919C1744.15 178.694 1750.07 181.061 1754.21 182.836C1758.35 184.611 1760.13 187.57 1760.13 191.12C1760.13 194.079 1758.95 197.037 1755.99 198.812C1753.03 200.587 1748.89 201.771 1744.15 201.771C1738.23 201.771 1733.5 200.587 1729.95 197.629C1725.81 194.67 1724.03 191.12 1723.44 186.386H1683.8C1684.39 194.67 1687.35 202.363 1692.67 209.463C1698 215.972 1705.1 221.298 1713.97 225.44Z" fill="#66B3FF"/>
</svg>
