<svg width="512" height="92" viewBox="0 0 512 92" fill="none" xmlns="http://www.w3.org/2000/svg">
<g clip-path="url(#clip0_1_22)">
<path d="M171.26 48.224C171.26 62.4323 161.036 68.302 150.626 68.302C140.169 68.302 129.991 62.4323 129.991 48.224V22.5096H139.751V47.3389C139.751 55.9573 144.538 59.1248 150.626 59.1248C156.714 59.1248 161.501 55.9573 161.501 47.3389V22.5096H171.26V48.224Z" fill="white"/>
<path d="M190.591 7.50903H180.552V67.1372H190.591V7.50903Z" fill="white"/>
<path d="M221.055 30.2422H209.529V52.6027C209.529 58.5652 213.433 58.4725 221.055 58.0999V67.1372C205.719 69.0008 199.491 64.8083 199.491 52.6027V7.50903H209.529V20.5533H221.055V30.2422Z" fill="white"/>
<path d="M321.442 7.50903H311.404V67.1372H321.442V7.50903Z" fill="white"/>
<path d="M400.659 30.2422H389.133V52.6027C389.133 58.5652 393.037 58.4725 400.659 58.0999V67.1372C385.322 69.0008 379.095 64.8083 379.095 52.6027V7.50903H389.133V20.5533H400.659V30.2422Z" fill="white"/>
<path d="M408.047 25.7075H418.089V67.1372H408.047V25.7075ZM408.517 16.8565C406.006 14.2479 406.006 10.3344 408.517 7.81927C411.02 5.21057 415.116 5.21057 417.627 7.81927C420.13 10.3344 420.13 14.2479 417.528 16.8565C415.017 19.3717 411.119 19.3717 408.517 16.8565Z" fill="white"/>
<path d="M363.241 20.5533H373.93L356.084 68.6282C350.641 83.0197 346.511 85.7714 333.315 85.7714L333.405 76.3615C339.725 76.7333 343.257 73.6593 345.767 67.2307L346.231 66.2986L326.527 20.5533H337.494L351.344 54.3728L363.241 20.5533Z" fill="white"/>
<path d="M432.342 61.2674C427.695 56.5154 425.371 50.7391 425.371 43.8445C425.371 36.857 427.695 31.08 432.342 26.4222C437.083 21.6702 442.938 19.3405 449.909 19.3405C458.925 19.3405 466.918 23.9998 470.637 31.3598L461.992 36.3909C459.854 31.9194 455.393 29.2172 449.816 29.2172C445.726 29.2172 442.288 30.6147 439.499 33.4097C436.804 36.2046 435.409 39.652 435.409 43.8445C435.409 48.0369 436.804 51.4843 439.499 54.28C442.288 57.0742 445.726 58.4725 449.816 58.4725C455.3 58.4725 459.948 55.6767 462.178 51.298L470.822 56.2363C466.826 63.6898 458.925 68.3476 449.909 68.3476C442.938 68.3476 437.083 66.0187 432.342 61.2674Z" fill="white"/>
<path d="M495.671 39.4657C502.828 41.0495 512.122 44.0315 511.936 54.0002C511.936 58.4725 510.17 62.0133 506.731 64.5285C503.292 67.0437 499.017 68.3484 493.812 68.3484C484.61 68.3484 477.825 64.2495 474.851 57.4476L483.495 52.4165C485.075 56.8887 488.514 59.1248 493.812 59.1248C499.11 59.1248 501.712 57.354 501.712 53.9067C501.712 50.9254 497.808 49.1554 492.882 47.9442C485.912 46.1741 476.523 43.3792 476.71 33.596C476.71 29.31 478.29 25.8634 481.542 23.2547C484.796 20.646 488.886 19.3413 493.719 19.3413C501.434 19.3413 507.661 22.9749 510.915 29.031L502.456 33.7823C500.876 30.2422 497.901 28.4721 493.719 28.4721C489.908 28.4721 486.934 30.1494 486.934 33.4105C486.934 36.4845 490.838 38.0683 495.671 39.4657Z" fill="white"/>
<path d="M279.155 58.7523C283.337 58.7523 286.869 57.354 289.658 54.5598C292.446 51.6713 293.84 48.1304 293.84 43.8452C293.84 39.5592 292.446 36.0184 289.658 33.2234C286.869 30.3357 283.337 28.9382 279.155 28.9382C274.972 28.9382 271.44 30.3357 268.651 33.2234C265.863 36.0184 264.469 39.5592 264.469 43.8452C264.469 48.1304 265.863 51.6713 268.651 54.5598C271.44 57.354 274.972 58.7523 279.155 58.7523ZM293.84 20.5532H303.878V67.1372H293.84V60.4288C290.029 65.7397 284.639 68.3484 277.575 68.3484C271.161 68.3484 265.77 66.0187 261.216 61.2682C256.661 56.5161 254.431 50.6464 254.431 43.8452C254.431 36.9505 256.661 31.1743 261.216 26.4222C265.77 21.6709 271.161 19.3413 277.575 19.3413C284.639 19.3413 290.029 21.9507 293.84 27.1681V20.5532Z" fill="white"/>
<path d="M238.208 28.9975C240.652 23.3726 245.359 20.5601 252.147 20.5601V31.1751C248.437 30.9029 245.178 31.8099 242.372 33.897C239.566 35.8929 238.208 39.2498 238.208 43.8771V66.741H228.433V21.3767H238.208V28.9975Z" fill="white"/>
<path d="M56.7478 25.1939L56.7365 38.0286C56.7824 55.5439 42.5251 69.8368 25.1086 69.8148C18.1905 69.8036 11.8932 67.6925 6.78925 63.9998C15.9461 80.5019 33.5065 91.6475 53.471 91.6608C82.4752 91.6378 106.447 67.9677 106.902 38.8701L106.895 38.7488C106.922 38.0783 106.894 25.6714 106.927 25.1223C106.889 11.317 95.6288 -0.0290768 81.8562 0.00597989C68.0198 -0.0165355 56.7033 11.2672 56.7478 25.1939Z" fill="white"/>
<path d="M25.0789 12.9165C11.2511 12.9165 0.000768562 24.1938 0.000768562 38.0553C0.000768562 51.9154 11.2511 63.1926 25.0789 63.1926C38.9075 63.1926 50.157 51.9154 50.157 38.0553C50.157 24.1938 38.9075 12.9165 25.0789 12.9165Z" fill="white"/>
</g>
<defs>
<clipPath id="clip0_1_22">
<rect width="512" height="92" fill="white"/>
</clipPath>
</defs>
</svg>
