<svg width="169" height="50" viewBox="0 0 169 50" fill="none" xmlns="http://www.w3.org/2000/svg">
<path d="M162.24 50H6.23999C4.58493 49.9947 2.99933 49.3342 1.82996 48.163C0.660586 46.9917 0.00263543 45.4051 0 43.75V6.25C0.00264452 4.59321 0.661966 3.00503 1.8335 1.8335C3.00503 0.661966 4.59321 0.00264452 6.25 0H162.25C163.905 0.00528565 165.491 0.665792 166.66 1.83704C167.829 3.00828 168.487 4.59494 168.49 6.25V43.75C168.487 45.4051 167.829 46.9917 166.66 48.163C165.491 49.3342 163.905 49.9947 162.25 50" fill="black"/>
<path d="M162.24 0H6.23999C4.58493 0.00528565 2.99933 0.665792 1.82996 1.83704C0.660586 3.00828 0.00263543 4.59494 0 6.25V43.75C0.00264452 45.4068 0.661966 46.995 1.8335 48.1665C3.00503 49.338 4.59321 49.9974 6.25 50H162.25C163.905 49.9947 165.491 49.3342 166.66 48.163C167.829 46.9917 168.487 45.4051 168.49 43.75V6.25C168.487 4.59494 167.829 3.00828 166.66 1.83704C165.491 0.665792 163.905 0.00528565 162.25 0H162.24ZM162.25 1C163.642 1.00264 164.975 1.55663 165.959 2.54062C166.943 3.52461 167.497 4.85843 167.5 6.25V43.75C167.497 45.1416 166.943 46.4754 165.959 47.4594C164.975 48.4434 163.642 48.9974 162.25 49H6.25C4.85935 48.9974 3.52653 48.443 2.54413 47.4588C1.56172 46.4745 1.00995 45.1407 1.00995 43.75V6.25C1.00995 4.85934 1.56172 3.52551 2.54413 2.54123C3.52653 1.55695 4.85935 1.00265 6.25 1H162.25Z" fill="#A6A6A6"/>
<path d="M35.42 24.4495C35.4361 23.3239 35.736 22.2205 36.2919 21.2417C36.8477 20.2628 37.6416 19.44 38.6 18.8495C37.9918 17.9798 37.1884 17.2645 36.2542 16.761C35.32 16.2574 34.2809 15.9795 33.22 15.9495C30.96 15.7095 28.76 17.2995 27.61 17.2995C26.46 17.2995 24.61 15.9695 22.74 16.0095C21.5077 16.0543 20.3078 16.4166 19.2566 17.0613C18.2054 17.706 17.3386 18.6113 16.74 19.6895C14.13 24.1995 16.08 30.8395 18.58 34.4895C19.83 36.2695 21.29 38.2695 23.2 38.1995C25.11 38.1295 25.77 37.0095 28.02 37.0095C30.27 37.0095 30.9201 38.1995 32.8701 38.1495C34.8201 38.0995 36.14 36.3595 37.34 34.5495C38.2202 33.2759 38.895 31.8722 39.34 30.3895C38.1783 29.8899 37.1881 29.0613 36.4916 28.0058C35.795 26.9503 35.4226 25.7141 35.42 24.4495V24.4495Z" fill="white"/>
<path d="M31.7402 13.5498C32.8305 12.2329 33.3682 10.5448 33.2402 8.83984C31.5684 9.01196 30.0242 9.8126 28.9202 11.0798C28.3763 11.6953 27.96 12.4126 27.6956 13.1903C27.4312 13.968 27.3241 14.7904 27.3802 15.6098C28.2156 15.6195 29.0422 15.439 29.7975 15.0821C30.5529 14.7252 31.2172 14.2013 31.7402 13.5498V13.5498Z" fill="white"/>
<path d="M59.0702 33.67H52.6802L51.1502 38.2H48.4502L54.4502 21.46H57.3502L63.3502 38.2H60.6002L59.0702 33.67ZM53.3502 31.59H58.4102L55.9202 24.24H55.8502L53.3502 31.59Z" fill="white"/>
<path d="M76.3999 32.0994C76.3999 35.8894 74.3999 38.3294 71.3099 38.3294C70.5333 38.3704 69.7609 38.1913 69.0815 37.8127C68.4022 37.4342 67.8436 36.8715 67.4699 36.1894H67.4099V42.2394H64.8999V25.9994H67.3499V27.9994C67.7427 27.3222 68.312 26.7644 68.9972 26.3857C69.6824 26.007 70.4576 25.8217 71.2399 25.8494C74.3499 25.8694 76.3999 28.3094 76.3999 32.0994ZM73.8299 32.0994C73.8299 29.6294 72.5499 27.9994 70.5999 27.9994C68.6499 27.9994 67.3999 29.6594 67.3999 32.0994C67.3999 34.5394 68.6899 36.1994 70.5999 36.1994C72.5099 36.1994 73.8299 34.5894 73.8299 32.0994V32.0994Z" fill="white"/>
<path d="M89.8401 32.0996C89.8401 35.8896 87.8401 38.3296 84.7401 38.3296C83.9639 38.3682 83.1924 38.1881 82.5135 37.8098C81.8346 37.4315 81.2756 36.8701 80.9001 36.1896H80.8401V42.2396H78.3501V25.9996H80.7701V27.9996H80.8201C81.212 27.3217 81.7812 26.7633 82.4666 26.3845C83.1519 26.0057 83.9275 25.8208 84.7101 25.8496C87.8001 25.8696 89.8401 28.3096 89.8401 32.0996ZM87.2601 32.0996C87.2601 29.6296 85.9801 27.9996 84.0401 27.9996C82.1001 27.9996 80.8301 29.6596 80.8301 32.0996C80.8301 34.5396 82.1201 36.1996 84.0401 36.1996C85.9601 36.1996 87.2601 34.5896 87.2601 32.0996Z" fill="white"/>
<path d="M98.7198 33.5397C98.8998 35.1997 100.52 36.2897 102.72 36.2897C104.92 36.2897 106.35 35.1997 106.35 33.6997C106.35 32.3997 105.44 31.6197 103.27 31.0897L101.1 30.5597C98.0199 29.8197 96.5898 28.3797 96.5898 26.0497C96.5898 23.1597 99.1099 21.1797 102.69 21.1797C106.27 21.1797 108.69 23.1797 108.69 26.0497H106.16C106.01 24.3797 104.63 23.3697 102.61 23.3697C100.59 23.3697 99.2098 24.3697 99.2098 25.8797C99.2098 27.0597 100.09 27.7597 102.21 28.2897L104.06 28.7397C107.49 29.5597 108.92 30.9397 108.92 33.3797C108.92 36.5197 106.42 38.4797 102.45 38.4797C98.7398 38.4797 96.2298 36.5597 96.0698 33.5397H98.7198Z" fill="white"/>
<path d="M114.41 23.0996V25.9996H116.73V27.9996H114.41V34.7296C114.41 35.7296 114.87 36.2596 115.89 36.2596C116.167 36.2545 116.444 36.2345 116.72 36.1996V38.1996C116.259 38.2895 115.789 38.3298 115.32 38.3196C112.85 38.3196 111.89 37.3896 111.89 35.0196V28.0196H110.11V26.0196H111.89V23.0996H114.41Z" fill="white"/>
<path d="M118.07 32.0999C118.07 28.2599 120.33 25.8398 123.86 25.8398C127.39 25.8398 129.65 28.2599 129.65 32.0999C129.65 35.9399 127.41 38.3499 123.86 38.3499C120.31 38.3499 118.07 35.9999 118.07 32.0999ZM127.07 32.0999C127.07 29.4599 125.86 27.9099 123.83 27.9099C121.8 27.9099 120.6 29.4699 120.6 32.0999C120.6 34.7299 121.8 36.2899 123.83 36.2899C125.86 36.2899 127.07 34.7399 127.07 32.0999Z" fill="white"/>
<path d="M131.72 25.9996H134.11V28.0796H134.17C134.329 27.4307 134.708 26.857 135.242 26.4559C135.776 26.0548 136.433 25.8512 137.1 25.8796C137.389 25.8743 137.678 25.9045 137.96 25.9696V28.3096C137.597 28.1996 137.219 28.1489 136.84 28.1596C136.17 28.1325 135.518 28.3721 135.025 28.8257C134.531 29.2794 134.239 29.9101 134.21 30.5796C134.21 30.7096 134.21 30.8396 134.21 30.9696V38.2096H131.71L131.72 25.9996Z" fill="white"/>
<path d="M149.52 34.6098C149.18 36.8298 147.02 38.3499 144.26 38.3499C140.71 38.3499 138.5 35.9699 138.5 32.1599C138.5 28.3499 140.72 25.8398 144.15 25.8398C147.58 25.8398 149.65 28.1598 149.65 31.8398V32.6999H141.03V32.8499C140.993 33.2662 141.038 33.6858 141.163 34.0846C141.289 34.4834 141.491 34.8536 141.76 35.174C142.028 35.4944 142.357 35.7588 142.728 35.952C143.098 36.1452 143.504 36.2634 143.92 36.2998C144.053 36.31 144.187 36.31 144.32 36.2998C144.913 36.3556 145.507 36.2182 146.016 35.9083C146.524 35.5983 146.918 35.1323 147.14 34.5798L149.52 34.6098ZM141.04 30.9998H147.15C147.172 30.6149 147.117 30.2296 146.989 29.8658C146.862 29.502 146.664 29.167 146.406 28.8799C146.149 28.5929 145.838 28.3594 145.49 28.193C145.142 28.0265 144.765 27.9303 144.38 27.9099H144.15C143.33 27.9072 142.542 28.2299 141.959 28.8072C141.376 29.3845 141.045 30.1694 141.04 30.9898V30.9998Z" fill="white"/>
<path d="M53.0298 8.84954C53.9713 8.78356 54.9004 9.0941 55.613 9.71291C56.3255 10.3317 56.7632 11.2081 56.8298 12.1495C56.8498 12.3824 56.8498 12.6166 56.8298 12.8495C56.8298 15.4195 55.4399 16.8495 53.0399 16.8495H50.1299V8.84954H53.0298ZM51.3499 15.7595H52.8699C53.5389 15.7979 54.1959 15.5703 54.6979 15.1264C55.1999 14.6825 55.5061 14.0582 55.5499 13.3895C55.5701 13.2168 55.5701 13.0423 55.5499 12.8695C55.5962 12.5363 55.5758 12.1972 55.49 11.8719C55.4042 11.5466 55.2546 11.2416 55.0499 10.9746C54.8452 10.7076 54.5896 10.4839 54.2977 10.3165C54.0059 10.1491 53.6837 10.0414 53.3499 9.99953C53.1869 9.98479 53.0229 9.98479 52.8599 9.99953H51.3499V15.7595Z" fill="white"/>
<path d="M58.2298 13.8601C58.1937 13.4845 58.232 13.1055 58.3423 12.7447C58.4527 12.3839 58.633 12.0484 58.873 11.7572C59.1131 11.4661 59.4082 11.2251 59.7413 11.048C60.0745 10.871 60.4393 10.7612 60.8149 10.7251C61.1905 10.689 61.5694 10.7272 61.9302 10.8376C62.291 10.9479 62.6266 11.1283 62.9177 11.3683C63.2088 11.6084 63.4498 11.9034 63.6269 12.2366C63.804 12.5697 63.9137 12.9345 63.9498 13.3101C63.9698 13.4929 63.9698 13.6773 63.9498 13.8601C63.9866 14.2357 63.949 14.6148 63.8393 14.9759C63.7295 15.337 63.5497 15.6728 63.3102 15.9644C63.0706 16.256 62.7759 16.4975 62.443 16.6752C62.1101 16.8529 61.7454 16.9633 61.3699 17.0001C60.9943 17.0369 60.6151 16.9993 60.2541 16.8895C59.893 16.7798 59.5571 16.6 59.2655 16.3604C58.9739 16.1208 58.7324 15.8262 58.5547 15.4933C58.377 15.1603 58.2666 14.7957 58.2298 14.4201C58.2098 14.234 58.2098 14.0462 58.2298 13.8601V13.8601ZM62.7198 13.8601C62.7198 12.5401 62.1298 11.7701 61.0898 11.7701C60.0498 11.7701 59.4598 12.5401 59.4598 13.8601C59.4598 15.1801 60.0498 15.9501 61.0898 15.9501C62.1298 15.9501 62.7198 15.1801 62.7198 13.8601Z" fill="white"/>
<path d="M71.5696 16.9001H70.3496L69.0996 12.4301H68.9996L67.7496 16.9001H66.5196L64.8496 10.8301H66.0596L67.1496 15.4601H67.2396L68.4896 10.8301H69.6396L70.8896 15.4601H70.9796L72.0596 10.8301H73.2596L71.5696 16.9001Z" fill="white"/>
<path d="M74.6396 10.8297H75.7897V11.8297H75.8797C76.0326 11.4824 76.2902 11.1916 76.6166 10.998C76.9429 10.8043 77.3216 10.7175 77.6996 10.7497C78.219 10.7191 78.7298 10.892 79.1238 11.2318C79.5177 11.5716 79.7638 12.0515 79.8097 12.5697C79.8247 12.716 79.8247 12.8634 79.8097 13.0097V16.9397H78.6097V13.3097C78.6097 12.3097 78.1797 11.8497 77.2997 11.8497C76.9316 11.8334 76.5719 11.9628 76.2986 12.2099C76.0253 12.457 75.8604 12.8019 75.8397 13.1697C75.8344 13.243 75.8344 13.3165 75.8397 13.3897V16.9397H74.6396V10.8297Z" fill="white"/>
<path d="M81.71 8.45996H82.9V16.9H81.71V8.45996Z" fill="white"/>
<path d="M84.5697 13.8598C84.519 13.4762 84.5462 13.0865 84.6495 12.7136C84.7528 12.3408 84.9301 11.9926 85.1709 11.6899C85.4117 11.3871 85.711 11.1359 86.051 10.9514C86.391 10.7668 86.7647 10.6527 87.1497 10.6157C87.5348 10.5788 87.9234 10.6197 88.2923 10.7363C88.6612 10.8528 89.0028 11.0424 89.2968 11.2938C89.5908 11.5453 89.8312 11.8534 90.0035 12.1997C90.1758 12.5461 90.2766 12.9236 90.2998 13.3098C90.3099 13.493 90.3099 13.6766 90.2998 13.8598C90.3497 14.6067 90.1069 15.3437 89.6228 15.9146C89.1387 16.4855 88.4513 16.8455 87.7063 16.9184C86.9613 16.9912 86.2172 16.7711 85.6317 16.3046C85.0462 15.8382 84.6653 15.1622 84.5697 14.4198C84.5497 14.2337 84.5497 14.0459 84.5697 13.8598V13.8598ZM89.0598 13.8598C89.0598 12.5398 88.4698 11.7698 87.4298 11.7698C86.3898 11.7698 85.8098 12.5398 85.8098 13.8598C85.8098 15.1798 86.3498 15.9998 87.4298 15.9998C88.5098 15.9998 89.0598 15.1798 89.0598 13.8598Z" fill="white"/>
<path d="M91.5601 15.18C91.5601 14.09 92.37 13.46 93.82 13.37L95.46 13.27V12.75C95.46 12.11 95.04 11.75 94.22 11.75C93.55 11.75 93.09 11.99 92.95 12.42H91.79C91.92 11.42 92.9 10.71 94.27 10.71C95.8 10.71 96.65 11.47 96.65 12.71V16.86H95.5001V16.01H95.41C95.2146 16.3144 94.9429 16.5623 94.6218 16.729C94.3007 16.8957 93.9415 16.9753 93.58 16.96C93.0974 17.0074 92.6157 16.8613 92.2407 16.5538C91.8657 16.2463 91.628 15.8026 91.58 15.32C91.5703 15.2738 91.5637 15.227 91.5601 15.18ZM95.46 14.66V14.16L93.98 14.25C93.14 14.31 92.76 14.59 92.76 15.13C92.76 15.67 93.24 15.99 93.89 15.99C94.0772 16.0093 94.2664 15.9915 94.4467 15.9377C94.627 15.8838 94.7949 15.7948 94.9407 15.6759C95.0866 15.557 95.2076 15.4104 95.2967 15.2447C95.3858 15.0789 95.4413 14.8972 95.46 14.71V14.66Z" fill="white"/>
<path d="M98.23 13.86C98.23 11.94 99.23 10.73 100.75 10.73C101.129 10.7123 101.504 10.8025 101.834 10.9901C102.163 11.1778 102.432 11.4552 102.61 11.79H102.7V8.45996H103.9V16.9H102.75V15.9H102.66C102.473 16.2408 102.196 16.5237 101.859 16.7177C101.522 16.9117 101.139 17.0094 100.75 17C99.2 17 98.23 15.78 98.23 13.86ZM99.47 13.86C99.47 15.15 100.07 15.92 101.09 15.92C102.11 15.92 102.72 15.14 102.72 13.87C102.72 12.6 102.09 11.8 101.09 11.8C100.09 11.8 99.47 12.58 99.47 13.86Z" fill="white"/>
<path d="M108.86 13.8601C108.787 13.1016 109.018 12.3452 109.503 11.7572C109.988 11.1693 110.686 10.798 111.445 10.7251C112.203 10.6522 112.96 10.8836 113.548 11.3683C114.136 11.8531 114.507 12.5516 114.58 13.3101C114.6 13.4929 114.6 13.6773 114.58 13.8601C114.616 14.2357 114.579 14.6148 114.469 14.9759C114.359 15.337 114.18 15.6729 113.94 15.9644C113.7 16.256 113.406 16.4975 113.073 16.6752C112.74 16.8529 112.375 16.9633 112 17.0001C111.624 17.0369 111.245 16.9993 110.884 16.8895C110.523 16.7798 110.187 16.6 109.895 16.3604C109.604 16.1209 109.362 15.8262 109.185 15.4933C109.007 15.1604 108.897 14.7957 108.86 14.4201C108.84 14.234 108.84 14.0462 108.86 13.8601V13.8601ZM113.35 13.8601C113.35 12.5401 112.76 11.7701 111.72 11.7701C110.68 11.7701 110.09 12.5401 110.09 13.8601C110.09 15.1801 110.68 15.9501 111.72 15.9501C112.76 15.9501 113.35 15.1801 113.35 13.8601Z" fill="white"/>
<path d="M116.19 10.8301H117.35V11.8301H117.44C117.594 11.4838 117.852 11.1938 118.178 11.0004C118.504 10.8069 118.882 10.7195 119.26 10.7501C119.779 10.7195 120.29 10.8924 120.684 11.2322C121.078 11.572 121.324 12.0519 121.37 12.5701C121.385 12.7164 121.385 12.8639 121.37 13.0102V16.9401H120.17V13.3101C120.17 12.3101 119.74 11.8501 118.86 11.8501C118.492 11.8338 118.132 11.9632 117.859 12.2103C117.586 12.4574 117.421 12.8023 117.4 13.1702C117.395 13.2434 117.395 13.3169 117.4 13.3902V16.9401H116.2L116.19 10.8301Z" fill="white"/>
<path d="M128.12 9.32031V10.8503H129.43V11.8503H128.12V15.0003C128.12 15.6303 128.38 15.9103 128.98 15.9103H129.43V16.9103C129.216 16.9506 128.998 16.9707 128.78 16.9703C127.45 16.9703 126.92 16.5003 126.92 15.3303V11.9003H125.92V10.9003H126.92V9.3703L128.12 9.32031Z" fill="white"/>
<path d="M131.07 8.45996H132.26V11.8H132.35C132.51 11.4521 132.774 11.162 133.105 10.9688C133.436 10.7756 133.818 10.6888 134.2 10.72C134.465 10.6996 134.732 10.7323 134.984 10.8162C135.236 10.9001 135.469 11.0334 135.67 11.2085C135.87 11.3836 136.033 11.5968 136.15 11.8357C136.267 12.0746 136.335 12.3345 136.35 12.6C136.365 12.7262 136.365 12.8538 136.35 12.98V16.9H135.16V13.27C135.16 12.27 134.7 11.81 133.86 11.81C133.485 11.7796 133.113 11.8994 132.826 12.1432C132.539 12.387 132.36 12.7347 132.33 13.11C132.32 13.1897 132.32 13.2703 132.33 13.35V16.9H131.13L131.07 8.45996Z" fill="white"/>
<path d="M143.28 15.26C143.113 15.8111 142.759 16.2866 142.279 16.6043C141.798 16.922 141.222 17.062 140.65 17C139.918 17.0161 139.21 16.7423 138.68 16.2384C138.15 15.7344 137.841 15.0412 137.82 14.31C137.81 14.1601 137.81 14.0098 137.82 13.86C137.77 13.4955 137.793 13.125 137.887 12.7694C137.981 12.4139 138.144 12.0804 138.367 11.7879C138.59 11.4954 138.868 11.2496 139.186 11.0647C139.504 10.8797 139.855 10.7592 140.22 10.71H140.62C142.3 10.71 143.32 11.86 143.32 13.77V14.19H139.04V14.26C139.022 14.4695 139.046 14.6804 139.109 14.8807C139.173 15.081 139.276 15.2669 139.411 15.4275C139.547 15.5882 139.713 15.7206 139.899 15.8171C140.086 15.9136 140.29 15.9723 140.5 15.99H140.65C140.937 16.0218 141.228 15.9688 141.486 15.8372C141.743 15.7057 141.957 15.5015 142.1 15.25L143.28 15.26ZM139.07 13.26H142.13C142.157 12.8731 142.031 12.491 141.778 12.197C141.525 11.9029 141.166 11.7206 140.78 11.69H140.64C140.436 11.6873 140.234 11.7248 140.045 11.8003C139.856 11.8757 139.684 11.9877 139.538 12.1298C139.392 12.2718 139.276 12.4413 139.195 12.6283C139.115 12.8154 139.072 13.0164 139.07 13.22V13.22V13.26Z" fill="white"/>
</svg>
