<svg width="169" height="50" viewBox="0 0 169 50" fill="none" xmlns="http://www.w3.org/2000/svg">
<path d="M162.24 50H6.23999C4.58493 49.9947 2.99933 49.3342 1.82996 48.163C0.660586 46.9917 0.00263543 45.4051 0 43.75V6.25C0.00263543 4.59494 0.660586 3.00828 1.82996 1.83704C2.99933 0.665792 4.58493 0.00528565 6.23999 0H162.24C163.895 0.00528565 165.481 0.665792 166.65 1.83704C167.819 3.00828 168.477 4.59494 168.48 6.25V43.75C168.477 45.4051 167.819 46.9917 166.65 48.163C165.481 49.3342 163.895 49.9947 162.24 50Z" fill="black"/>
<path d="M162.24 0H6.23999C4.58493 0.00528565 2.99933 0.665792 1.82996 1.83704C0.660586 3.00828 0.00263543 4.59494 0 6.25V43.75C0.00263543 45.4051 0.660586 46.9917 1.82996 48.163C2.99933 49.3342 4.58493 49.9947 6.23999 50H162.24C163.895 49.9947 165.481 49.3342 166.65 48.163C167.819 46.9917 168.477 45.4051 168.48 43.75V6.25C168.477 4.59494 167.819 3.00828 166.65 1.83704C165.481 0.665792 163.895 0.00528565 162.24 0ZM162.24 1C163.631 1.00265 164.963 1.55695 165.946 2.54123C166.928 3.52551 167.48 4.85934 167.48 6.25V43.75C167.48 45.1407 166.928 46.4745 165.946 47.4588C164.963 48.443 163.631 48.9974 162.24 49H6.23999C4.84934 48.9974 3.51652 48.443 2.53412 47.4588C1.55171 46.4745 0.999997 45.1407 1 43.75V6.25C0.999997 4.85934 1.55171 3.52551 2.53412 2.54123C3.51652 1.55695 4.84934 1.00265 6.23999 1H162.24Z" fill="#A6A6A6"/>
<path d="M59.1802 12.8C59.2031 13.2595 59.1325 13.7189 58.9726 14.1504C58.8128 14.5818 58.567 14.9763 58.2502 15.31C57.8958 15.6782 57.4676 15.9674 56.9937 16.1587C56.5199 16.3499 56.0109 16.439 55.5002 16.42C54.9174 16.4232 54.3411 16.2963 53.8135 16.0486C53.2859 15.801 52.8202 15.4388 52.4502 14.9885C52.0802 14.5381 51.8152 14.0109 51.6747 13.4452C51.5342 12.8796 51.5216 12.2897 51.6378 11.7185C51.754 11.1474 51.9961 10.6093 52.3465 10.1435C52.6969 9.67777 53.1467 9.29602 53.6632 9.02603C54.1798 8.75604 54.75 8.60461 55.3325 8.58282C55.9149 8.56103 56.4949 8.66939 57.0302 8.90002C57.4807 9.08479 57.884 9.36846 58.2102 9.73004L57.5502 10.39C57.3043 10.102 56.9971 9.87249 56.651 9.7185C56.305 9.56451 55.9288 9.48987 55.5502 9.50003C55.0595 9.50135 54.5767 9.62301 54.144 9.85433C53.7112 10.0857 53.3419 10.4196 53.0682 10.8269C52.7946 11.2341 52.625 11.7023 52.5743 12.1904C52.5237 12.6784 52.5935 13.1715 52.7777 13.6262C52.9619 14.081 53.2549 14.4837 53.6309 14.7989C54.0069 15.1142 54.4545 15.3324 54.9344 15.4344C55.4144 15.5365 55.912 15.5192 56.3838 15.3842C56.8555 15.2492 57.2869 15.0005 57.6402 14.66C58.022 14.243 58.2451 13.7049 58.2702 13.14H55.5502V12.24H59.1802C59.2113 12.4251 59.228 12.6123 59.2302 12.8" fill="white"/>
<path d="M59.1798 12.8004H59.0498C59.0726 13.243 59.0056 13.6856 58.8526 14.1016C58.6996 14.5175 58.4639 14.8981 58.1598 15.2204V15.2204C57.8183 15.578 57.4043 15.8585 56.9455 16.043C56.4867 16.2275 55.9938 16.3119 55.4998 16.2904C54.4946 16.2904 53.5306 15.8911 52.8199 15.1804C52.1091 14.4696 51.7098 13.5056 51.7098 12.5004C51.7098 11.4953 52.1091 10.5313 52.8199 9.8205C53.5306 9.10973 54.4946 8.71042 55.4998 8.71042C56.0116 8.70933 56.5183 8.81138 56.9898 9.01044C57.4211 9.18958 57.8046 9.46694 58.1098 9.82043L58.2098 9.73044L58.1198 9.65042L57.4598 10.3104L57.5498 10.3904L57.6398 10.3104C57.3777 10.0024 57.0486 9.75843 56.6777 9.59723C56.3067 9.43603 55.9038 9.36186 55.4998 9.38043C54.6723 9.38043 53.8788 9.70914 53.2936 10.2943C52.7085 10.8794 52.3798 11.673 52.3798 12.5004C52.3798 13.3279 52.7085 14.1215 53.2936 14.7066C53.8788 15.2917 54.6723 15.6204 55.4998 15.6204C55.903 15.6294 56.3038 15.557 56.6784 15.4075C57.053 15.258 57.3936 15.0345 57.6798 14.7504C58.0796 14.3103 58.313 13.7444 58.3398 13.1504V13.0004H55.6098V12.3504H59.1198V12.2304H58.9898C59.0086 12.4099 59.0086 12.5909 58.9898 12.7704H59.2398C59.2592 12.5776 59.2592 12.3833 59.2398 12.1904V12.0804H55.3798V13.2304H58.2398V13.1104H58.1098C58.0961 13.6465 57.8862 14.1588 57.5198 14.5504C56.9866 15.0756 56.2683 15.37 55.5198 15.37C54.7714 15.37 54.053 15.0756 53.5198 14.5504C52.988 13.9925 52.6912 13.2513 52.6912 12.4804C52.6912 11.7096 52.988 10.9684 53.5198 10.4104C53.7801 10.1465 54.0921 9.93915 54.4362 9.80148C54.7804 9.66382 55.1493 9.59876 55.5198 9.61041C55.8958 9.58276 56.273 9.64448 56.6206 9.79047C56.9682 9.93646 57.2763 10.1626 57.5198 10.4504L57.6098 10.5604L58.3598 9.80042L58.4398 9.72043L58.3698 9.63043C58.0355 9.25045 57.618 8.95274 57.1498 8.76044C56.6498 8.54923 56.1126 8.44041 55.5698 8.44043C54.4983 8.44043 53.4707 8.86607 52.7131 9.62372C51.9554 10.3814 51.5298 11.409 51.5298 12.4804C51.5298 13.5519 51.9554 14.5795 52.7131 15.3371C53.4707 16.0948 54.4983 16.5204 55.5698 16.5204C56.0975 16.5395 56.6232 16.4469 57.1126 16.2487C57.602 16.0505 58.044 15.7512 58.4098 15.3704L58.3198 15.2904L58.4098 15.3804C58.7432 15.0369 59.0036 14.6294 59.1755 14.1826C59.3473 13.7358 59.427 13.2588 59.4098 12.7804H59.2898L59.1798 12.8004ZM65.0398 9.65042H61.6298V12.0304H64.7098V12.9304H61.6298V15.3104H65.0398V16.2304H60.6698V8.73044H65.0398V9.65042Z" fill="white"/>
<path d="M64.9302 9.66992V9.5499H61.4001V12.1699H64.4702V12.8299H61.4001V15.4499H64.8102V16.1299H60.6802V8.87991H64.8102V9.66992H64.9302H65.0602V8.66992H60.4302V16.4199H65.0602V15.1999H61.6501V13.0799H64.7202V11.9199H61.6501V9.7999H65.0602V9.66992H64.9302ZM68.9902 16.2499H67.9902V9.66992H65.8902V8.74991H71.0402V9.66992H68.9502V16.2499" fill="white"/>
<path d="M68.9901 16.2499V16.1299H68.1501V9.54987H66.0601V8.87988H70.9501V9.54987H68.8601V16.2499H68.9901H69.1101V9.79987H71.2401V8.62988H65.8501V9.79987H67.9401V16.3699H69.1501V16.2499H69.0301H68.9901ZM74.8401 16.2499V8.74988H75.8401V16.2499H74.8401Z" fill="white"/>
<path d="M74.8002 16.2499H74.9302V8.87988H75.6402V16.1299H74.8002V16.2499V16.3799H75.8902V8.62988H74.6802V16.3799H74.8002V16.2499ZM80.0302 16.2499H79.0302V9.66989H76.9402V8.74988H82.0802V9.66989H79.9902V16.2499" fill="white"/>
<path d="M80.0298 16.2502V16.1302H79.2399V9.55014H77.1498V8.88016H82.0499V9.55014H79.9598V16.2502H80.0799H80.2098V9.80014H82.2399V8.63016H76.8398V9.80014H78.9299V16.3701H80.1498V16.2502H80.0199H80.0298ZM87.0699 14.6501C87.3294 14.9184 87.6402 15.1319 87.9837 15.2779C88.3272 15.4239 88.6966 15.4995 89.0699 15.5002C89.4435 15.5018 89.8135 15.4272 90.1574 15.2811C90.5013 15.135 90.8117 14.9203 91.0699 14.6501C91.6103 14.0646 91.9104 13.297 91.9104 12.5002C91.9104 11.7033 91.6103 10.9357 91.0699 10.3502C90.8117 10.08 90.5013 9.86535 90.1574 9.71921C89.8135 9.57307 89.4435 9.49854 89.0699 9.50015C88.6966 9.50084 88.3272 9.57641 87.9837 9.72241C87.6402 9.86842 87.3294 10.0819 87.0699 10.3502C86.5358 10.9389 86.24 11.7053 86.24 12.5002C86.24 13.295 86.5358 14.0614 87.0699 14.6501ZM91.8499 15.2802C91.4902 15.6421 91.0625 15.9293 90.5914 16.1253C90.1203 16.3213 89.6151 16.4222 89.1049 16.4222C88.5946 16.4222 88.0894 16.3213 87.6183 16.1253C87.1473 15.9293 86.7195 15.6421 86.3599 15.2802C85.6525 14.5273 85.2588 13.5332 85.2588 12.5002C85.2588 11.4672 85.6525 10.473 86.3599 9.72015C86.7195 9.35824 87.1473 9.07102 87.6183 8.87503C88.0894 8.67904 88.5946 8.57812 89.1049 8.57812C89.6151 8.57812 90.1203 8.67904 90.5914 8.87503C91.0625 9.07102 91.4902 9.35824 91.8499 9.72015C92.5708 10.466 92.9738 11.4628 92.9738 12.5002C92.9738 13.5375 92.5708 14.5343 91.8499 15.2802Z" fill="white"/>
<path d="M87.08 14.65L87 14.74C87.5625 15.3018 88.325 15.6174 89.12 15.6174C89.915 15.6174 90.6775 15.3018 91.24 14.74C91.7993 14.1281 92.1095 13.3291 92.1095 12.5001C92.1095 11.671 91.7993 10.872 91.24 10.2601C90.6775 9.69826 89.915 9.38269 89.12 9.38269C88.325 9.38269 87.5625 9.69826 87 10.2601C86.4406 10.872 86.1304 11.671 86.1304 12.5001C86.1304 13.3291 86.4406 14.1281 87 14.74L87.08 14.65L87.17 14.5701C86.9049 14.2966 86.6982 13.9721 86.5624 13.6162C86.4266 13.2604 86.3645 12.8806 86.38 12.5001C86.3635 12.1209 86.4251 11.7424 86.561 11.388C86.6969 11.0336 86.9042 10.711 87.17 10.4401C87.4275 10.1718 87.7388 9.96096 88.0834 9.82138C88.4281 9.68179 88.7984 9.61661 89.17 9.63006C89.5319 9.62257 89.8915 9.69074 90.2255 9.83023C90.5596 9.96971 90.8608 10.1774 91.11 10.4401C91.3771 10.7105 91.5859 11.0328 91.7234 11.3871C91.861 11.7415 91.9245 12.1202 91.91 12.5001C91.9236 12.8813 91.8597 13.2613 91.7222 13.6171C91.5847 13.9729 91.3764 14.2971 91.11 14.5701C90.8588 14.8294 90.557 15.0343 90.2232 15.1719C89.8894 15.3096 89.5309 15.377 89.17 15.3701C88.7993 15.3829 88.4301 15.3184 88.0858 15.1807C87.7414 15.043 87.4295 14.835 87.17 14.5701L87.08 14.65ZM91.86 15.2801L91.78 15.1901C91.0734 15.8935 90.117 16.2885 89.12 16.2885C88.123 16.2885 87.1665 15.8935 86.46 15.1901V15.1901C85.7781 14.4603 85.3988 13.4988 85.3988 12.5001C85.3988 11.5013 85.7781 10.5398 86.46 9.81005C86.8083 9.46083 87.2221 9.18376 87.6777 8.99472C88.1333 8.80567 88.6217 8.70834 89.115 8.70834C89.6082 8.70834 90.0967 8.80567 90.5522 8.99472C91.0078 9.18376 91.4217 9.46083 91.77 9.81005C92.4541 10.5387 92.8349 11.5006 92.8349 12.5001C92.8349 13.4995 92.4541 14.4614 91.77 15.1901L91.85 15.2801L91.94 15.3701C92.6721 14.5958 93.08 13.5706 93.08 12.5051C93.08 11.4395 92.6721 10.4143 91.94 9.64007C91.5773 9.25611 91.1379 8.95263 90.6504 8.74935C90.1629 8.54608 89.638 8.44751 89.11 8.46005C88.5814 8.44791 88.0561 8.54564 87.5672 8.74703C87.0783 8.94843 86.6367 9.24912 86.27 9.63006V9.63006C85.5439 10.4093 85.1401 11.4349 85.1401 12.5001C85.1401 13.5652 85.5439 14.5908 86.27 15.3701V15.3701C86.6417 15.7435 87.0834 16.0398 87.5699 16.2419C88.0565 16.4441 88.5781 16.5482 89.105 16.5482C89.6318 16.5482 90.1535 16.4441 90.64 16.2419C91.1265 16.0398 91.5683 15.7435 91.94 15.3701L91.86 15.2801ZM94.32 16.2801V8.78005H95.49L99.13 14.61V13.1701V8.78005H100.13V16.2801H99.13L95.24 10.1301V11.58V16.2501H94.24" fill="white"/>
<path d="M94.3201 16.2501H94.4401V8.88013H95.4401L99.0801 14.7101H99.3201V13.1401V8.88013H100.04V16.1301H99.2301L95.3501 10.0001H95.1101V11.5701V16.1201H94.2801V16.2401V16.3701H95.3601V11.5701V10.1201H95.2401V10.2501V10.1201L95.1301 10.1901L98.9801 16.3701H100.24V8.62012H99.0201V13.1301V14.5801H99.1501V14.4601V14.5801L99.2501 14.5201L95.5801 8.63013H94.2401V16.3801H94.3701V16.2501H94.3201ZM133.51 37.5001H135.83V21.8701H133.51V37.5001ZM154.51 27.5001L151.84 34.2801H151.76L148.99 27.5001H146.48L150.64 36.9701L148.24 42.2401H150.67L157.07 27.5001H154.51ZM141.24 35.7301C140.48 35.7301 139.42 35.3401 139.42 34.4001C139.42 33.1901 140.74 32.7301 141.89 32.7301C142.631 32.7102 143.363 32.8898 144.01 33.2501C143.928 33.9291 143.601 34.555 143.092 35.0113C142.582 35.4675 141.924 35.723 141.24 35.7301V35.7301ZM141.52 27.1601C140.671 27.11 139.825 27.3096 139.088 27.7343C138.35 28.159 137.753 28.7902 137.37 29.5501L139.44 30.4201C139.642 30.042 139.951 29.7314 140.328 29.527C140.704 29.3226 141.133 29.2332 141.56 29.2701C142.149 29.2141 142.737 29.3927 143.196 29.7671C143.654 30.1414 143.947 30.6815 144.01 31.2701V31.4301C143.262 31.0333 142.427 30.8272 141.58 30.8301C139.36 30.8301 137.09 32.0601 137.09 34.3501C137.112 34.8324 137.23 35.3055 137.437 35.7414C137.645 36.1773 137.937 36.5672 138.298 36.8879C138.659 37.2086 139.08 37.4537 139.538 37.6087C139.995 37.7637 140.479 37.8254 140.96 37.7901C141.552 37.8301 142.143 37.7089 142.671 37.4395C143.2 37.1701 143.645 36.7625 143.96 36.2601H144.04V37.4601H146.24V31.4601C146.24 28.6901 144.17 27.1401 141.5 27.1401L141.52 27.1601ZM127.13 29.4001H123.82V24.0501H127.13C127.495 24.0278 127.861 24.0804 128.205 24.2047C128.549 24.3291 128.864 24.5225 129.13 24.7731C129.396 25.0237 129.609 25.3261 129.754 25.6618C129.899 25.9975 129.974 26.3594 129.974 26.7251C129.974 27.0909 129.899 27.4527 129.754 27.7884C129.609 28.1241 129.396 28.4266 129.13 28.6772C128.864 28.9277 128.549 29.1212 128.205 29.2455C127.861 29.3698 127.495 29.4224 127.13 29.4001V29.4001ZM127.07 21.8701H121.49V37.5001H123.82V31.5801H127.07C127.726 31.6099 128.382 31.5064 128.997 31.2758C129.612 31.0453 130.173 30.6925 130.648 30.2387C131.123 29.7849 131.501 29.2397 131.759 28.6358C132.017 28.0319 132.151 27.3819 132.151 26.7251C132.151 26.0683 132.017 25.4184 131.759 24.8145C131.501 24.2106 131.123 23.6653 130.648 23.2115C130.173 22.7578 129.612 22.405 128.997 22.1744C128.382 21.9439 127.726 21.8403 127.07 21.8701ZM96.6501 35.7301C95.8484 35.6527 95.1044 35.2795 94.5629 34.6833C94.0215 34.087 93.7215 33.3105 93.7215 32.5051C93.7215 31.6997 94.0215 30.9232 94.5629 30.327C95.1044 29.7307 95.8484 29.3575 96.6501 29.2801C97.4363 29.3782 98.1596 29.7601 98.684 30.354C99.2084 30.9479 99.4978 31.7129 99.4978 32.5051C99.4978 33.2974 99.2084 34.0624 98.684 34.6563C98.1596 35.2502 97.4363 35.6321 96.6501 35.7301ZM99.3201 28.3801H99.2401C98.886 27.9926 98.4527 27.6857 97.9696 27.4804C97.4865 27.2751 96.9649 27.1761 96.4401 27.1901C95.0704 27.2496 93.7765 27.8355 92.8282 28.8257C91.88 29.816 91.3507 31.1341 91.3507 32.5051C91.3507 33.8762 91.88 35.1943 92.8282 36.1845C93.7765 37.1748 95.0704 37.7607 96.4401 37.8201C96.967 37.8357 97.4908 37.7354 97.9746 37.5263C98.4584 37.3173 98.8904 37.0045 99.2401 36.6101H99.3201V37.3801C99.3201 39.3801 98.2301 40.5001 96.4901 40.5001C95.9082 40.4792 95.3449 40.2893 94.869 39.9537C94.3931 39.6181 94.0252 39.1513 93.8101 38.6101L91.8101 39.4501C92.1913 40.3852 92.8435 41.1849 93.6829 41.7462C94.5222 42.3076 95.5104 42.605 96.5201 42.6001C99.2501 42.6001 101.52 40.9801 101.52 37.0601V27.5101H99.3101L99.3201 28.3801ZM103.14 37.5001H105.47V21.8701H103.14V37.5001ZM108.91 32.3401C108.886 31.9541 108.938 31.5671 109.065 31.2016C109.191 30.8361 109.389 30.4994 109.647 30.211C109.905 29.9226 110.217 29.6882 110.566 29.5215C110.915 29.3549 111.294 29.2592 111.68 29.2401C112.088 29.2086 112.496 29.2992 112.852 29.5005C113.208 29.7017 113.497 30.0045 113.68 30.3701L108.91 32.3401ZM116.15 30.5701C115.832 29.6071 115.224 28.7657 114.409 28.1609C113.595 27.556 112.614 27.217 111.6 27.1901C110.916 27.1887 110.238 27.3278 109.61 27.5989C108.981 27.8699 108.415 28.2671 107.946 28.7658C107.478 29.2646 107.116 29.8542 106.885 30.4983C106.653 31.1423 106.556 31.8271 106.6 32.5101C106.584 33.2085 106.709 33.903 106.967 34.5519C107.226 35.2009 107.613 35.7909 108.105 36.2867C108.597 36.7826 109.184 37.174 109.831 37.4374C110.478 37.7009 111.172 37.8311 111.87 37.8201C112.744 37.8247 113.605 37.6124 114.376 37.2022C115.148 36.7921 115.805 36.1969 116.29 35.4701L114.48 34.2601C114.212 34.7124 113.83 35.0862 113.372 35.3442C112.914 35.6022 112.396 35.7353 111.87 35.7301C111.329 35.7493 110.794 35.6062 110.334 35.3194C109.874 35.0325 109.511 34.6149 109.29 34.1201L116.39 31.1801L116.15 30.5701ZM59.6001 28.8201V31.0801H64.9901C64.9107 32.1361 64.4814 33.1355 63.7701 33.9201C63.2281 34.4701 62.5772 34.9009 61.8592 35.1851C61.1412 35.4692 60.3717 35.6003 59.6001 35.5701C58.0088 35.5701 56.4827 34.938 55.3575 33.8128C54.2323 32.6876 53.6001 31.1614 53.6001 29.5701C53.6001 27.9788 54.2323 26.4527 55.3575 25.3275C56.4827 24.2023 58.0088 23.5701 59.6001 23.5701C61.1172 23.553 62.5797 24.1352 63.6701 25.1901L65.2501 23.6001C64.5088 22.8614 63.6268 22.2789 62.6563 21.8872C61.6858 21.4956 60.6465 21.3028 59.6001 21.3201C58.4919 21.2816 57.3872 21.4665 56.352 21.864C55.3168 22.2615 54.3722 22.8633 53.5745 23.6337C52.7769 24.4041 52.1425 25.3271 51.7093 26.3479C51.276 27.3687 51.0527 28.4662 51.0527 29.5751C51.0527 30.684 51.276 31.7816 51.7093 32.8023C52.1425 33.8231 52.7769 34.7462 53.5745 35.5165C54.3722 36.2869 55.3168 36.8888 56.352 37.2863C57.3872 37.6837 58.4919 37.8687 59.6001 37.8301C60.6171 37.8883 61.6351 37.7328 62.5883 37.3734C63.5415 37.0141 64.4089 36.4589 65.1344 35.7438C65.8599 35.0287 66.4275 34.1694 66.8005 33.2215C67.1735 32.2735 67.3437 31.2579 67.3001 30.2401C67.3051 29.7674 67.2649 29.2952 67.1801 28.8301L59.6001 28.8201ZM73.4301 35.7301C72.783 35.7763 72.1371 35.6266 71.5763 35.3005C71.0155 34.9743 70.5659 34.4869 70.2861 33.9016C70.0062 33.3164 69.9091 32.6604 70.0074 32.0192C70.1056 31.378 70.3946 30.7812 70.8369 30.3065C71.2791 29.8319 71.8539 29.5014 72.4866 29.3581C73.1193 29.2148 73.7805 29.2654 74.3841 29.5031C74.9877 29.7409 75.5056 30.155 75.8705 30.6913C76.2355 31.2276 76.4305 31.8614 76.4301 32.5101C76.4489 32.9212 76.3851 33.3319 76.2425 33.7179C76.0999 34.104 75.8814 34.4575 75.5999 34.7577C75.3183 35.0578 74.9795 35.2985 74.6034 35.4655C74.2273 35.6326 73.8215 35.7225 73.4101 35.7301H73.4301ZM73.4301 27.1901C72.3783 27.1921 71.3508 27.5058 70.4772 28.0916C69.6037 28.6773 68.9233 29.5089 68.5222 30.4812C68.1211 31.4534 68.0172 32.5228 68.2236 33.5541C68.43 34.5854 68.9374 35.5324 69.6818 36.2755C70.4262 37.0185 71.3742 37.5241 72.4059 37.7286C73.4376 37.9331 74.5068 37.8271 75.4783 37.4242C76.4498 37.0212 77.2801 36.3394 77.8642 35.4647C78.4483 34.5901 78.7601 33.5619 78.7601 32.5101C78.7724 31.8056 78.6422 31.1058 78.3773 30.4528C78.1124 29.7998 77.7184 29.2071 77.2187 28.7102C76.719 28.2133 76.1241 27.8225 75.4696 27.5613C74.8151 27.3001 74.1146 27.1738 73.4101 27.1901H73.4301ZM85.0501 35.7301C84.403 35.7763 83.7571 35.6266 83.1963 35.3005C82.6355 34.9743 82.1859 34.4869 81.9061 33.9016C81.6262 33.3164 81.5291 32.6604 81.6274 32.0192C81.7256 31.378 82.0146 30.7812 82.4568 30.3065C82.8991 29.8319 83.4739 29.5014 84.1066 29.3581C84.7393 29.2148 85.4005 29.2654 86.0041 29.5031C86.6077 29.7409 87.1256 30.155 87.4905 30.6913C87.8555 31.2276 88.0505 31.8614 88.0501 32.5101C88.0703 32.9199 88.008 33.3295 87.8672 33.7149C87.7263 34.1002 87.5096 34.4534 87.23 34.7536C86.9503 35.0537 86.6134 35.2948 86.239 35.4626C85.8645 35.6303 85.4603 35.7213 85.0501 35.7301ZM85.0501 27.1901C83.9983 27.1921 82.9708 27.5058 82.0972 28.0916C81.2237 28.6773 80.5433 29.5089 80.1422 30.4812C79.7411 31.4534 79.6372 32.5228 79.8436 33.5541C80.05 34.5854 80.5574 35.5324 81.3018 36.2755C82.0462 37.0185 82.9942 37.5241 84.0259 37.7286C85.0576 37.9331 86.1267 37.8271 87.0983 37.4242C88.0698 37.0212 88.9001 36.3394 89.4842 35.4647C90.0683 34.5901 90.3801 33.5619 90.3801 32.5101C90.3924 31.8073 90.2627 31.1092 89.9991 30.4576C89.7354 29.8059 89.3431 29.2141 88.8456 28.7175C88.3481 28.2209 87.7555 27.8297 87.1034 27.5673C86.4513 27.3049 85.7529 27.1766 85.0501 27.1901V27.1901Z" fill="white"/>
<path d="M13.12 40.4897L13.02 40.3997C12.6146 39.9061 12.411 39.2774 12.45 38.6398V11.3597C12.4259 11.0217 12.473 10.6823 12.5885 10.3636C12.7039 10.0449 12.885 9.75401 13.12 9.50977L28.58 24.9998L13.12 40.4897Z" fill="url(#paint0_linear_7165_84439)"/>
<path d="M33.73 30.1699L28.5801 24.9998L33.73 19.8398L39.9501 23.3799C40.2768 23.5302 40.5637 23.7551 40.7877 24.0364C41.0118 24.3178 41.1667 24.6478 41.2401 24.9998C41.1646 25.3539 41.0066 25.6852 40.779 25.9667C40.5514 26.2482 40.2605 26.472 39.9301 26.6198L33.71 30.1599" fill="url(#paint1_linear_7165_84439)"/>
<path d="M14.2401 40.89C13.8364 40.8984 13.4441 40.7558 13.1401 40.49V40.49L28.5801 25L33.7301 30.16L15.6201 40.47C15.1985 40.7306 14.7156 40.8755 14.2201 40.89" fill="url(#paint2_linear_7165_84439)"/>
<path d="M28.5801 24.9997L13.1201 9.50975C13.4241 9.24399 13.8164 9.10131 14.2201 9.10973C14.7156 9.12425 15.1985 9.26913 15.6201 9.52974L33.7301 19.8397L28.5801 24.9997Z" fill="url(#paint3_linear_7165_84439)"/>
<defs>
<linearGradient id="paint0_linear_7165_84439" x1="17.1662" y1="15.0138" x2="3.7359" y2="28.2297" gradientUnits="userSpaceOnUse">
<stop stop-color="#00A0FF"/>
<stop offset="0.01" stop-color="#00A1FF"/>
<stop offset="0.26" stop-color="#00BEFF"/>
<stop offset="0.51" stop-color="#00D2FF"/>
<stop offset="0.76" stop-color="#00DFFF"/>
<stop offset="1" stop-color="#00E3FF"/>
</linearGradient>
<linearGradient id="paint1_linear_7165_84439" x1="40.5225" y1="28.6371" x2="10.4257" y2="28.6371" gradientUnits="userSpaceOnUse">
<stop stop-color="#FFE000"/>
<stop offset="0.41" stop-color="#FFBD00"/>
<stop offset="0.78" stop-color="#FFA500"/>
<stop offset="1" stop-color="#FF9C00"/>
</linearGradient>
<linearGradient id="paint2_linear_7165_84439" x1="28.6541" y1="28.1612" x2="6.09609" y2="50.5746" gradientUnits="userSpaceOnUse">
<stop stop-color="#FF3A44"/>
<stop offset="1" stop-color="#C31162"/>
</linearGradient>
<linearGradient id="paint3_linear_7165_84439" x1="6.85962" y1="8.17963" x2="16.9122" y2="18.1857" gradientUnits="userSpaceOnUse">
<stop stop-color="#32A071"/>
<stop offset="0.07" stop-color="#2DA771"/>
<stop offset="0.48" stop-color="#15CF74"/>
<stop offset="0.8" stop-color="#06E775"/>
<stop offset="1" stop-color="#00F076"/>
</linearGradient>
</defs>
</svg>
