<svg width="169" height="50" viewBox="0 0 169 50" fill="none" xmlns="http://www.w3.org/2000/svg">
<g clip-path="url(#clip0_12391_107264)">
<path d="M162.5 0H6.25C2.79822 0 0 2.79822 0 6.25V43.75C0 47.2018 2.79822 50 6.25 50H162.5C165.952 50 168.75 47.2018 168.75 43.75V6.25C168.75 2.79822 165.952 0 162.5 0Z" fill="black"/>
<path d="M162.5 1C165.4 1 167.75 3.35 167.75 6.25V43.75C167.75 46.65 165.4 49 162.5 49H6.25C3.35 49 1 46.65 1 43.75V6.25C1 3.35 3.35 1 6.25 1H162.5ZM162.5 0H6.25C2.8125 0 0 2.8125 0 6.25V43.75C0 47.1875 2.8125 50 6.25 50H162.5C165.938 50 168.75 47.1875 168.75 43.75V6.25C168.75 2.8125 165.938 0 162.5 0Z" fill="#A6A6A6"/>
<path d="M59.2703 12.7992C59.2703 13.8492 58.9578 14.6867 58.3328 15.2992C57.6328 16.0367 56.7203 16.4117 55.5828 16.4117C54.4453 16.4117 53.5703 16.0367 52.8203 15.2867C52.0703 14.5367 51.6953 13.5992 51.6953 12.4992C51.6953 11.3992 52.0703 10.4617 52.8203 9.71172C53.5703 8.96172 54.4953 8.57422 55.5828 8.57422C56.1328 8.57422 56.6578 8.67422 57.1453 8.86172C57.6328 9.06172 58.0328 9.33672 58.3453 9.68672L57.6578 10.3742C57.4328 10.0992 57.1328 9.87422 56.7578 9.72422C56.3953 9.56172 55.9953 9.48672 55.5828 9.48672C54.7703 9.48672 54.0703 9.77422 53.5078 10.3367C52.9453 10.9117 52.6703 11.6242 52.6703 12.4867C52.6703 13.3492 52.9453 14.0617 53.5078 14.6367C54.0703 15.1992 54.7578 15.4867 55.5828 15.4867C56.3328 15.4867 56.9453 15.2742 57.4453 14.8617C57.9453 14.4492 58.2328 13.8617 58.3078 13.1367H55.5828V12.2367H59.2203C59.2578 12.4367 59.2703 12.6242 59.2703 12.7992Z" fill="white" stroke="white" stroke-width="0.25" stroke-miterlimit="10"/>
<path d="M65.0312 8.75V9.675H61.6188V12.05H64.6937V12.95H61.6188V15.325H65.0312V16.25H60.6562V8.75H65.0312Z" fill="white" stroke="white" stroke-width="0.25" stroke-miterlimit="10"/>
<path d="M69.0937 9.675V16.25H68.1312V9.675H66.0312V8.75H71.1812V9.675H69.0812H69.0937Z" fill="white" stroke="white" stroke-width="0.25" stroke-miterlimit="10"/>
<path d="M75.8844 16.25H74.9219V8.75H75.8844V16.25Z" fill="white" stroke="white" stroke-width="0.25" stroke-miterlimit="10"/>
<path d="M80.1562 9.675V16.25H79.1938V9.675H77.0938V8.75H82.2438V9.675H80.1438H80.1562Z" fill="white" stroke="white" stroke-width="0.25" stroke-miterlimit="10"/>
<path d="M93.1156 12.4992C93.1156 13.6117 92.7406 14.5367 92.0031 15.2867C91.2531 16.0367 90.3406 16.4117 89.2531 16.4117C88.1656 16.4117 87.2531 16.0367 86.5031 15.2867C85.7656 14.5367 85.3906 13.6117 85.3906 12.4992C85.3906 11.3867 85.7656 10.4617 86.5031 9.71172C87.2406 8.96172 88.1531 8.57422 89.2531 8.57422C90.3531 8.57422 91.2531 8.94922 92.0031 9.71172C92.7406 10.4617 93.1156 11.3867 93.1156 12.4867V12.4992ZM86.3906 12.4992C86.3906 13.3617 86.6656 14.0867 87.2031 14.6492C87.7531 15.2117 88.4406 15.4992 89.2531 15.4992C90.0656 15.4992 90.7531 15.2117 91.2906 14.6492C91.8406 14.0867 92.1156 13.3742 92.1156 12.4992C92.1156 11.6242 91.8406 10.9117 91.2906 10.3492C90.7406 9.78672 90.0656 9.49922 89.2531 9.49922C88.4406 9.49922 87.7531 9.78672 87.2031 10.3492C86.6531 10.9117 86.3906 11.6367 86.3906 12.4992Z" fill="white" stroke="white" stroke-width="0.25" stroke-miterlimit="10"/>
<path d="M95.4234 16.25H94.4609V8.75H95.6359L99.2859 14.5875H99.3234L99.2859 13.1375V8.75H100.248V16.25H99.2484L95.4359 10.1375H95.3984L95.4359 11.5875V16.2625L95.4234 16.25Z" fill="white" stroke="white" stroke-width="0.25" stroke-miterlimit="10"/>
<path d="M85.175 27.1844C82.2375 27.1844 79.8375 29.4219 79.8375 32.4969C79.8375 35.5719 82.2375 37.8094 85.175 37.8094C88.1125 37.8094 90.5125 35.5594 90.5125 32.4969C90.5125 29.4344 88.1125 27.1844 85.175 27.1844ZM85.175 35.7219C83.5625 35.7219 82.175 34.3969 82.175 32.4969C82.175 30.5969 83.5625 29.2719 85.175 29.2719C86.7875 29.2719 88.175 30.5844 88.175 32.4969C88.175 34.4094 86.7875 35.7219 85.175 35.7219ZM73.5375 27.1844C70.6 27.1844 68.2 29.4219 68.2 32.4969C68.2 35.5719 70.6 37.8094 73.5375 37.8094C76.475 37.8094 78.875 35.5594 78.875 32.4969C78.875 29.4344 76.475 27.1844 73.5375 27.1844ZM73.5375 35.7219C71.925 35.7219 70.5375 34.3969 70.5375 32.4969C70.5375 30.5969 71.925 29.2719 73.5375 29.2719C75.15 29.2719 76.5375 30.5844 76.5375 32.4969C76.5375 34.4094 75.15 35.7219 73.5375 35.7219ZM59.6875 28.8094V31.0594H65.0875C64.925 32.3219 64.5 33.2594 63.8625 33.8969C63.075 34.6844 61.85 35.5469 59.7 35.5469C56.375 35.5469 53.775 32.8719 53.775 29.5469C53.775 26.2219 56.375 23.5469 59.7 23.5469C61.4875 23.5469 62.8 24.2469 63.7625 25.1594L65.35 23.5719C64 22.2844 62.2125 21.2969 59.6875 21.2969C55.1375 21.2969 51.3125 24.9969 51.3125 29.5594C51.3125 34.1219 55.1375 37.8219 59.6875 37.8219C62.15 37.8219 64 37.0219 65.45 35.5094C66.9375 34.0219 67.4 31.9219 67.4 30.2344C67.4 29.7094 67.3625 29.2219 67.275 28.8219H59.6875V28.8094ZM116.325 30.5594C115.887 29.3719 114.537 27.1719 111.775 27.1719C109.012 27.1719 106.763 29.3219 106.763 32.4844C106.763 35.4594 109.012 37.7969 112.037 37.7969C114.475 37.7969 115.887 36.3094 116.463 35.4469L114.65 34.2344C114.05 35.1219 113.225 35.7094 112.037 35.7094C110.85 35.7094 110 35.1719 109.463 34.0969L116.575 31.1594L116.338 30.5594H116.325ZM109.075 32.3344C109.013 30.2844 110.663 29.2344 111.85 29.2344C112.775 29.2344 113.562 29.6969 113.825 30.3594L109.075 32.3344ZM103.3 37.4844H105.638V21.8594H103.3V37.4844ZM99.475 28.3594H99.4C98.875 27.7344 97.875 27.1719 96.6 27.1719C93.9375 27.1719 91.5 29.5094 91.5 32.5094C91.5 35.5094 93.9375 37.8094 96.6 37.8094C97.8625 37.8094 98.875 37.2469 99.4 36.5969H99.475V37.3594C99.475 39.3969 98.3875 40.4844 96.6375 40.4844C95.2125 40.4844 94.325 39.4594 93.9625 38.5969L91.925 39.4469C92.5125 40.8594 94.0625 42.5844 96.6375 42.5844C99.375 42.5844 101.688 40.9719 101.688 37.0469V27.4969H99.475V28.3594ZM96.8 35.7094C95.1875 35.7094 93.8375 34.3594 93.8375 32.5094C93.8375 30.6594 95.1875 29.2719 96.8 29.2719C98.4125 29.2719 99.6375 30.6469 99.6375 32.5094C99.6375 34.3719 98.3875 35.7094 96.8 35.7094ZM127.275 21.8594H121.688V37.4844H124.025V31.5594H127.288C129.875 31.5594 132.413 29.6844 132.413 26.7094C132.413 23.7344 129.875 21.8594 127.288 21.8594H127.275ZM127.338 29.3969H124.025V24.0344H127.338C129.088 24.0344 130.075 25.4844 130.075 26.7094C130.075 27.9344 129.088 29.3844 127.338 29.3844V29.3969ZM141.75 27.1469C140.063 27.1469 138.313 27.8969 137.588 29.5344L139.663 30.3969C140.1 29.5344 140.925 29.2469 141.788 29.2469C142.988 29.2469 144.225 29.9719 144.237 31.2594V31.4219C143.812 31.1844 142.912 30.8219 141.8 30.8219C139.562 30.8219 137.3 32.0469 137.3 34.3344C137.3 36.4219 139.125 37.7719 141.175 37.7719C142.738 37.7719 143.613 37.0719 144.15 36.2469H144.225V37.4469H146.475V31.4594C146.475 28.6844 144.4 27.1344 141.725 27.1344L141.75 27.1469ZM141.462 35.7094C140.7 35.7094 139.638 35.3219 139.638 34.3844C139.638 33.1844 140.963 32.7219 142.113 32.7219C143.137 32.7219 143.625 32.9469 144.237 33.2469C144.062 34.6969 142.812 35.7219 141.462 35.7219V35.7094ZM154.688 27.4844L152.012 34.2594H151.938L149.162 27.4844H146.65L150.813 36.9594L148.438 42.2219H150.875L157.287 27.4844H154.7H154.688ZM133.675 37.4844H136.012V21.8594H133.675V37.4844Z" fill="white"/>
<path d="M25.8984 24.2742L12.5859 38.3992C12.9984 39.9367 14.3984 41.0617 16.0609 41.0617C16.7234 41.0617 17.3484 40.8867 17.8859 40.5617L17.9234 40.5367L32.8984 31.8992L25.8859 24.2617L25.8984 24.2742Z" fill="#EA4335"/>
<path d="M39.3563 21.8797H39.3438L32.8812 18.1172L25.5938 24.6047L32.9063 31.9172L39.3438 28.2047C40.4688 27.5922 41.2313 26.4047 41.2313 25.0422C41.2313 23.6797 40.4812 22.4922 39.3563 21.8922V21.8797Z" fill="#FBBC04"/>
<path d="M12.5859 11.6016C12.5109 11.9016 12.4609 12.2016 12.4609 12.5266V37.4766C12.4609 37.8016 12.4984 38.1016 12.5859 38.4016L26.3484 24.6391L12.5859 11.6016Z" fill="#4285F4"/>
<path d="M25.9984 25.0008L32.8859 18.1133L17.9234 9.43828C17.3859 9.11328 16.7484 8.92578 16.0609 8.92578C14.3984 8.92578 12.9984 10.0633 12.5859 11.5883L25.9984 24.9883V25.0008Z" fill="#34A853"/>
</g>
<defs>
<clipPath id="clip0_12391_107264">
<rect width="168.75" height="50" fill="white"/>
</clipPath>
</defs>
</svg>
