<svg width="50" height="50" viewBox="0 0 50 50" fill="none" xmlns="http://www.w3.org/2000/svg">
<path d="M35.221 49.5643C34.2919 49.4462 33.6069 48.9265 33.1817 48.021C32.9376 47.5092 32.9297 47.4619 32.9297 46.4226V45.3596L33.2289 44.7533C33.7407 43.7218 34.4966 43.2729 35.7329 43.2729C36.4809 43.2729 37.0715 43.4777 37.5675 43.9186C38.7801 44.9895 38.8667 47.5249 37.7329 48.7769C37.1738 49.3989 36.2368 49.6903 35.221 49.5643ZM36.6305 48.3674C37.599 47.6273 37.5911 45.2257 36.6148 44.4777C36.2211 44.1785 35.4021 44.1312 34.9612 44.3753C34.3785 44.706 34.0714 45.4147 34.0714 46.4304C34.0714 47.4304 34.3706 48.1391 34.9376 48.4777C35.1581 48.6115 35.3155 48.6352 35.7722 48.6194C36.2447 48.5958 36.3785 48.5564 36.6305 48.3674Z" fill="black"/>
<path d="M41.2365 49.5722C40.5121 49.5092 39.953 49.3517 40.0081 49.2257C40.0239 49.1706 40.0711 48.9659 40.0948 48.7611C40.1577 48.3596 40.1735 48.3517 40.7168 48.517C41.2207 48.6745 42.1971 48.6745 42.4963 48.517C42.8507 48.3359 42.953 47.7454 42.6775 47.4304C42.5987 47.3438 42.1971 47.1155 41.7877 46.9186C40.8507 46.4777 40.4412 46.1863 40.2286 45.8084C39.6538 44.7848 40.2207 43.6194 41.4333 43.3281C42.0633 43.1706 43.7326 43.3438 43.6538 43.5564C43.6302 43.6115 43.583 43.8241 43.5593 44.0288C43.5042 44.3596 43.4806 44.391 43.331 44.3438C43.2444 44.3123 42.8192 44.2729 42.4019 44.2493L41.6381 44.2099L41.394 44.4462C41.2601 44.5879 41.1578 44.769 41.1578 44.8792C41.1578 45.1391 41.4727 45.5092 41.8428 45.6824C43.0318 46.2414 43.2759 46.3674 43.5121 46.6036C43.8586 46.9422 44.0003 47.2966 44.0003 47.8084C44.0003 49.0682 42.9845 49.7218 41.2365 49.5722Z" fill="black"/>
<path d="M6.03906 49.4461C6.03906 49.4067 6.53513 48.0051 7.13356 46.3122L8.22806 43.2413L9.05484 43.2177L9.88161 43.1941L10.0076 43.5327C10.2045 44.0524 12.1021 49.4539 12.1021 49.4854C12.1021 49.4933 11.8108 49.5012 11.4564 49.4854L10.8186 49.4618L10.543 48.698L10.2674 47.9264H9.03909H7.81073L7.54301 48.7138L7.27529 49.5012H6.66111C6.31466 49.5012 6.03906 49.4776 6.03906 49.4461ZM9.9761 46.9264C9.9761 46.7846 9.09421 44.2256 9.03909 44.2256C9.01547 44.2256 8.79499 44.8004 8.56664 45.5091C8.33042 46.2098 8.12569 46.8319 8.10995 46.887C8.07845 46.9579 8.29105 46.9815 9.02334 46.9815C9.5509 46.9815 9.9761 46.9579 9.9761 46.9264Z" fill="black"/>
<path d="M13.7559 46.3515V43.2019H14.3858H15.0157V46.3515V49.5011H14.3858H13.7559V46.3515Z" fill="black"/>
<path d="M18.4016 46.8633V44.2255H17.5748H16.748V43.7137V43.2019H18.9134H21.0788V43.7137V44.2255H20.2914H19.504V46.8633V49.5011H18.9528H18.4016V46.8633Z" fill="black"/>
<path d="M22.9688 46.3438V43.1785L24.4884 43.2178C25.8349 43.2572 26.0554 43.2808 26.4176 43.4383C27.0475 43.706 27.457 44.2808 27.457 44.895C27.457 45.4383 27.0475 46.084 26.5908 46.273L26.3467 46.3753L26.5751 46.5092C26.7011 46.5879 26.8585 46.7769 26.9373 46.9344C27.0711 47.2178 27.6932 49.2572 27.6932 49.4147C27.6932 49.4698 27.4727 49.5013 27.0711 49.5013H26.4491L26.2286 48.6194C25.8507 47.0761 25.7798 46.9895 24.7798 46.9265L24.1499 46.8793V48.1942V49.5013H23.5593H22.9688V46.3438ZM25.8034 45.8163C26.3467 45.5485 26.3782 44.6982 25.8585 44.3832C25.6538 44.2572 25.457 44.2257 24.8822 44.2257H24.1499V45.0919V45.958H24.8428C25.3388 45.958 25.6066 45.9186 25.8034 45.8163Z" fill="black"/>
<path d="M29.7402 46.3515V43.2019H30.3702H31.0001V46.3515V49.5011H30.3702H29.7402V46.3515Z" fill="black"/>
<path d="M22.9686 21.1941C32.2994 11.8634 39.9452 4.22559 39.953 4.22559C39.9688 4.22559 39.9767 10.1626 39.9767 17.4146V30.6035H38.7955H37.6144V20.2886C37.6144 14.6193 37.5908 9.97362 37.5514 9.97362C37.5199 9.97362 31.1498 16.3122 23.4017 24.0681L9.30711 38.1626H7.65356H6L22.9686 21.1941Z" fill="black"/>
<path d="M23.7562 25.761L36.1578 13.3594L36.1815 14.9893L36.1972 16.6271L26.6696 26.1547C21.4333 31.3909 17.1419 35.7058 17.1419 35.7452C17.1419 35.7767 23.1341 35.8003 30.4491 35.8003H43.7563V36.9814V38.1625H27.5594H11.3545L23.7562 25.761Z" fill="black"/>
<path d="M21.6694 33.202L22.8505 32.0209H32.1183H41.394V17.391V2.76894L42.5751 1.58784L43.7562 0.406738V17.3989V34.3831H32.1262H20.4883L21.6694 33.202Z" fill="black"/>
</svg>
