<svg width="43" height="50" viewBox="0 0 43 50" fill="none" xmlns="http://www.w3.org/2000/svg">
<g clip-path="url(#clip0_4233_152145)">
<path d="M41.2333 38.9652C40.4772 40.712 39.5821 42.32 38.5451 43.7984C37.1316 45.8137 35.9742 47.2088 35.0823 47.9834C33.6996 49.255 32.2182 49.9062 30.6318 49.9432C29.4929 49.9432 28.1195 49.6192 26.5208 48.9618C24.9168 48.3075 23.4428 47.9834 22.095 47.9834C20.6815 47.9834 19.1655 48.3075 17.5439 48.9618C15.9199 49.6192 14.6116 49.9618 13.6113 49.9957C12.0901 50.0605 10.5738 49.3908 9.06022 47.9834C8.0942 47.1409 6.8859 45.6965 5.43841 43.6502C3.88538 41.4651 2.60856 38.9312 1.60828 36.0424C0.537021 32.9221 0 29.9006 0 26.9754C0 23.6246 0.724052 20.7346 2.17432 18.3127C3.3141 16.3674 4.83041 14.8329 6.72819 13.7064C8.62597 12.5799 10.6765 12.0058 12.8848 11.9691C14.0931 11.9691 15.6776 12.3428 17.6467 13.0774C19.6102 13.8144 20.871 14.1882 21.4237 14.1882C21.837 14.1882 23.2376 13.7511 25.6119 12.8799C27.8572 12.0719 29.7522 11.7373 31.3046 11.8691C35.5113 12.2086 38.6717 13.8669 40.7734 16.8544C37.0112 19.134 35.1502 22.3268 35.1872 26.4227C35.2211 29.613 36.3785 32.2678 38.6531 34.3758C39.684 35.3542 40.8352 36.1103 42.116 36.6473C41.8382 37.4529 41.545 38.2245 41.2333 38.9652ZM31.5855 1.00028C31.5855 3.50085 30.6719 5.83563 28.851 7.99668C26.6535 10.5657 23.9956 12.0503 21.1132 11.816C21.0765 11.516 21.0552 11.2003 21.0552 10.8685C21.0552 8.46796 22.1003 5.8989 23.9561 3.79835C24.8826 2.7348 26.0609 1.85047 27.4899 1.14503C28.9158 0.450114 30.2645 0.0658105 31.533 0C31.57 0.334287 31.5855 0.668628 31.5855 1.00028Z" fill="#B3B3B3"/>
</g>
<defs>
<clipPath id="clip0_4233_152145">
<rect width="42.116" height="50" fill="white"/>
</clipPath>
</defs>
</svg>
