<svg width="256" height="256" fill="none" xmlns="http://www.w3.org/2000/svg"><path d="M163 162.8c0-2.5 1.1-4.1 5.1-8 2.8-2.6 5.5-4.8 6-4.8s.9-.4.9-1c0-.5.7-1 1.5-1s1.5-.6 1.5-1.4c0-.8 1.6-3 3.5-4.9 1.9-1.9 3.5-4.2 3.5-5 0-.8.9-1.7 1.9-2 1.3-.3 2.2-1.7 2.6-4.1.4-2 1.1-3.6 1.6-3.6s.9-.7.9-1.5c0-.9.7-1.8 1.5-2.1.8-.4 1.5-1.2 1.5-2s.5-1.4 1-1.4c.6 0 1-.7 1-1.5s.7-1.5 1.5-1.5 1.5-.5 1.5-1c0-.6.8-1.4 1.8-1.7 2.6-1 5.2-4.3 5.2-6.7 0-1.3 1.2-2.9 3-3.9 1.7-1 3-2.5 3-3.3 0-.8 1.6-2.8 3.5-4.5 1.9-1.7 3.5-3.7 3.5-4.5 0-.9 1.2-1.4 3.5-1.4 1.9 0 3.5.5 3.5 1 0 .6 1.3 1 2.8 1 4.1 0 9.2 5.6 9.9 10.8 1 7.2.4 7.7-33.7 34.8-3.6 2.8-8.6 6.6-11.1 8.5-10.9 8-23.9 18.1-24.4 18.9-.4.6-2.2 1-4.1 1-3.2 0-3.4-.2-3.4-3.2Z" fill="#006094"/><path d="M133 178.6c0-2.2.5-3.6 1.3-3.6 1.2-.1 4.7-6.6 4.7-8.8 0-.7.7-1.2 1.5-1.2s2.1-1.3 3-3c.9-1.6 2.2-3 3-3 .9 0 1.5-1 1.5-2.5 0-1.4.9-3 2-3.7 1.1-.7 2-2 2-2.8 0-2.3 2-4 4.7-4 1.8 0 2.3-.6 2.3-2.5 0-1.8.5-2.5 2-2.5 1.1 0 2.4-.9 2.8-1.9.4-1.1 2.4-3.7 4.5-6 2-2.2 3.7-4.4 3.7-4.9s.8-1.2 1.8-1.4c1.3-.4 2.3-2.1 3.1-5.2.8-3.4 1.6-4.6 3-4.6 1.2 0 2.1-1 2.5-2.6.4-1.6 1.7-2.9 3.6-3.6 2.2-.7 3-1.6 3-3.3 0-1.5.7-2.5 2.3-2.9 1.2-.3 2.8-1.8 3.4-3.3 2.4-5.6 6.9-11.2 10.1-12.4 1.3-.5 2.2-1.7 2.2-2.9 0-1.1.5-2 1-2 .6 0 1-.6 1-1.4 0-1.7 2.1-2.6 5.9-2.6 2.4 0 10.7 5.1 15.1 9.4 1.3 1.2 1.8 1.2 3.9-.5 1.3-1 3.2-1.9 4.2-1.9 1.7 0 1.9.9 1.9 10.6 0 11.7-.9 14.4-4.5 14.4-1.9 0-2.5.5-2.5 2.3 0 2.7-1.7 4.7-4.1 4.7-.9 0-1.9.9-2.2 2.1-.3 1.1-1.5 2.3-2.6 2.6-1.1.3-2.2 1.1-2.5 1.9-.3.8-1.5 1.4-2.6 1.4s-2 .7-2 1.5-.9 1.5-2 1.5-2 .7-2 1.5c0 .9-.8 1.9-1.7 2.2-1 .4-2.4 1.5-3.1 2.5-.7 1-2.2 1.8-3.3 1.8-1 0-1.9.7-1.9 1.5 0 .9-.8 1.9-1.7 2.2-1 .4-2.2 1.2-2.6 2-.4.7-1.2 1.3-1.7 1.3s-2.6 1.6-4.7 3.5-4.3 3.5-5 3.5c-.6 0-1.3.4-1.5.9-.1.5-6.1 5.5-13.3 11.1-14.9 11.7-24.1 16.5-33.2 17.6l-6.3.7v-3.7Zm45.9-27c0-.6-.3-.5-.6.2-.2.6-.9 1.2-1.5 1.2-1 0-2.3 1.2-4.8 4.5-.8 1 .4.4 2.8-1.5 2.3-1.8 4.2-3.8 4.1-4.4Zm6.5-4.9c-.4-.7-.4-.9.1-.5.9.8 6.9-3.2 17.5-11.6 25.7-20.4 30.3-24.3 32.1-27.3 1.2-1.9 1.8-4 1.4-5-.9-2.6-7.5-7.9-7.5-6.1 0 .8-1.2 2-2.7 2.8-8.8 4.1-15.6 8.7-16.1 10.9-.2.8.3 1.8 1 2.2 1 .7.9.9-.4.9-1 0-1.8.6-1.8 1.4 0 .7-.7 1.9-1.5 2.6-.8.7-1.2 1.7-.9 2.4.3.6-.1.2-1-.8-1.4-1.7-1.6-1.7-2.2-.3-.3 1-1.3 1.7-2.1 1.7s-1.1.5-.8 1c.4.6 1 .8 1.4.6.3-.3.7.4.7 1.5 0 1-.4 1.9-.8 1.9s-.8-.7-.8-1.5c0-.9-.6-1.2-1.5-.9-.8.4-1.5 1.1-1.5 1.6 0 .6-.8 1.7-1.7 2.4-2.4 1.7-1 2.9 1.7 1.4 4.1-2.2 3.2-.2-1.6 3.4-2.6 2-4.3 3.6-3.9 3.6.4 0 .2.6-.4 1.3-.6.8-.8 1.6-.5 2 .3.3-.4.3-1.7 0-1.5-.4-2-.3-1.5.5.4.6-.2 2-1.3 3.1s-1.7 2.2-1.3 2.5c.3.3-.2.6-1.1.6-1.1 0-1.4.5-1 1.5.3 1 .1 1.5-.7 1.3-.6-.2-1.6.7-2.1 2l-.9 2.3 3-2.1c1.7-1.2 2.7-2.7 2.4-3.3ZM224 97c0-1.7-1.6-1.1-4.1 1.6l-2.4 2.7 3.3-1.7c1.7-.9 3.2-2.1 3.2-2.6Z" fill="#016A97"/><path d="M120.3 182.3c-1.9-.4-2.3-1.1-2.3-3.9 0-3 .3-3.4 2.5-3.4 2 0 2.5-.5 2.5-2.3 0-1.3.9-3.2 2-4.2s2-2.9 2-4.2c0-1.2.3-2.3.8-2.3.4 0 1.6-2.1 2.7-4.6 1.1-2.5 2.8-5 3.8-5.6 1.1-.5 3-3.3 4.3-6.1 2.6-5.7 5.6-9.7 7.3-9.7.6 0 1.1-.9 1.1-2s.6-2 1.4-2c.8 0 1.7-1.1 2-2.5.4-1.4 1.3-2.5 2.2-2.5 2.5 0 4.4-2.6 4.4-5.9 0-1.7.5-3.1 1-3.1.6 0 1-.6 1-1.3 0-.7.9-1.8 1.9-2.4 1.2-.7 2.1-2.6 2.3-4.5.3-2.9.7-3.3 3.6-3.6 2.7-.3 3.4-.8 3.9-3.3.3-1.6 1.1-2.9 1.8-2.9s1.5-.7 1.9-1.5c.3-.8 1-1.5 1.5-1.5.6 0 2.1-1 3.4-2.2 2.9-2.8 8.8-7.6 18.6-15.1 8.2-6.3 12.3-7.3 15.3-3.7 2.5 2.8 6.4 3.6 8.3 1.6.9-.9 2.5-1.6 3.6-1.6 1.4 0 1.9-.7 1.9-3 0-2.1.4-2.8 1.4-2.4 2.3.9 8.4 9.2 10.2 14.1l1.7 4.4-3.4 2.9c-4 3.5-5.9 3.7-9.1 1-9.6-8.3-15.8-11.2-15.8-7.5 0 .7-.4 1.5-1 1.7-1.4.5.1 2.1 4 4.1 1.9 1 2.6 1.5 1.5 1.1-6.2-2.1-7.1-1.8-8.4 2.8-2.6 8.5-3.2 9.6-2.6 5.3.3-2.2.8-5.1 1.1-6.5.6-2.5.6-2.5-2.4.5-1.6 1.7-2.8 3.2-2.6 3.4.2.2-.8 1.7-2.1 3.3-1.4 1.6-2.5 3.6-2.5 4.4 0 .7-1.1 1.6-2.5 2-4 1-3.1 3.4 1.3 3.5 3.3.1 3 .3-2.6 1.6-8.1 1.9-9.2 3.8-6.9 12 .8 3.2 1.4 5.9 1.3 6.1-.2.1-1.2-2.1-2.3-5-1.1-2.8-2.5-5.4-3.1-5.6-.6-.2-1.5 1.4-2.1 3.4-.9 3.4-.8 4.1 1.2 6.3l2.2 2.4-2.7-1.8c-2.7-1.7-2.8-1.7-2.8.3 0 1.1.8 2.3 1.8 2.6.9.3 0 .3-2 0-3.4-.4-4.1-.1-7 3.2-1.8 2.1-3.3 4-3.3 4.3-.1 1.5-1.8 3.1-3.3 3.1-1.1 0-1.8.9-1.8 2.3-.4 5.4-5.4 14.1-5.4 9.3 0-.9.5-1.6 1-1.6 1.2 0 1.3-3.7.1-4.4-1.2-.8-2.9 1.6-2.6 3.7.2.9-.3 1.7-1 1.7s-1.9.7-2.6 1.6c-1.2 1.5-1.1 1.6 1.1.9 2.2-.7 2.3-.6 1.1.8-.7.9-1.7 1.4-2.2 1.1-.5-.3-.9.2-.9 1 0 .9-.7 1.6-1.5 1.6s-2.1 1.4-3 3c-.9 1.7-2.2 3-3 3-.8 0-1.5.8-1.5 1.8 0 .9-.7 2.6-1.5 3.6-2 2.6-1.9 4.6.1 4.6 3.3 0 15-6.3 22.8-12.3 14.6-11.3 38.9-30.2 49.1-38.1 17.9-13.9 23.1-19 25.4-24.9l2-5.2v5.3c.1 4-.3 5.2-1.4 5.2-1 0-1.5 1-1.5 2.8 0 3.4-1.6 5.2-4.6 5.2-1.6 0-2.4.7-2.6 2.3-.2 1.6-1.1 2.3-3 2.5-2 .2-2.8.9-2.8 2.3 0 1.2-.7 1.9-1.9 1.9-1 0-2.1.9-2.4 2-.3 1.1-1.2 2-2 2s-1.7.7-2.1 1.5c-.3.8-1.5 1.5-2.6 1.5s-2 .7-2 1.5c0 .9-.9 1.5-2.4 1.5-1.8 0-2.5.6-2.8 2.3-.2 1.4-1.1 2.3-2.5 2.5-1.3.2-2.3 1-2.3 1.8s-.9 1.4-2 1.4-2 .7-2 1.5-.9 1.5-2 1.5-2 .7-2 1.5c0 .9-.9 1.5-2.5 1.5-1.9 0-2.5.5-2.5 2.1 0 1.2-.8 2.3-1.9 2.6-1.1.3-2.2 1.1-2.5 1.9-.3.8-1.1 1.4-1.8 1.4s-1.9.9-2.6 2c-.7 1.1-1.8 2-2.5 2s-1.8.9-2.5 2-1.8 2-2.6 2-1.6.7-2 1.5c-.3.8-1.2 1.5-2 1.5-.7 0-1.6.7-2 1.5-.3.8-1.2 1.5-2 1.5-.7 0-1.6.7-2 1.5-.3.8-1.2 1.5-2.1 1.5-.8 0-1.5.4-1.5.8 0 1.4-11.2 6.2-16.9 7.2-5.3 1-16.5 1.1-20.8.3Z" fill="#01779B"/><path d="M187.701 136.4c-.9-1 .2-2.4 1.9-2.4.8 0 1.4.7 1.4 1.5 0 1.5-2.1 2.1-3.3.9ZM202 110.5c0-.8.7-1.5 1.5-1.5s1.5.7 1.5 1.5-.7 1.5-1.5 1.5-1.5-.7-1.5-1.5Zm24.199-13.6c.2-.6.8-1 1.3-1s1.1.4 1.3 1c.2.6-.4 1.1-1.3 1.1s-1.5-.5-1.3-1.1Z" fill="#01779B"/><path d="m134.198 192.3.3-12.8 3.8-.6 3.7-.6v7.8c0 4.2.2 8.4.6 9.2.5 1.5 5.4 1.2 5.4-.4 0-.5 1.6-.9 3.5-.9 3.3 0 3.5.2 3.5 3.5 0 2.8-.4 3.5-2 3.5-1.1 0-2 .4-2 .9 0 1.5-6 3.1-11.7 3.1h-5.4l.3-12.7Zm22.802-.8c0-3.3.2-3.5 3.5-3.5s3.5.2 3.5 3.5-.2 3.5-3.5 3.5-3.5-.2-3.5-3.5Zm13.198-10.2c.3-3.6.5-3.8 4.1-4.1l3.8-.3-.3 3.8c-.3 3.6-.5 3.8-4.1 4.1l-3.8.3.3-3.8ZM114 181c0-.5-.9-1-1.9-1-3.8 0-5.1-1.1-5.1-4.6 0-1.9.3-3.4.8-3.4 1.2 0 3.2-5.2 3.2-8.2 0-2.1.5-2.8 1.9-2.8 2.1 0 5.1-4.9 5.1-8.2 0-1 .4-1.8.9-1.8s1.2-1.1 1.5-2.5c.4-1.4 1.1-2.5 1.6-2.5.6 0 1-1.1 1-2.5s.5-2.5 1-2.5c.6 0 1-.7 1-1.5s.5-1.5 1-1.5c.6 0 1-.7 1-1.5s.5-1.5 1-1.5c.6 0 1-.7 1-1.5s.9-1.5 2-1.5c1.2 0 2-.7 2-1.6 0-.9.9-1.8 2-2.1 1.7-.4 2-1.4 2-5.3 0-4 .4-5 2-5.5 1.1-.3 2-1.5 2-2.6 0-1.2.7-1.9 2-1.9s2-.7 2-2-.7-2-2-2c-1.6 0-2-.7-2-3.5 0-3.3.2-3.5 3.5-3.5 2.4 0 3.5.5 3.5 1.5 0 .8.9 1.5 2 1.5s2 .7 2 1.5.9 1.5 2 1.5 2 .6 2 1.4c0 1 1.1 1.2 4.5.8l4.5-.5v3.7c0 2.9-.4 3.6-2 3.6-1.1 0-2 .7-2 1.5 0 2-3.2 8.5-4.2 8.5-.4 0-.8.7-.8 1.5s-.4 1.5-1 1.5c-.5 0-1.2 1.1-1.6 2.4-.4 1.7-1.5 2.7-3.5 3.1-1.9.4-2.9 1.3-2.9 2.5 0 1-.5 2-1.2 2.2-.6.2-2.3 3.3-3.8 6.9-2.1 5.2-3 6.4-4.8 6.3-1.2 0-2.2.5-2.2 1.1 0 .7-.7 1.8-1.5 2.5s-1.5 2.1-1.5 3.1c0 1.3-.7 1.9-2.2 2-1.3 0-1.7.3-1 .6.6.2 1.2 2 1.2 3.8 0 2.9-.4 3.4-2.7 3.7-2.3.2-2.9.8-3.1 3.6-.2 2-.9 3.2-1.8 3.2-.8 0-1.4 1-1.4 2.5 0 2.2-.4 2.5-3.5 2.5-1.9 0-3.5-.4-3.5-1Zm66-7.5c0-3.3.2-3.5 3.5-3.5s3.5.2 3.5 3.5-.2 3.5-3.5 3.5-3.5-.2-3.5-3.5Zm9-7c0-2.8.4-3.5 2-3.5 1.1 0 2-.7 2-1.5 0-1 1.1-1.5 3.5-1.5 3.3 0 3.5.2 3.5 3.5 0 2.8-.4 3.5-2 3.5-1.1 0-2 .7-2 1.5 0 1-1.1 1.5-3.5 1.5-3.3 0-3.5-.2-3.5-3.5Zm28-22c0-3.3.2-3.5 3.5-3.5s3.5.2 3.5 3.5-.2 3.5-3.5 3.5-3.5-.2-3.5-3.5Zm9-6.8c0-4 2.8-6.7 7-6.7 2.7 0 3 .3 3 3 0 4.2-2.7 7-6.7 7-3.1 0-3.3-.2-3.3-3.3Zm-48.002-29.2c-.7-1.4-1.7-2.5-2.2-2.5-.4 0-.8-.8-.9-1.7 0-1-.5-.3-1 1.5-.8 2.7-1.4 3.2-4 3.2-3.1 0-8.2-2.1-11.1-4.8-2-1.6-2.6-10.2-.8-10.2.6 0 1-.9 1-2 0-1.6.7-2 3.3-2 3.4.1 6.7 1.9 6.7 3.9 0 .6.9 1.1 2.1 1.1 1.2 0 2.3.8 2.6 2 .4 1.4 1.4 2 3.4 2 3 0 3.8 1.3 1.7 2.6-.7.5-.8.3-.3-.6.5-.8.4-1.1-.3-.6-1.1.7-.3 4.6 1.7 8.5.7 1.1.8 2.1.3 2.1s-1.5-1.1-2.2-2.5ZM172 82.4c0-3.7.4-4.7 2-5.1 1.1-.3 2-1.1 2-1.9 0-2.3 2.3-6.4 3.6-6.4.6 0 1.5-1.1 1.8-2.5.9-3.6 4-4.8 10.2-4 5.9.7 7.4 2.2 7.4 7.4 0 2.3-.9 3.6-3.7 5.8-2.1 1.5-4.7 3.6-5.8 4.7C185 84.5 180 87 176 87h-4v-4.6Zm46.4 2.5c-1-1.2-3.2-2.8-4.9-3.6-1.6-.9-3.3-2.2-3.8-2.9-.4-.7-1.4-1.1-2.2-.8-1.1.5-1.5-.1-1.5-1.9 0-1.4.7-2.7 1.5-3.1.9-.3 1.5-1.8 1.5-3.5 0-2 .6-3 1.9-3.4 1.2-.3 2.1-1.5 2.3-3.1.2-1.5.8-2.6 1.3-2.5 1.7.2 15.4 11.3 16 12.9.2.8.1 2.9-.3 4.5-.7 2.3-1.4 3-3.3 3-3 0-4.9 1.7-4.9 4.4s-1.2 2.7-3.6 0Z" fill="#00859E"/><path d="M135.598 194.4c.7-10.2.6-10.5-1.5-11.1-3.4-.9-2.5-3.1 1.7-3.8 11.7-2.1 17.1-5.1 36.8-20.5 8.1-6.3 18.2-14.2 22.4-17.5 35.8-27.7 39.5-30.9 42.7-37.5l2.2-4.5.1 16.4v16.4l-6.7 6.6c-3.8 3.6-12.6 11.1-19.7 16.6-21.7 16.8-24.7 19.1-36.6 28.5-20.7 16.3-29 21-37.6 21h-4.5l.7-10.6Zm3.2 4.6c1 0 .2-17.4-.9-18.5-.5-.5-.9 3.5-.8 10.5.1 6.3.3 10.7.6 9.8.2-1 .8-1.8 1.1-1.8ZM115.3 181.7c-3.6-.8-4.3-1.4-4.3-3.4 0-1.5.4-2.2 1.1-1.8.5.4 1.8 0 2.9-1 1-.9 2.7-1.7 3.9-1.8 2.1-.1 3.1-2.7 1-2.7-.6 0-.8-.9-.4-2 .5-1.6.2-2-1.7-2-1.7 0-1.9-.3-.9-.9 1.7-1.1 5.3-.2 4.4 1.2-.4.6-.1.7.6.2.9-.5 1-1 .2-1.8-1.6-1.6-1.3-2.7.7-2.8.9 0 1.2-.3.6-.5-.8-.3-.4-1.3 1-2.9 1.1-1.3 2.6-2 3.1-1.7.6.4.1-.2-1.2-1.3-2.8-2.5-3-4-.4-2.4 2.2 1.5 4.9.6 5.8-1.8.9-2.3 3.5-4.3 4.7-3.6.5.3.6 0 .4-.8-.3-.8-1-1.3-1.5-1.2-.5.1-1-.4-1-1.2 0-.8.4-1.2.9-.9 1.6 1 4.8-.8 4.8-2.7 0-1 .9-2.8 2-3.9s2-2.9 2-3.9c0-1.5.5-1.9 2.5-1.5 1.7.3 2.3 0 1.9-.9-.2-.7.7-2.6 2.1-4.1 1.4-1.5 2.5-3.2 2.5-3.7 0-.6.4-.8.8-.5.5.3 1.6-1 2.5-2.9 1.4-2.9 1.4-3.4.1-3.9-.9-.3-1.2-1.1-.8-1.7.5-.8.3-.9-.5-.5-.8.5-1.4 0-1.8-1.3-.6-2.5-1.2-2.6-3.9-.6-2.6 1.8-3.4 1.1-3.4-3.2 0-3.1.2-3.3 3.5-3.3 1.8 0 3.8.6 4.2 1.3.4.6 1.8 1.7 2.9 2.4 1.8 1 2.5.8 4.3-1.1 1.1-1.2 2.1-3 2.1-3.9 0-1.9.5-2.1 2.8-.8 2.3 1.2 5.2-.9 4.8-3.5-.2-1-.8-2-1.4-2-.7-.1-1.6-.2-2.2-.3-.5 0-1-.8-1-1.7 0-.9-.6-1.4-1.3-1.1-.8.3-1.4-.1-1.4-.9 0-2.1 6.3-1.8 7.9.4 2 2.8 4.3 3.2 5.6 1.1.7-1 1.7-1.9 2.2-1.9.9 0 1.8-.7 7.1-5.5.9-.8 2.3-1.5 3.1-1.5.9 0 1.8-.9 2.1-2 .3-1.2 1.4-2 2.6-2 1.2 0 2.1-.6 2.1-1.5 0-.8.6-1.5 1.4-1.5.8 0 1.6-.7 2-1.5.3-.8 1.5-1.5 2.6-1.5s2-.7 2-1.5.6-1.5 1.4-1.5c.8 0 1.7-.7 2-1.6.4-1 1.6-1.4 3.8-1.2 4.1.4 4.6 2.1 1.1 3.7-2.8 1.3-18.2 12.7-23.8 17.7-1.6 1.4-2.9 3-2.7 3.6.1.5-.2.7-.8.3-1.3-.8-4.2 1.4-3.4 2.6.3.5 0 .9-.5.9-2.1 0-2.6.2-3.8 1.2-.7.6-1.3 1.5-1.3 2.1 0 .6.6.3 1.3-.6 1-1.5 1.2-1.3 1.1 1.5-.1 3.2.6 4.5 3.8 7.5 1.7 1.6 1.6 3.3-.2 3.3-1 0-4.4-6.9-4.2-8.2.1-.5-.5-.8-1.3-.8s-1.5-.8-1.6-1.7c-.1-1.2-.4-.9-.9.7-.6 2-.2 3 2.1 5 3.1 2.7 3.6 4.4 1.7 5.6-.7.5-.8.3-.3-.6.6-1-.4-1.1-4.6-.5-5.8.8-10.9 3.2-10.9 5.1 0 .7-.6 1.5-1.2 1.7-.9.4-.8.6.2.6.8 0 3.9-1 6.9-2.4 8.1-3.8 7.3-2.2-1 2.2l-7.4 3.8 4.5.6c4.3.6 4.3.6 1 .8l-3.5.3 3 1.4c2.6 1.3 2.7 1.4.5 1-1.4-.3-3.5-.9-4.7-1.2-1.4-.4-2.3-.2-2.3.5 0 .6-.9 1.1-2 1.1s-2 .6-2.1 1.3c0 .6-.5.3-1-.8-.7-1.5-.8-1.2-.3 1.3.4 2.5.2 3.2-1 3.2-.9 0-1.6.8-1.6 2 0 1.1-.5 2-1 2-1.7 0-5.8 5.2-7 8.8-.7 1.8-1.6 3-2.1 2.7-.5-.4-.6 0-.3.8.3.9-.4 2.1-1.6 3-1.2.8-2.8 2.7-3.5 4-1.2 2.3-1.1 2.8.9 4.6 1.2 1.2 2.7 2.1 3.4 2.1 1.4 0 2.5 1.7 1.7 3-.7 1.2-3.5.2-3.5-1.4 0-.6-1.2-1.9-2.5-2.9-2.2-1.5-2.5-1.6-2.5-.2 0 .8-.6 1.5-1.2 1.6-.7 0 .3.7 2.2 1.4 3.4 1.3 3.5 1.3.7 1.4-3.3.1-7.6 4.5-7.7 7.9 0 1.7-.6 2.2-2.7 2.3-2.4.1-2.2.3 1.3 1.2 5.3 1.5 4.7 3.7-.9 3.6-2.3-.1-6.1-.6-8.4-1.2Zm60.7-69.8c-1.4-.6-3.7-1.1-5.2-1.1-1.5-.1-2.5-.5-2.2-1 .3-.4.1-.8-.5-.8-1.4 0-2.3 1.8-1.6 3 .3.6 3.2 1 6.3.9 4.8 0 5.3-.2 3.2-1Z" fill="#0085A6"/><path d="M118.099 161.8c-.1-.9.6-2.4 1.5-3.2 2.1-2.2 3.1-2 1.2.2-.9.9-1.8 2.4-2.1 3.2-.4 1.2-.6 1.2-.6-.2ZM157 155c0-.5.7-1 1.5-1s1.5.5 1.5 1c0 .6-.7 1-1.5 1s-1.5-.4-1.5-1Zm6-12.5c0-.9.5-1.5 1.1-1.3.6.2 1.1.8 1.1 1.3s-.5 1.1-1.1 1.3c-.6.2-1.1-.4-1.1-1.3Zm-29-10c0-1.4.5-2.5 1-2.5.6 0 1-.6 1-1.4 0-.7 1-1.6 2.3-2 3.5-.9 4.7-.7 4.7 1 0 .9.5 1.2 1.2.8.6-.4.8-.3.5.3-.4.6-2.3 1.4-4.3 1.8-2.4.4-3.8 1.3-4.1 2.6-.8 2.7-2.3 2.4-2.3-.6Zm68.701-21.1c-.8-.8.1-2.4 1.4-2.4.5 0 .9.7.9 1.5 0 1.5-1.2 2-2.3.9ZM228.102 92c-.1-.3-.3-2.7-.5-5.4s-1-5.2-1.7-5.6c-1.4-.9-3.9 1.1-3.9 3.2-.1.8-.5.7-1.5-.5-1.1-1.6-1.1-2.1.3-3.8.9-1 2.4-1.9 3.4-1.9 2.1 0 2.3-1.1.6-2.8-.9-.9-.9-1.5.1-2.4 1.2-1.1 1.3-.9.7.7-.6 1.8-.5 1.7 1.5-.4l2.2-2.3 1.3 2.3c.8 1.6.9 2.6.2 3-.6.4-1.4 4.2-1.8 8.5-.4 4.4-.8 7.7-.9 7.4Zm-20.503-1.7c-1.1-1.1-.6-2.3.8-2.3.8 0 1.7.4 2 .9.7 1-1.9 2.3-2.8 1.4Zm-21-13c5.2-4.7 5.4-4.8 5.4-1.4 0 2.9-.2 3.1-3.7 3.1-3.6 0-3.6 0-1.7-1.7ZM185 73.6c0-1 .8-1.6 2.2-1.6 1.2 0 1.9.1 1.7.3-.2.1-1.2.9-2.1 1.6-1.5 1.2-1.8 1.1-1.8-.3Z" fill="#0085A6"/><path d="M125.2 206c-2.2-.9-2.3-1.2-1.6-11.4l.7-10.4-3.4-.7c-6.9-1.3-15.7-4.6-20.3-7.5-4-2.6-4.6-3.4-4.6-6.5 0-1.9.4-3.5.9-3.5s1.3-.9 1.6-2c.3-1.1 1.5-2 2.6-2 1.4 0 2-.9 2.5-4 .5-2.8 1.8-5.1 4.5-7.7 2.2-2.1 3.9-4.8 3.9-6 0-3.1 1-5.3 2.5-5.3 1.7 0 2.5-2.3 2.5-7.6 0-4.2.1-4.4 2.9-4.4 1.6 0 5.6.8 8.9 1.9l6 1.8.5-2.6c.3-1.6-.5-4.6-2.4-8.3-3.6-7-3.6-9.9-.4-13.4 1.6-1.8 2.5-3.9 2.5-6 0-3.2.2-3.4 3.4-3.4 2.4 0 4.3.9 6.6 3 1.8 1.7 3.6 3 4.1 3 .4 0 1.3.9 1.9 2 .6 1.1 1.7 2 2.5 2s1.5.7 1.5 1.6c0 1.3.7 1.5 3.1 1 1.7-.3 4-.6 5-.6 1.1 0 1.9-.4 1.9-1 0-.5-.9-1-2-1-1.3 0-2-.7-2-2 0-1.4-.7-2-2.1-2-1.2 0-4.7-2.1-7.8-4.7-3.1-2.6-5.8-4.8-5.9-4.9-.2-.1-.1-3.2.3-6.8.7-6.5.8-6.6 3.7-6.6 2 0 5.2 1.6 9.4 4.7 3.5 2.6 6.4 5 6.4 5.5 0 .4.7.8 1.5.8s1.5.7 1.5 1.5.9 1.5 2 1.5 2 .7 2 1.5c0 1 1.1 1.5 3.5 1.5 2.8 0 3.5-.4 3.5-2 0-1.3.7-2 2-2 1.1 0 2-.7 2-1.5 0-.9.9-1.5 2.5-1.5 1.8 0 2.5-.5 2.5-2s.7-2 2.5-2 2.5-.5 2.5-2c0-1.3.7-2 2-2 1.1 0 2-.7 2-1.5s.9-1.5 2-1.5 2-.7 2-1.5c0-.9.8-1.9 1.8-2.2 2.4-.9 3.3-2.5 2-4-1.5-1.9-2.8-1.6-5 1.2-1.1 1.4-2.5 2.5-3.3 2.5-.7 0-1.5.7-1.9 1.5-.3.8-1.4 1.5-2.5 1.5-1 0-2.1.9-2.4 2-.3 1.2-1.4 2-2.6 2-1.2 0-2.1.6-2.1 1.3 0 1.9-5.3 4.7-8.8 4.7-2.2 0-4.9-1.5-9.4-5.1-7.4-5.9-8-6.9-7.6-11.2.2-2.4.8-3.3 2.5-3.5 1.5-.2 2.5-1.5 3.4-4.8.7-2.4 1.9-4.4 2.6-4.4.7 0 1.3-.4 1.3-1 0-.5 1.1-1.2 2.5-1.6 1.6-.4 2.5-1.3 2.5-2.5 0-3.1 7.4-2.6 10.6.6 1.4 1.4 3.1 2.5 3.9 2.5.7 0 1.5.3 1.7.8.5 1.1 6.6 5.2 7.8 5.2.5 0 1-1.3 1-3 0-2.4.4-3 2.3-3 1.2 0 2.8-.9 3.5-2 1.2-2 1.4-1.9 6.6 2 3 2.3 5.7 4.8 6 5.6.4 1 .2 1.2-.6.8-.7-.5-.9.1-.6 1.9.3 1.7 0 2.8-1 3.2-1 .3-1.2 1.3-.8 3 .5 1.9.2 2.5-.9 2.5-1.7 0-11.3 7.1-27.4 20-12.9 10.3-11.9 9.8-13.5 7.5-.7-1.1-3.6-3.6-6.2-5.5-2.7-1.9-4.3-2.7-3.6-1.8 1.1 1.4 1 1.7-.7 2.3-3.6 1.1-1.3 5.2 4.4 8 4.1 1.9 4.4 3.2 1.3 4.4-1.3.5-3.8 2.3-5.6 4-3.2 3-6.2 4.1-6.2 2.2 0-.5-1.9-2.4-4.2-4.2-2.4-1.8-3.5-2.4-2.5-1.2 1.6 1.8 1.6 2.1.2 2.6-.8.4-1.5 1.3-1.5 2.2 0 .8-.9 1.5-2 1.5-1.3 0-2 .7-2 1.9 0 1.1-.9 2.3-2 2.6-2.3.7-2.7 4.3-.6 5.1.8.3 1.6 1.4 1.9 2.5.3 1 .2 1.7-.2 1.5-1.3-.8-7.1 2.3-7.1 3.9 0 .8-.9 1.5-2 1.5s-2 .7-2 1.5-.5 1.5-1.1 1.5c-.5 0-.7.5-.4 1 .3.6-.1 1.3-1 1.6-1.4.6-1.2 1.1 1.2 3.1 2.1 1.8 2.3 2.3.8 1.8-5.4-1.9-5.8-1.9-5.3.2.4 1.3-.2 2.7-1.4 3.8-2 1.7-2 1.8 2.3 6.3l4.4 4.5-4-3.1c-4.3-3.4-6.8-4.2-5.8-1.7.3.9-.1 2.3-.9 3.3-.8.9-1.8 2.5-2.1 3.5-.4.9-1.6 1.7-2.8 1.7-3.1 0-2 .8 2.1 1.5 4.7.8 5 1.5.7 1.5-3.2 0-3.8.4-5.4 3.8-.9 2-2.1 4-2.6 4.3-2 1.4 8.3 4.2 17.1 4.7l9.2.5V202h2.8c5.7 0 15.9-6.3 36.2-22.5 3.6-2.8 17.1-13.4 30-23.5 12.9-10.1 24.2-19 25-19.9 3.1-3.2 6.8-8.7 7.8-11.6 1-2.8 1-2.5 1.1 2.8.1 5-.3 6.1-2.8 8.7-1.5 1.7-3.3 3-3.8 3-.6 0-1.3.9-1.6 2-.3 1.1-1.4 2-2.5 2s-2.2.9-2.5 2c-.3 1.1-1.2 2-2 2s-1.7.7-2.1 1.5c-.3.8-1.5 1.5-2.6 1.5s-2 .7-2 1.5c0 .9-.8 1.9-1.7 2.2-1 .4-2.4 1.5-3.1 2.5-.7 1-1.9 1.8-2.5 1.8-.7 0-1.8.9-2.5 2s-1.8 2-2.6 2-1.6.7-2 1.5c-.3.8-1.5 1.5-2.6 1.5s-2 .7-2 1.5c0 .9-.8 1.9-1.7 2.2-1 .4-2.2 1.2-2.6 2-.4.7-1.6 1.3-2.5 1.3-1 0-2.2.9-2.7 2.1-.6 1.2-2.3 2.8-4 3.8-1.6.9-3.6 2.4-4.3 3.4-.7.9-2.2 1.7-3.3 1.7-1 0-1.9.7-1.9 1.5s-.9 1.5-2 1.5-2 .7-2 1.5c0 .9-.8 1.9-1.7 2.2-1 .4-2.2 1.2-2.6 2-.4.7-1.7 1.3-2.7 1.3-1.1 0-2 .6-2 1.4 0 1.5-7.2 6.6-9.5 6.6-.8 0-1.5.4-1.5 1 0 2.6-22.2 6-26.8 4Zm54.6-123.7c5-3.2 13.7-10.6 13.5-11.4-.2-.5 0-.8.5-.8 1.9.3 2.2-.3 1.2-2.1-.9-1.6-1.8-1.9-5.3-1.6-3.3.3-4.1.8-3.9 2.1.2 1-.1 1.4-.7 1-.6-.3-1.1.1-1.1 1.1 0 1.4.7 1.6 3.7 1.1l3.8-.6-3.9 2.3c-2.1 1.2-3.6 2.5-3.4 2.8.4.8-3.3 4.8-4.4 4.8-.5 0-.6-.5-.2-1.2.5-.7.3-.8-.7-.2-.8.5-1.8.9-2.4.9-.5 0-1.1.8-1.3 1.8-.4 2.2 1.1 2.2 4.6 0ZM182 76c.6-1.1.8-2.5.4-3.2-.6-1-3.3 2.5-3.4 4.5 0 1.5 2 .6 3-1.3Z" fill="#008EA4"/><path d="M137.199 148.9c.2-.6.8-1 1.3-1s1.1.4 1.3 1c.2.6-.4 1.1-1.3 1.1s-1.5-.5-1.3-1.1ZM154 126.5c0-.8.7-1.5 1.5-1.5s1.5.4 1.5.9-.7 1.1-1.5 1.5c-.9.3-1.5 0-1.5-.9Zm-7.802-6.4c.2-.7.7-1.2 1.1-1.2 1.2.1.9 1.5-.3 2-.7.2-1.1-.2-.8-.8Zm81.503-40.7c-.8-.8.1-2.4 1.4-2.4.5 0 .9.7.9 1.5 0 1.5-1.2 2-2.3.9Z" fill="#008EA4"/><path d="M157 214.5c0-3.3.2-3.5 3.5-3.5s3.5.2 3.5 3.5-.2 3.5-3.5 3.5-3.5-.2-3.5-3.5Zm-41.7-8.7c-4-1-4.3-1.3-4.3-4.4 0-1.9.5-3.4 1-3.4.6 0 1-3.3 1-7.9 0-7.1-.2-8-2-8.6-1.1-.3-2-1.1-2-1.6s-1.1-.9-2.5-.9-2.5-.4-2.5-1c0-.5-.7-1-1.7-1-1.7 0-10.7-6.3-16-11.3-5-4.7-4.3-10.5 1.4-13.6 1.9-.9 2.3-2 2.3-5.6 0-4.5 0-4.5 3.5-4.5 2.2 0 3.8.6 4.1 1.5.4.8 1.1 1.5 1.6 1.5.6 0 2.7 1.3 4.7 2.9l3.7 3 1.3-2.2c1.2-1.9 1-2.4-2.3-5.1-2.9-2.5-3.6-3.8-3.6-6.8 0-2.1.6-4.3 1.3-4.9.7-.7 1.1-2.8.9-5-.4-3.7-.3-3.9 2.4-3.9 1.6 0 8.4 1.6 15.2 3.6 11.1 3.4 12.2 3.9 12.2 6 0 1.3-.1 2.4-.2 2.4-.2 0-2.7-.9-5.6-2-6.7-2.6-6.7-2.6-8.2 1-1.1 2.7-1 3.3.6 5.2 1.9 2 1.9 2.1-.3 1.4-1.4-.5-2.3-.3-2.3.3s-.7 1.1-1.6 1.1c-.8 0-1.2.5-.9 1 .3.6 0 1-.7 1.1-.7 0-.3.4 1 .9 2.6 1.1 3 4 .5 4-2.3 0-8.5 5.8-7.7 7.1.3.5 0 .8-.7.7-1.1-.3-1.9 2.1-2.2 7.5-.2 2.1-.7 2.7-2.5 2.7-1.3 0-3 .7-3.8 1.5-1.3 1.3-1 1.8 3.2 4.5 4.5 2.8 13.4 6.2 20.2 7.5l3.4.7-.3 10.6c-.3 10-.2 10.6 1.9 11.3 3.1 1.2 13.9-.8 19.8-3.6 2.8-1.3 8.7-5.1 13-8.5 32.5-24.8 68.4-53.2 71.5-56.6 1.5-1.6 3.6-4.7 4.7-6.9l2.1-4 .1 5.3c0 2.8-.4 5.2-1 5.2-.5 0-1 .5-1 1.1 0 1.4-5.2 6.9-6.5 6.9-.6 0-1.6.9-2.3 2-.7 1.1-1.9 2-2.7 2-.8 0-1.5.5-1.5 1 0 .6-.6 1.3-1.4 1.6-.8.3-3.3 2.3-5.7 4.5-2.3 2.1-4.8 3.9-5.5 3.9-.6 0-1.4.7-1.8 1.5-.3.8-1.5 1.5-2.6 1.5s-2 .7-2 1.5c0 .9-.8 1.9-1.7 2.2-1 .4-2.4 1.5-3.1 2.5-.7 1-1.9 1.8-2.6 1.8-.8 0-1.6.7-2 1.5-.3.8-1.1 1.5-1.8 1.5s-1.9.9-2.6 2c-.7 1.1-2.1 2-3.2 2s-2 .7-2 1.5-.6 1.5-1.3 1.5c-.7 0-1.8.9-2.5 2s-1.6 2-2.1 2-2.6 1.6-4.7 3.5-4.3 3.5-5 3.5c-.6 0-1.4.7-1.8 1.5-.3.8-1.1 1.5-1.8 1.5s-1.9.9-2.6 2c-.7 1.1-1.9 2-2.7 2-.8 0-1.5.5-1.5 1 0 .6-.7 1-1.5 1s-1.5.5-1.5 1c0 .6-.7 1-1.5 1s-1.5.4-1.5.9c0 .4-2.4 1.9-5.2 3.1-4.4 1.9-7.4 2.3-17.8 2.6-6.9.1-14.4-.2-16.7-.8Z" fill="#009CAA"/><path d="M136.399 127.3c.3-2.6.8-4.8 1.1-5.1.4-.4 5.4 4.9 5.4 5.8 0 .3-1.6 1.3-3.6 2.2l-3.6 1.7.7-4.6Zm-20.799-9.8c-.4-1.9-1.1-3.5-1.6-3.5-.6 0-1-1.6-1-3.5 0-3.3.2-3.5 3.5-3.5 1.9 0 3.5.5 3.5 1 0 .6.9 2 2 3.2 1.3 1.4 2 3.6 2 6 0 3.8-.1 3.8-3.9 3.8-3.6 0-3.9-.2-4.5-3.5Zm11.501-8.3c-3-6.7-4.1-13.2-2.1-13.2.6 0 1-1.3 1-3 0-2.7.3-3 3.1-3 3 0 11.9 5.4 11.9 7.2 0 .4.7.8 1.5.8s1.5.9 1.5 2c0 1.5.7 2 2.5 2 1.6 0 2.5.6 2.5 1.5s.9 1.5 2.1 1.5c1.2 0 2.3.8 2.6 1.9.6 2.3 5.2 3.4 7 1.6 2.2-2.2 1.6-4.5-1.2-4.5-1.6 0-2.5-.6-2.5-1.5s-.9-1.5-2.1-1.5c-1.2 0-2.3-.8-2.6-2-.3-1.1-1.4-2-2.4-2s-2.4-.9-3.1-2c-.7-1.1-1.7-2-2.3-2-.5 0-2.7-1.6-4.7-3.5-3-2.8-3.8-4.3-3.8-7 0-1.8.5-3.7 1-4 .6-.3 1-1.5 1-2.6 0-3.2 5.3-2.4 11.5 1.7 3 2 5.5 4.1 5.5 4.5 0 .5.7.9 1.5.9.7 0 1.8.6 2.2 1.3.4.8 1.6 1.6 2.6 2 .9.3 1.7 1.3 1.7 2.2 0 .8.9 1.5 2 1.5s2 .7 2 1.5.9 1.5 2 1.5c1.6 0 2 .7 2 3.1 0 2.4-.3 2.9-1.2 2.2-.7-.5-5.1-3.8-9.8-7.3-4.7-3.5-9-6.7-9.7-7.2-.8-.7-1-.3-.6 1.1.3 1.2 1.3 2.1 2.2 2.2 1.1 0 1 .3-.5.9-1.2.5-2.4 1.2-2.7 1.7-.4.7 9.4 8.9 19.5 16.5 2.3 1.6 2.3 1.7.3 2.4-1.1.4-4 2.3-6.4 4.2-3.7 3-4.6 3.3-5.5 2.1-.6-.8-4.5-4.1-8.6-7.3-9.9-7.9-10.8-8.5-8.6-5.9 1.8 2.2 1.8 2.3-2.2 6.1-2.9 2.8-3.8 4.3-3.1 5.3 1.4 2.2 1.1 2.9-1.5 2.9-1.9 0-2.9-1.2-5.5-6.8Zm46.598-6.9c-2.5-2.4.9-6.3 5.4-6.3h3.3l-3.4 3.5c-3.7 3.6-4.2 3.9-5.3 2.8ZM184 92.1c0-2.6.4-3.1 2.5-3.1 1.8 0 2.5-.5 2.5-2s.7-2 2.5-2 2.5-.5 2.5-2c0-1.6.7-2 3.5-2 1.9 0 3.5.2 3.5.4 0 .3-10 8.5-15.7 12.9-1 .7-1.3.2-1.3-2.2Z" fill="#009CAA"/><path d="M172 86.5c0-.8-.9-1.5-2-1.5s-2-.7-2-1.5-.9-1.5-2-1.5-2.5-.9-3.2-2c-.7-1.1-1.6-2-2.1-2-1.7 0-8.8-6.5-10.2-9.3-2-4-2-8.7 0-8.7.8 0 1.5-.9 1.5-2s.7-2 1.5-2c.9 0 1.5-.9 1.5-2.5 0-1.8.5-2.5 1.9-2.5 1 0 2.1-.7 2.5-1.5.3-.8 1.2-1.5 2.1-1.5.8 0 1.5-.9 1.5-2 0-1.7.7-2 4-2 2.7 0 4.7.7 6 2 1.1 1.1 2.4 2 3 2 .5 0 2.6 1.1 4.6 2.5 4.4 3 5 3.1 6.6.5.7-1.1 1.8-2 2.5-2s1.3-.3 1.3-.7c0-.5 1.2-1.4 2.7-2 2.4-1.2 3-.9 8.6 3.5 3.3 2.6 6.2 5.2 6.3 5.7.5 1.7-2.3 4.6-4.5 4.8-2.2.1-3 1.7-.8 1.7.8 0 .7.4-.3 1-1.3.8-1.3 1 .1 1 .9 0 2.4 1.1 3.2 2.3.9 1.3 2.9 3 4.6 3.7 3.9 1.6 3.9 2.3-.3 4.8l-3.4 2-.7-3.4c-.4-2.5-1.1-3.4-2.5-3.4-1.1 0-2 .5-2 1 0 .6-1.1 1-2.5 1-1.8 0-2.5.5-2.5 2 0 1.3-.7 2-1.9 2-1 0-2.1.9-2.4 2-.3 1.2-1.4 2-2.6 2-1.2 0-2.1.6-2.1 1.5 0 1-1.1 1.5-3.5 1.5-3.1 0-3.5.3-3.5 2.5 0 2.3-.4 2.5-4.5 2.5-3.3 0-4.5-.4-4.5-1.5Zm17.8-11.3c6.7-5.2 8-6.7 7.1-7.8-.6-.8-1.6-1.4-2.1-1.4-1.1 0-7.2-4.2-7.6-5.2-.2-.5-1-.8-1.7-.8-.8 0-2.5-1.1-3.9-2.5-3.2-3.2-4.6-3.2-4.6.1 0 1.4-.4 2.3-.9 2-.5-.4-1.7-.3-2.6 0-1.4.6-1 1 1.6 2.1 1.9.8 4.2 1.2 5.1.9 1.1-.2 1.8.1 1.8.9 0 1.7-2.5 2.6-3.7 1.4-.5-.5-2.3-1.1-4-1.3-3.6-.5-6.5 2-6.7 5.6-.1 1.6-.8 2.3-2.3 2.4-1.3.1-2.5.2-2.8.3-1.3.3 1.4 3.3 7.4 8.1 7.4 5.9 5.6 6.3 19.9-4.8Z" fill="#009CAA"/><path d="M135 216.5v-12.4l3.8-.7c2-.3 6.4-1.9 9.7-3.5 6.4-3 9.5-5.2 41.5-30.3 44.7-34.9 43.6-33.9 47.5-40.7l2.5-4.4v31.7l-5.7 5.9c-3.2 3.2-10.4 9.4-16 13.6-5.5 4.3-21.3 16.5-35 27.2-27 21.1-35.3 26.1-43.5 26.1H135v-12.5Zm-18.7-10.2c-1.3-.2-2.3-.9-2.3-1.4 0-.5-1.1-.9-2.5-.9h-2.4l.6-11.4c.6-11 .5-11.4-1.6-12.1-1.1-.3-2.1-1.1-2.1-1.6s-.9-.9-2-.9c-1.5 0-2-.7-2-2.5 0-2.8.1-2.7 8.8 1.5l5.5 2.6-.2 10.4c-.1 5.8-.7 10.7-1.2 11.1-.5.3 1.5 1.1 4.6 1.8 9.3 2.1 6.3 5.2-3.2 3.4ZM94 169.9v-3l3 2.1c4.4 3.1 4.5 4 .6 4-3.3 0-3.6-.2-3.6-3.1Zm-12.198-7.4c-3.5-3-3.9-8.6-.8-11.2 1.1-1 2-2.2 2-2.9 0-.6.9-1.9 2-2.9s2-2.6 2-3.7c0-1.4.8-1.8 3.5-1.8 1.9 0 3.5.4 3.5.8 0 .5 1.1 1.5 2.5 2.2 1.6.9 2.5 2.2 2.5 3.7 0 1.3-.4 2.2-1 1.8-1.1-.7-5 2.5-5 4.2 0 .7-1 1.8-2.2 2.4-4.4 2.4-4.9 4.1-2 7.2l2.6 2.7h-3.5c-2.1-.1-4.4-.9-6.1-2.5ZM106 142.6c0-.8-.9-1.7-1.9-2.1-4.3-1.3-7.1-4.6-7.1-8.2 0-2.6.5-3.6 1.9-4 1.1-.3 2.1-1.4 2.4-2.4.5-1.8 1.3-2 6.4-1.7 4.5.2 5.9.7 6.1 2 .2 1.3-.2 1.5-1.9 1.1-1.5-.4-2-.3-1.5.5.4.7.3 1.2-.3 1.2-1.3 0-.8 2.4.9 4.5 1.2 1.5 1.1 1.6-1.5.9-1.9-.5-2.6-.3-2.1.4.3.6 0 1.3-.6 1.5-.8.3.2 1.8 2.7 4.1l4 3.5-3.7.1c-2.7 0-3.8-.4-3.8-1.4Zm4.8-23.9c-2.3-.9-2.8-1.7-2.8-4.4 0-2.3.5-3.3 1.5-3.3 1.1 0 1.5-1.1 1.5-4 0-3.9.1-4 3.4-4 3 0 3.7.5 5.5 4.3 1.2 2.4 2.1 6.2 2.1 8.5v4.2l-4.2-.1c-2.4-.1-5.5-.6-7-1.2Zm15.6-14.5c-2.9-.4-5.4-6.2-5.4-12.7V86h3.3c3.8 0 9.7 5 9.7 8.2 0 2-.1 2-2.7.3-1.6-1-2.3-1.2-1.7-.6 1.6 1.7.6 6.1-1.2 5.4-1.2-.4-1.2 0-.4 2.2 1.2 3.2 1.2 3.2-1.6 2.7Z" fill="#00A5AB"/><path d="M131 101c0-.5.7-1 1.5-1s1.5.5 1.5 1c0 .6-.7 1-1.5 1s-1.5-.4-1.5-1Zm5.5-14.1c-.5-.5-2.5-2.2-4.2-3.8-2.7-2.4-3.3-3.6-3.3-7 0-2.3.5-4.1 1-4.1.6 0 1-.9 1-2 0-3.4 5.3-2.6 11 1.7 4 3 5 4.3 5 6.6v2.8l-3-2.1c-3-2.1-3-2.1-3-.1 0 1.1-.4 2.3-1 2.6-1.3.8-1.3 2.5.1 2.5.5 0 .7-.5.3-1.2-.5-.7-.3-.8.5-.4.7.5 1 1.1.7 1.4-.3.3.1 1.4 1.1 2.4 1.5 1.7 1.4 1.8-1.8 1.8-1.9-.1-3.8-.5-4.4-1.1Zm9.303-20c-5-4.3-5.5-5.9-4.2-12.9.5-2.1 1.5-3.5 3-4.1 1.5-.5 2.4-1.7 2.4-2.9 0-1.1.7-2.3 1.5-2.6.8-.3 2.4-2.1 3.6-4 1.7-2.7 2.7-3.4 5.3-3.4 4 0 8.7 2.2 14.3 6.7 3.9 3.1 4.2 3.2 4.8 1.3.3-1.1 1.3-2 2.1-2s1.4-.4 1.4-1c0-.5.7-1 1.5-1 .9 0 1.5-.9 1.5-2.5 0-1.4.5-2.5 1.1-2.5 1 0 15.9 11.7 15.9 12.6 0 .2-.3.4-.7.3-.5-.1-1.7.2-2.9.6-1.6.5-2 1.3-1.7 3.8.2 1.8 0 2.6-.3 2-.9-2.1-3.6-1.5-6.6 1.4-1.8 1.7-3.2 2.4-3.6 1.7-1.4-2-10.3-7.4-12.3-7.4-1.1 0-1.8-.4-1.4-.9.3-.6-.3-1.5-1.4-2-2.7-1.5-2.8-1.4-2.7 1.2.1 1.6-.5 2.2-1.9 2.2-1.3 0-2.1.8-2.3 2.3-.2 1.2.1 2.2.6 2.2 1.3 0 .8 3.3-.5 3.7-.6.2-1.4-.1-1.8-.6-.4-.8-1.2-.8-2.6-.1-1 .6-1.9.7-2 .3-.1-.4-.4.3-.8 1.7-.5 1.4-1.4 2.4-2.2 2.2-.8-.2-.3.8 1.1 2.4 1.4 1.5 1.8 2.3 1 1.9-1-.5-.8-.1.4 1.3l1.9 2.2h-3.4c-2.5-.1-4.7-1.1-8.1-4.1ZM197 69.7c.9-.7 2.6-2.3 3.8-3.6l2.2-2.5v3.7c0 3.6-.1 3.7-3.7 3.7-3.2-.1-3.5-.3-2.3-1.3Zm-8.399-8.6c.5-.5 2.5-1.2 4.4-1.5l3.5-.7-3.4 1.6c-3.7 1.7-6 2-4.5.6Z" fill="#00A5AB"/><path d="m127.7 219.1.6-10.8-5.8-.8c-5.9-.7-11-2.2-17-5.1-4-1.9-4.6-5-2-10 .8-1.6 1.5-5.2 1.5-8 0-4.8-.2-5.1-3.5-6.7-1.9-.9-3.5-2.1-3.5-2.7 0-.5-.7-1-1.5-1s-1.5-.7-1.5-1.5-.9-1.5-2-1.5c-1 0-2.3-.6-2.7-1.4-.4-.7-1.4-1.5-2-1.7-.7-.2-4.8-3.3-9.2-6.9-6.9-5.6-8-6.9-8.1-9.6 0-2.7.4-3.2 3-3.8 1.7-.3 3-1.2 3-1.9 0-.8.9-2.6 2-4s2-3.5 2-4.6c0-3.4 5.7-2.8 9.8.9 1.8 1.7 3.7 3 4.3 3 .5 0 .9.5.9 1 0 .6.7 1 1.5 1 .7 0 1.8.6 2.2 1.3.4.8 1.6 1.6 2.6 2 .9.3 1.7 1.3 1.7 2.2 0 .8.9 1.5 2 1.5 1.6 0 2 .7 2 3 0 1.7-.2 3-.5 3s-3.3-2.3-6.7-5.1c-3.5-2.8-6.9-5.3-7.6-5.6-1.4-.6-7.2 4.4-7.2 6.2 0 .6-.9 1.8-2 2.8-1.1.9-2 2-2 2.4.1 1.5 18.6 15.4 24.8 18.6l6.3 3.2-.3 11.3-.3 11.3 4.9 1.4c2.7.8 8.5 1.5 12.8 1.5h7.8v11c0 9.1.3 11 1.5 11 .8 0 1.5.9 1.5 2 0 1.8-.7 2-7 2h-7l.7-10.9ZM144 226c0-.8 9-6 10.5-6 .3 0 .5 1.1.5 2.3 0 1.6-.9 2.8-2.5 3.5-3.2 1.5-8.5 1.6-8.5.2Zm13.498-8c.3-.5 1.9-1.9 3.5-3l3-2.1v3c0 2.9-.3 3.1-3.6 3.1-2 0-3.3-.4-2.9-1Zm8.502-6.4c0-.3 18.7-15 32.8-25.9.9-.7 1.2-.2 1.2 2.2 0 2.4-.4 3.1-2 3.1-1.1 0-2 .7-2 1.5 0 .9-.9 1.5-2.5 1.5-1.8 0-2.5.5-2.5 2s-.7 2-2.5 2-2.5.5-2.5 2c0 1.3-.7 2-2 2-1.1 0-2 .7-2 1.5 0 .9-.9 1.5-2.5 1.5-1.8 0-2.5.5-2.5 2 0 1.3-.7 2-2 2-1.1 0-2 .7-2 1.5 0 1-1.1 1.5-3.5 1.5-1.9 0-3.5-.2-3.5-.4Zm37.4-29.5c.3-.4 5.2-4.3 10.8-8.6 5.7-4.3 10.9-8.2 11.6-8.8.9-.7 1.2-.2 1.2 2.2 0 2.4-.4 3.1-2 3.1-1.1 0-2 .7-2 1.5 0 .9-.9 1.5-2.5 1.5-1.8 0-2.5.5-2.5 2 0 1.1-.7 2-1.5 2s-1.5.5-1.5 1c0 .6-1.1 1-2.5 1-1.8 0-2.5.5-2.5 2 0 1.6-.7 2-3.6 2-1.9 0-3.3-.4-3-.9Zm33.098-28.8c.4-1 1.4-3.4 2.1-5.3l1.3-3.5.1 5.3c0 4.6-.2 5.2-2.1 5.2-1.6 0-1.9-.4-1.4-1.7ZM107 143c0-1.5-.7-2-2.6-2-1.7 0-2.8-.6-3.1-2-.3-1.1-1.3-2-2.3-2-1.9 0-5-3-5-4.8 0-.7-.4-1.2-1-1.2-.5 0-1-1.6-1-3.5 0-2.8.4-3.5 2-3.5 1.1 0 2-.7 2-1.5 0-1.7 6.8-2.1 11.6-.6 1.6.5 5.7 1.7 9.2 2.6 4.9 1.4 6.2 2.2 6.2 3.8 0 2.2-1.3 2.1-10-.6-3.1-1-5.3-1.2-7-.5l-2.5.9 3 2.6c1.8 1.5 2.3 2.3 1.2 1.9-9-3-9.2-1.1-.7 5.9 3.9 3.2 7 5.9 7 6.1 0 .2-1.6.4-3.5.4-2.8 0-3.5-.4-3.5-2Zm25.2-23.5c-1.4-3-1.6-8.5-.4-8.5.8 0 6.2 9.1 6.2 10.4 0 .3-1.1.6-2.3.6-1.6 0-2.8-.9-3.5-2.5Zm-24.4-1.7c-2.3-.8-2.8-1.6-2.8-4.4 0-1.9.3-3.4.8-3.4 1.2 0 3.2-5.2 3.2-8.2 0-2.5.4-2.8 3.3-2.8 2.5 0 3.6.6 5 2.9.9 1.6 1.7 4.3 1.7 6 0 2.4.4 3.1 2 3.1s2 .7 2 3.5c0 1.9-.4 3.5-.8 3.5-.5 0-2.1-2.2-3.6-5-2.6-4.7-4.5-6.8-3.2-3.5.3.8.1 1.5-.4 1.5-.6 0-1 1.1-1 2.5 0 1.8.7 2.6 2.6 3.1 1.9.5 2.2.9 1.2 1.5-1.7 1.1-6.6 1-10-.3Zm15.9-14.3c-.9-2-1.7-4.2-1.7-5 0-.8-.4-1.5-.9-1.5s-1.2-1.3-1.6-3c-.4-1.6-1.1-3.2-1.6-3.5-.5-.4-.9-2.2-.9-4.1 0-3.2.2-3.4 3.4-3.4 2.3 0 4.1.8 5.7 2.5 1.3 1.3 3 2.5 3.7 2.5.6 0 1.2.7 1.2 1.5s.9 1.5 2 1.5 2 .7 2 1.5.9 1.5 2 1.5c1.6 0 2 .7 2 3.1 0 2.4-.3 2.9-1.2 2.2-9.9-7.5-14.1-10.4-13-9.1 1 1.3 1 1.7 0 2.1-1 .3-.4 2.2 2 7.1 1.7 3.6 3.2 6.9 3.2 7.1 0 .3-1 .5-2.3.5-1.7 0-2.8-1-4-3.5Zm20.298-12c0-2.1-.5-2.5-3-2.5-2.3 0-3-.4-3-2 0-1.5-.7-2-2.5-2s-2.5-.5-2.5-2c0-1.4-.7-2-2.4-2-3.9 0-4.8-2.2-4.1-9.5l.7-6.5h3.3c2.4 0 4.2 1 7.3 4 2.2 2.2 4.8 4 5.6 4 .9 0 1.6.8 1.6 2 0 1.5.7 2 2.5 2 1.4 0 2.5.5 2.5 1 0 .6.7 1 1.5 1s1.5.7 1.5 1.5.9 1.5 2 1.5c1.6 0 2 .7 2 3.1v3.1l-5.2-3.8c-2.9-2.1-7.2-5.3-9.5-7.2-2.4-1.9-4.3-3-4.3-2.4 0 .6.5 1.4 1 1.7 1.5.9 1.2 2.5-.5 2.5-.8 0-1.6-.9-1.6-2-.2-3.5-.4-3.9-1.9-5.2-1.2-1.1-1.2-1.1-.1.4 1 1.4.9 1.7-.8 2.3-3.9 1.2-2.5 3.1 9.2 12.5 4.2 3.4 7.7 6.4 7.7 6.6 0 .2-1.6.4-3.5.4-3.1 0-3.5-.3-3.5-2.5Zm16-13.9c0-.8-1-1.6-2.2-1.8-1.8-.2-2.4-1.1-2.6-3.7l-.3-3.3 2.8 2c1.5 1.1 4.4 3.4 6.3 5.1l3.5 3-3.7.1c-2.7 0-3.8-.4-3.8-1.4Zm4.503-7.5c-.6-1.1.9-2.3 1.9-1.4.9.9.7 2.3-.3 2.3-.6 0-1.2-.4-1.6-.9Zm36.1-3.6c.9-1.4 2.3-2.5 3-2.5.8 0 1.4 1 1.4 2.5 0 2.1-.5 2.5-3 2.5-3 0-3 0-1.4-2.5Zm-61.6-5c-2.9-3.5.5-12 7.3-18.6 1.5-1.5 2.7-3.4 2.7-4.2 0-2.3 8.3-3.7 12.4-2.1 1.7.7 2.2 5.4.6 5.4-.5 0-1.1 2.4-1.2 5.3l-.1 5.2-.6-5.9c-.3-3.3-1.1-6.1-1.7-6.3-.7-.2-2.1 1.2-3.3 3.1-1.2 1.9-2.8 3.7-3.6 4-.8.3-1.5 1.5-1.5 2.6 0 1.3-1 2.4-2.5 3-3.3 1.3-3.2 3 .3 3.1 2.6.2 2.6.2.2.6-3.8.7-4.6 2-2.5 4.3 1.8 2 1.8 2-1.7 2-2 0-4.1-.7-4.8-1.5Zm20.501-3.4c-.7-1.2 1.2-2.4 2.5-1.6 1.1.7.4 2.5-1 2.5-.5 0-1.1-.4-1.5-.9ZM179 53c0-.5 1-1 2.3-1 1.8 0 1.9.2.7 1-1.9 1.3-3 1.3-3 0Zm-8.001-2.8c.7-.3.3-1.3-1.1-2.8l-2.2-2.4h3c2 0 3.8-.9 5.6-3 1.5-1.7 3.2-3 3.7-3 .6 0 1-1.1 1-2.5s.3-2.5.8-2.5c1.3 0 6.7 4.9 5.5 5-.8 0-1.3 1.3-1.3 3 0 2.3-.4 2.8-1.7 2.4-1.2-.4-1 .1.7 1.6l2.5 2.1-2.5-.7c-1.4-.4-3.1-.9-3.7-1.1-1.2-.5-1.7.8-1.4 3.5.1.8-1.3 1.1-4.9 1-2.9-.1-4.7-.4-4-.6ZM191 50c0-.5.7-1 1.5-1s1.5.5 1.5 1c0 .6-.7 1-1.5 1s-1.5-.4-1.5-1Z" fill="#00ACB2"/><path d="M90 108.5c0-3.3.2-3.5 3.5-3.5s3.5.2 3.5 3.5-.2 3.5-3.5 3.5-3.5-.2-3.5-3.5Zm-74-6c0-4.8.2-5.5 2-5.5 1.3 0 2 .7 2 2 0 1.1.5 2 1 2 .6 0 1 1.6 1 3.5 0 3.2-.2 3.5-3 3.5-3 0-3-.1-3-5.5Zm105.6-27.7c-1.3-1.3-3.2-2.8-4.2-3.4-2.2-1.3-2.9-5.9-1.5-9.7.8-2.1 1.7-2.7 4.1-2.7 4.2 0 10.3 3.3 12 6.4 1.2 2.3 1.1 3.1-.5 6.4-1 2-1.8 4-1.7 4.5.4 1.7-6.1.5-8.2-1.5Zm9-20.3c-3.8-3-4.6-4.2-4.6-6.8 0-4 4.9-13.9 7.2-14.5 1.2-.3 1.8-1.4 1.8-3.3 0-2.4.4-2.9 2.5-2.9 4 0 12.8 2.1 16.6 4.1l3.6 1.8 2.4-2.9c1.3-1.6 3-2.9 3.7-3 .6 0 1.2-1.1 1.2-2.5s.4-2.5.8-2.5c.5 0 4.9 3.2 9.8 7 4.9 3.9 9.2 7 9.6 7 .5 0 .8.5.8 1.1 0 .5-.5.7-1.1.4-.6-.4-1-.1-.8.6.3 2.8-.2 3.8-2.3 4.5l-2.1.6 2.4 1.9 2.4 1.9-2.6-.9c-2.1-.8-3.1-.5-5.3 1.5l-2.6 2.5-5.8-4c-6.6-4.7-6.9-4.7-7.5-2.3-.3 1.1-.5.7-.6-1-.1-3-3.8-5-5.1-2.8-.5.8-1.3.9-2.1.4-1.1-.6-1.1-.3.1 1.2.8 1 1.1 1.6.6 1.2-1-.8-3.6 1.5-3.6 3.3 0 .7-.3 1-.6.6-.7-.7-1.9.5-5.1 5-2.8 3.9-2.8 4.3-.5 4.4 1.1.1.9.4-.8.9-4.9 1.6-7.7 1-12.4-2.5Z" fill="#00B4AB"/><path d="M118.698 229.4c-.4-.4-.4-5.4 0-11.3l.6-10.6-6.2-1.8c-3.3-.9-6.1-2.2-6.1-2.7 0-.6-.8-1-1.8-1-3 0-8.7-4.1-41.7-29.9-41.1-32.2-40.3-31.6-44.8-37l-2.8-3.4.2-16.3c.1-15 .3-16.4 1.9-16.4 1 0 2.8 1.5 3.9 3.4 3.2 5.2 10.1 11.3 28.5 25.5 17.3 13.3 21.2 15.3 22.3 11.1.3-1.1 1.1-2 1.9-2 .7 0 1.6-1.1 2-2.5.9-3.5 6.2-3.5 9.5 0 1.3 1.3 3 2.5 3.7 2.5.6 0 1.2.7 1.2 1.5s.9 1.5 2 1.5 2 .5 2 1c0 .6.7 1 1.5 1 1 0 1.5 1 1.5 3.1v3l-3.2-2.2c-1.8-1.3-5.1-3.6-7.3-5.3-2.2-1.6-3.2-2.1-2.3-1.1 1.6 1.8 1.6 1.9-.5 2.9-1.2.6-2.9 2.6-3.7 4.3-.8 1.8-2.3 3.5-3.2 3.9-1 .3-1.8.9-1.8 1.4 0 1.7 24.4 20.8 29.5 23.2 2.5 1.1 2.6 1.3 2.4 11.5-.1 5.6-.5 10.1-.9 9.8-.5-.3-1.2 0-1.6.7-.4.7-.4 1 .1.6.4-.4 1.3-.2 1.9.6 1.6 2 11.2 5.3 17.9 6.1l5.7.7.1 7.2c0 3.9.2 8.2.5 9.5.2 1.3-.1 3-.7 3.7-1.7 2.1 4.6 1.8 12-.5l6.1-1.9v2.3c0 1.8-.8 2.5-4.4 3.4-5.8 1.4-9.6 1.4-9.6-.1 0-.9-.3-.9-1.2 0-1.2 1.2-13.9 1.7-15.1.6ZM150 223.3c0-.5 2.8-2.7 6.3-5 3.4-2.3 8.3-5.8 11-7.9l4.7-3.6v3.1c0 2.4-.4 3.1-1.9 3.1-1 0-2.1.9-2.4 2-.3 1.2-1.4 2-2.6 2-1.2 0-2.1.6-2.1 1.5 0 .8-.7 1.5-1.5 1.5s-1.5.5-1.5 1c0 .6-.7 1-1.5 1s-1.5.5-1.5 1c0 .6-1.6 1-3.5 1s-3.5-.3-3.5-.7Zm24.498-18.3c.3-.5 1.9-1.9 3.5-3l3-2.1v3c0 2.9-.3 3.1-3.6 3.1-2 0-3.3-.4-2.9-1Zm9.499-7.4c.8-.8 7.8-6.4 15.5-12.5 11.9-9.4 14-10.7 14.3-9 .5 3.1-.5 4.9-2.8 4.9-1.1 0-2 .7-2 1.5 0 .9-.9 1.5-2.4 1.5-1.8 0-2.5.6-2.8 2.3-.2 1.4-1.1 2.3-2.5 2.5-1.3.2-2.3 1-2.3 1.8s-.9 1.4-2 1.4-2 .7-2 1.5c0 .9-.9 1.5-2.5 1.5-1.8 0-2.5.5-2.5 2 0 1.6-.7 2-3.7 2-3.2 0-3.5-.2-2.3-1.4Zm34.503-26.9c8.2-6.5 19.1-18.2 20.2-21.7l1.1-3.5.1 3.8c.1 2-.3 3.7-.9 3.7-.5 0-1 1.5-1 3.3 0 4.4-4.3 8.7-8.8 8.7-2.9 0-3.2.3-3.2 3 0 2.3-.4 3-2 3-1.1 0-2 .7-2 1.5 0 1.1-1.1 1.5-3.7 1.4h-3.8l4-3.2ZM103 140c0-1.5-.7-2-2.5-2s-2.5-.5-2.5-2c0-1.4-.7-2-2.4-2-1.3 0-2.6-.4-2.8-.8-.1-.4-2-2.1-4-3.6-3.1-2.3-3.8-3.5-3.8-6.2 0-1.9.5-3.4 1-3.4.6 0 1-.7 1-1.5 0-2.2 3.6-1.9 14.5 1.2 7.8 2.2 9.5 3 9.5 4.6 0 2-.6 2-9.2.1-3.4-.8-3.7 1-.6 3.5 2.2 1.8 2.2 1.8-1 1.3-1.8-.2-3.2 0-3.2.6s2.9 3.4 6.5 6.2c3.6 2.8 6.5 5.4 6.5 5.6 0 .2-1.6.4-3.5.4-2.8 0-3.5-.4-3.5-2Zm10.8-19.7c-1-.2-1.8-1.2-1.8-2.2 0-1.4-.6-1.7-2.9-1.3-1.6.2-4.6-.1-6.5-.8-3.2-1-3.6-1.5-3.6-4.6 0-4.2 2.5-9.4 4.5-9.4 1.1 0 1.5-1.3 1.5-5.5V91h3.5c1.9 0 3.5.5 3.5 1.1 0 .5 1.1 2.7 2.5 4.7 1.4 2.1 2.5 5.1 2.5 6.9 0 2.6.4 3.3 1.9 3.3 2.4 0 3.1 1.9 3.1 8.6v5.4l-3.2-.1c-1.8-.1-4.1-.3-5-.6Zm7.2-2.8c0-.7-8-14.8-8.7-15.5-.4-.3-.3.3 0 1.3.7 1.9-1.8 8.6-3.6 9.8-.5.4 1.7 1.6 4.9 2.7 6.5 2.2 7.4 2.5 7.4 1.7Zm5.599-8.1c-.9-2.3-.7-7.4.2-7.4.8 0 5.2 7.1 5.2 8.4 0 1.4-4.8.5-5.4-1ZM139 100l-3.5-2.9 3.8-.1c3.5 0 3.7.2 3.7 3 0 1.7-.1 3-.3 3-.1 0-1.8-1.3-3.7-3Zm-18-3c0-1.1-.4-2-.8-2-1.3 0-4.2-6.8-4.2-10 0-2.8.3-3 3.5-3 1.9 0 3.5.5 3.5 1 0 .6.7 1 1.5 1s1.5.7 1.5 1.5.9 1.5 2 1.5 2 .7 2 1.5.9 1.5 2 1.5c1.6 0 2 .7 2 3.1v3.1l-3.5-2.6c-1.9-1.4-5.1-3.8-7.2-5.3-2.9-2.3-3.4-2.4-2.5-.8.6 1.1 1.9 3.8 2.8 6 1 2.2 1.9 4.3 2.1 4.8.2.4-.7.7-2.1.7-1.9 0-2.6-.5-2.6-2Zm8.698-14.7c-.4-.3-.7-1.4-.7-2.4 0-1.2-.9-1.9-2.7-2.1-2.4-.2-2.9-.8-3.1-3.6l-.3-3.3 2.5 1.6c1.7 1.2 2.6 1.3 2.6.5 0-.6.6-1.8 1.4-2.6 2.1-2.1 3.1.2 1.3 2.9-1.4 2.1-1.3 2.4 2.6 5.9l4.2 3.7-3.6.1c-2 0-3.9-.3-4.2-.7ZM137 78c0-.5.7-1 1.5-1s1.5.5 1.5 1c0 .6-.7 1-1.5 1s-1.5-.4-1.5-1Z" fill="#00B3B6"/><path d="M137 73.1c-3.6-2.7-6.7-4.9-7-4.8-.6.2-5-4.1-5-4.8 0-1.3 7.1-.4 7.6 1 .4.8 1.2 1.5 2 1.5s1.4.9 1.4 2c0 1.5.7 2 2.5 2 1.4 0 2.5.5 2.5 1 0 .6.7 1 1.5 1 1 0 1.5 1 1.5 3 0 1.7-.1 3-.2 3-.2 0-3.2-2.2-6.8-4.9Zm13.999-3.1c0-1.5-.7-2-2.5-2-1.5 0-2.5-.6-2.5-1.4 0-.8-1-1.6-2.2-1.8-1.4-.2-2.4-1.1-2.6-2.4-.2-1.3-1.4-2.3-3.5-3-2.7-.7-3.3-1.5-3.5-4.2-.3-3.3-.3-3.3 2.1-1.7 3 1.9 6 1 5.2-1.5-.4-1.2.2-2.3 1.4-3.2 1.1-.8 2.7-3 3.5-4.9.9-1.9 1.5-2.9 1.6-2.4 0 .6.4.4.9-.4s1.6-1.1 2.6-.8c.9.4 1.3 1.2.9 1.8-.5.8-.3.9.6.4.9-.5 1.1-.4.6.3-.4.7-1.4 1.2-2.2 1.2-.8 0-1.3.3-1.1.8.1.4-.2.8-.6.9-1 .3-2.7 2.1-5.4 6-2.8 3.9-2.8 4.3-.5 4.4 1.1.1 1 .3-.6.8-2.2.6-1.6 1.2 6.2 7.4 4.7 3.8 8.6 7 8.6 7.3 0 .2-1.6.4-3.5.4-2.8 0-3.5-.4-3.5-2ZM160 44.6c0-1.4.4-2.7.8-3 .5-.3.6.8.4 2.5-.5 3.5-1.2 3.8-1.2.5Zm23-5.3c0-2.3.5-3.3 1.5-3.3.8 0 1.5.5 1.5 1.1 0 .5-.5.7-1.2.3-.7-.5-.9-.2-.6.8.4.8.2 2.1-.3 2.9-.6 1-.9.4-.9-1.8Zm-30.502.7c-.3-.5 0-1 .7-1.1.7 0 .2-.5-1.2-1.1-1.6-.7-2-1.2-1.2-1.5.8-.3 2.4 0 3.7.7 2 1.1 2.2 1.5 1 2.6-1.6 1.7-2.2 1.7-3 .4Z" fill="#00B3B6"/><path d="M159.898 39.4c-.7-1.6-8.9-5.5-10.1-4.8-.7.4-.8.3-.4-.4 1.5-2.4 6.7-1.4 12.4 2.4.2.1 0 1-.6 2-.5.9-1.1 1.3-1.3.8Z" fill="#00B3B6"/><path d="M17.902 103.4c-2.1-2.6-2.4-13.8-.5-18.9 3.2-8.4 5.6-10.6 35.7-34.2 49.1-38.5 50-39.2 56.6-41.9l3.3-1.4 2 4c1.1 2.2 2.7 4 3.5 4 .8 0 1.5.7 1.5 1.5 0 1 1 1.5 3.2 1.5 1.7 0 3.9.7 4.9 1.6 1 .9 3.6 1.8 5.8 2.1 2.3.3 4.1 1 4.1 1.4 0 1.5 3 1 3.6-.6.4-.8 1.1-1.5 1.8-1.5 1.2 0 6.6-7.2 6.6-8.9 0-2.2 2.5-1 10.6 5.2 8.4 6.2 9.7 7.7 6.9 7.7-.8 0-2.3.4-3.3.9-.9.5-2.5 1.2-3.4 1.5-1 .3-1.8 1.3-1.8 2.3-.1 1-.9 2.8-2 4.1-1.6 1.9-2.3 2.1-4 1.2-1.1-.6-2.6-.8-3.2-.4-.7.4-.8.3-.4-.4s-.8-1.5-3.1-2.1c-4.6-1.3-6.3-1.4-6.3-.2 0 .5-5.3.9-11.7.9-15.8.1-18.3 1.2-40.7 18.5-7 5.3-13.1 9.7-13.7 9.7-.5 0-.9.4-.9 1 0 .8-11.2 9.8-25.4 20.3-9.7 7.2-12.1 9.2-19 16-3.8 3.7-7.5 6.7-8.1 6.7-.7 0-1.9-.7-2.6-1.6Z" fill="#00C6A7"/><path d="m117.3 229.8-4.2-.9.6-11.5c.5-10.2.4-11.4-1-11.4-1.1 0-1.7-.8-1.7-2.4v-2.3l5.5 1.6 5.5 1.6.1 7c.1 3.9.3 8.1.4 9.5.2 1.4-.2 3.1-.7 3.7-1.6 2 1.4 2.6 11.1 2.1 14.9-.7 13.8 0 80.6-52.4 6.6-5.2 13.5-10.6 15.3-12l3.2-2.7v3c0 3.2-2.6 6.3-5.3 6.3-.9 0-1.7.7-1.7 1.5 0 .9-.7 1.8-1.5 2.1-.8.4-2.9 1.9-4.6 3.5-1.7 1.6-4 2.9-5 2.9s-1.9.7-1.9 1.5-.8 1.5-1.8 1.5c-.9 0-2.2 1-2.7 2.3-.6 1.2-2 2.3-3.2 2.5-1.3.2-2.3 1-2.3 1.8s-.8 1.8-1.7 2.1c-1 .4-2.2 1.2-2.6 2-.4.7-1.4 1.3-2.1 1.3-.8 0-1.6.7-2 1.5-.3.8-1.5 1.5-2.6 1.5s-2 .7-2 1.5c0 .9-.8 1.9-1.7 2.2-1 .4-2.4 1.5-3.1 2.5-.7 1-1.9 1.8-2.6 1.8-.8 0-1.6.7-2 1.5-.3.8-1.1 1.5-1.8 1.5s-1.9.9-2.6 2c-.7 1.1-1.8 2-2.6 2s-1.6.7-2 1.5c-.3.8-1.5 1.5-2.6 1.5-1.2 0-2 .7-2 1.6 0 .9-.9 1.8-2 2.1-1.1.3-2 .9-2 1.4 0 .5-.7.9-1.5.9s-1.5.5-1.5 1c0 .6-.7 1-1.5 1s-1.5.4-1.5.8c0 1.1-4.6 3.2-7 3.2-1.1 0-2 .4-2 .9 0 2.5-21.2 3.9-29.7 1.9ZM99 199c0-.5-.7-1-1.5-1s-1.5-.4-1.5-1c0-.5-.7-1-1.5-1s-1.5-.9-1.5-2c0-1.5-.7-2-2.5-2-2.1 0-2.5-.5-2.5-3.1v-3.2l3.3 2.6c1.7 1.5 5.8 4.3 8.9 6.4 3.2 2.1 5.8 4.1 5.8 4.6 0 .4-1.6.7-3.5.7s-3.5-.4-3.5-1Zm-19-15c0-1.5-.7-2-2.5-2s-2.5-.5-2.5-2-.7-2-2.5-2c-1.4 0-2.5-.4-2.5-.9s-.9-1.1-2-1.4c-1.2-.3-2-1.4-2-2.6 0-1.6-.6-2.1-2.5-2.1-1.6 0-2.5-.6-2.5-1.5 0-.8-.9-1.5-2-1.5s-2-.7-2-1.5c0-.9-.9-1.5-2.1-1.5-1.2 0-2.3-.8-2.6-2-.3-1.1-1.4-2-2.5-2s-2.2-.9-2.5-2c-.3-1.1-1.4-2-2.4-2-1.5 0-1.9-.7-1.9-3.1 0-2.4.3-2.9 1.3-2.2 11.7 9 42.7 33.5 42.7 33.9 0 .2-1.6.4-3.5.4-2.8 0-3.5-.4-3.5-2Zm155.5-29.1c1.5-2.2 3-5 3.5-6.2.7-1.7.9-1.2.9 2.5.1 6.4-.6 7.8-4 7.8H233l2.5-4.1ZM33 147.5c0-.8-.9-1.5-2-1.5-1.3 0-2-.7-2-2s-.7-2-2-2c-2.5 0-8-5.1-8-7.4 0-.9-.7-1.6-1.5-1.6-1.2 0-1.5-1.3-1.4-6.2 0-4.5.3-5.6.8-3.8 2.2 7 6.3 12.1 16.4 19.9 3.7 2.9 6.7 5.5 6.7 5.7 0 .2-1.6.4-3.5.4-2.4 0-3.5-.5-3.5-1.5Zm31.999-3.3c-4.1-2.8-34-26-37.4-29-1.7-1.5-3.7-3.6-4.5-4.5-1.2-1.5-1-1.7 1.8-1.7 2.4 0 3.1.4 3.1 1.9 0 1.4.8 2.1 2.8 2.3 1.6.2 3.1 1.2 3.7 2.6.5 1.2 1.8 2.2 2.7 2.2 1 0 1.8.7 1.8 1.5s.9 1.5 2 1.5 2.3.7 2.6 1.5c.4.8 1.3 1.5 2 1.5.8 0 1.7.7 2 1.5.4.8 1.3 1.5 2 1.5.8 0 1.7.7 2 1.5.4.8 1.2 1.5 2 1.5.7 0 1.9.8 2.6 1.8 3.7 4.9 9.8 5 9.8.1 0-2.2.5-2.9 2-2.9 1.1 0 2-.4 2-1 0-.5 1.7-1 3.8-1 4.4 0 10.2 4.5 10.2 7.9 0 2.4-1 2.7-2.9.9-1.1-1.1-1.3-1-.7 0 .8 1.3-1.5 4.2-3.3 4.2-.6 0-1.1.6-1.1 1.4 0 1.4-5.3 4.6-7.4 4.5-.6 0-2.2-.8-3.6-1.7ZM92 131.5c0-.8-.9-1.5-2-1.5s-2-.6-2-1.4c0-.8-1-1.8-2.2-2.1-4-1.3-6.8-4.6-6.8-8.2 0-3.2.1-3.3 4-3.3 2.2 0 5.7.7 7.7 1.5 1.9.8 4.4 1.5 5.4 1.5 1.2 0 1.9.7 1.9 2 0 2.2-1.6 2.5-5.4 1-1.5-.5-2.6-.6-2.6 0 0 .5.9 1.2 2 1.5 1.1.3 2 1 2 1.5 0 .9-3 .6-5.3-.5-1.2-.7.9 1.3 7.3 6.6l3.5 2.9h-3.7c-2.7 0-3.8-.4-3.8-1.5Zm4-17.6c-2.5-1.1-5.3-2.2-6.2-2.5-1.2-.4-1.8-1.7-1.8-3.8 0-2.5 1-4.2 4.5-7.5 2.5-2.4 4.5-4.9 4.5-5.7 0-.8.4-1.4.9-1.4.6 0 1.6-1.2 2.3-2.7 2.3-4.8 10.8-4.1 10.8.8 0 1.1.5 1.9 1 1.9.6 0 1 .7 1 1.5s.5 1.5 1 1.5c.6 0 1 1.6 1 3.5s-.4 3.5-1 3.5c-.5 0-1-.3-1-.7 0-.5-.9-1.9-2-3.3l-1.9-2.5.6 2.4c.4 1.6.3 2.2-.5 1.7-.6-.4-1.2.4-1.4 2.1-.2 1.6-.8 2.7-1.5 2.6-.7-.2-2 1.1-2.9 2.8-1.6 3.3-.9 4.8 2.4 4.9.6 0 1.2.7 1.2 1.5 0 2.1-5.3 1.8-11-.6Zm-78-10.6c-2.2-4.3-2.3-5-.5-2.8 1.4 1.7 1.7 1.8 2.5.5.7-1.1 1-.7 1 1.8 0 3.9-1.2 4.1-3 .5Zm116-20.4v-3l3 2.1c4.4 3.1 4.5 4 .6 4-3.3 0-3.6-.2-3.6-3.1Zm-8.999-6.3c0-2.1-.6-2.5-3.2-2.8-2.9-.3-3.3-.7-3.6-3.6-.3-3.1-.2-3.2 1.8-2 1.1.7 4.4 3.4 7.3 6.1l5.1 4.7h-3.7c-3.3 0-3.7-.3-3.7-2.4Zm-6.9-14.3c-.1-4.1 0-4.3 2.9-4.3 4.2 0 8 2.7 8 5.6 0 2.9-.1 2.9-5.1.4l-3.9-2.1-1 2.3c-.7 1.9-.9 1.6-.9-1.9ZM136 57.5c0-2.1-.5-2.5-3-2.5-2.7 0-3-.3-3-3.1v-3l2.8 2c1.5 1.1 4.5 3.6 6.7 5.5l4 3.5-3.7.1c-3.4 0-3.8-.3-3.8-2.5Zm5-6.4c0-.5.7-1.4 1.5-2.1 1.3-1 1.5-.9 1.5.9 0 1.2-.6 2.1-1.5 2.1-.8 0-1.5-.4-1.5-.9Z" fill="#00BAB8"/><path d="m140.7 240.2.6-9.7-4.7.3c-3.6.3-4.6.1-4.6-1.1 0-1.6 2-2.7 5.1-2.7 3.5 0 13.2-3.9 18.6-7.5 2.9-1.9 15.5-11.5 27.9-21.3 12.5-9.7 26.5-20.6 31.2-24.2 12.1-9.1 20.7-17.4 23.1-22.3l2.1-4.2V158c-.1 17.9-1.3 19.6-33 44.6-13.3 10.4-30.3 23.8-37.8 29.7-11.2 8.8-25.5 17.7-28.5 17.7-.3 0-.3-4.4 0-9.8Zm-23.9-9.9c-2.4-.4-2.8-.9-2.8-3.9 0-2.3.5-3.4 1.4-3.4 2 0 2.9 1.7 1.4 2.3-.7.2.3.7 2.2 1.1 6.1 1.3 7 1.7 7 3.2 0 1.4-3 1.6-9.2.7Zm-69.3-99.9c-20-15-26.1-20.7-29.1-26.7-1.4-2.9-1.8-4.3-.9-3.2 1.5 1.9 1.7 1.9 2.6.2.9-1.6 1.3-1.4 3 2 1 2 1.9 4.7 1.9 5.9 0 1.8.7 2.3 3.3 2.6 2.4.2 3.3.8 3.5 2.6.3 1.6 1 2.2 2.8 2.2 1.4 0 2.7.7 3 1.5.4.8 1.3 1.5 2 1.5.8 0 1.7.7 2 1.5.4.8 1.2 1.5 2 1.5.7 0 1.7.7 2.1 1.5.5.8 2.2 1.7 3.8 2 3.2.7 3.6.2 6.5-6.7 1.8-4.3 6-3.8 12.4 1.4 6.8 5.5 8.6 7.6 8.6 10.1 0 1.6-.3 1.8-1.2.9-1.5-1.5-3.2-1.6-2.3-.2.3.6.1 1-.5 1-.7 0-1 1.4-.8 3.7.3 4-1.2 5.3-3.8 3.3-1.1-1-1.8-1-3.2.4-1 .9-2.3 1.6-2.8 1.6s-7.2-4.8-14.9-10.6Zm22.7 4.1c.3-1.4.1-2.5-.3-2.5-.5 0-.9 1.1-.9 2.5s.2 2.5.4 2.5.6-1.1.8-2.5ZM81 122c0-.5-.7-1-1.5-1-1 0-1.5-1.1-1.5-3.5 0-3.3.2-3.5 3.5-3.5 1.9 0 3.5.5 3.5 1 0 .6.7 1 1.5 1s1.5.7 1.5 1.6c0 1.2-.7 1.4-3.2.8-2.9-.6-3.1-.5-1.9 1 1.6 1.9 2.5 2.1 1.5.4-.4-.7-.3-.9.1-.5 1.9 1.7 1.3 3.7-1.1 3.7-1.3 0-2.4-.4-2.4-1Zm4.2-11.5c-8.6-2.6-11.2-4.4-11.2-7.3 0-4.4 1.1-7.1 3.1-7.7 1-.4 1.9-1.3 1.9-2 0-2.1 2.2-6.5 3.3-6.5.5 0 1.8-1.1 2.9-2.5 1.1-1.4 2.6-2.5 3.3-2.5.8 0 1.5-1.3 1.7-3.2.2-2.5.8-3.4 2.6-3.6 1.2-.2 2.2-1 2.2-1.8 0-.9 1.1-1.4 3.3-1.4 3 .1 3.4.6 6.5 6.8 3.3 6.9 4.5 14.5 1.9 12.3-1.5-1.2-3.7.3-3.7 2.6 0 .8-.7 1.6-1.5 1.9-.8.4-1.5 1.2-1.5 1.9s-2 3.3-4.5 5.6l-4.5 4.3 3 1.6c5.8 3-.6 4.1-8.8 1.5Zm26.999-42.3c-3.5-3-4.4-4.5-4.9-8.1-.5-3.4-.2-4.6 1.1-5.3.9-.5 1.6-1.7 1.6-2.7 0-1 .7-2.4 1.5-3.1.8-.7 1.5-2.3 1.5-3.6 0-1.2.9-2.9 1.9-3.6 1.1-.8 2.3-2.7 2.7-4.3.4-1.6 2.1-4 3.7-5.4 2.5-2.1 4.2-2.6 10.4-2.8 4.3-.2 7.2.1 6.9.6-.3.5.3.7 1.4.4 2.5-.7 2.6-2.2.3-2.5-1 0-2.3-.2-3-.2-2.8-.3-2.3-1.6.6-1.6 3.8 0 7.4 1.7 6.6 3.1-1 1.5 4.5 3.1 6.2 1.8.8-.7 1.3-.8 1.2-.3-.4 2.4.3 2.5 2 .3 1-1.3 2-3.3 2.2-4.4.3-1.2 1.4-2.1 2.8-2.3 1.3-.2 2.6-1.2 2.8-2.3.5-1.8 3.3-2.8 3.3-1.1 0 .5 1.2 1.5 2.8 2.2 1.5.7 2.2 1.5 1.5 1.7-.8.3-1.1 1.4-.7 2.9.5 1.8.2 2.4-1 2.4-1 0-2.8 1.2-4.1 2.6-2.3 2.5-2.4 2.8-.7 4 1.6 1.3 1.6 1.3 0 1.4-1 0-1.8.6-1.8 1.3 0 .7-.3.8-.8.2-1.4-1.9-9.2-5.6-10.4-4.9-.6.4-.8.3-.4-.4s-.8-1.5-3.1-2.1c-5.1-1.5-6.3-1.4-6.3.5 0 .9-.5 1.2-1.2.8-.8-.5-.9.2-.4 2.7.6 3.1.5 3.2-.8 1.4-1.6-2.2-2.1-1.9-5.5 3.8l-2.3 3.7 2.4.1c2.1.1 2 .2-.6 1.1l-3 1.1 5 4.3 4.9 4.4h-3.7c-2.1 0-3.8-.4-3.8-.9s-.8-1.1-1.7-1.5c-1-.3-2.3-.8-2.9-1.1-.6-.3-2 .3-3.2 1.3-1.9 1.7-2 2.1-.7 3.2.8.7 1.5 2.4 1.5 3.7 0 2-.3 2.3-1.4 1.4-1-.8-1.6-.8-2.3.1-2.1 2.7-2 4.4.5 7.1l2.6 2.7h-3.5c-2.5-.1-4.6-1.1-7.7-3.8Z" fill="#00C3B9"/><path d="M40.7 124.8c-4.5-3.7-4.8-5.8-.7-5.8 2.5 0 3-.4 3-2.5 0-2.2.4-2.5 3.5-2.5 3.3 0 3.5.2 3.5 3.5 0 2.8-.4 3.5-2 3.5-1.5 0-2 .7-2 2.9 0 4.2-1 4.3-5.3.9Zm-21-19.5c-.4-.3-.7-1.3-.7-2 0-1.9 10.4-12.8 14.7-15.4 2-1.3 3.2-2.7 2.9-3.5-.3-.7 0-1.1.7-.9.7.3 3.7-1.4 6.8-3.8C60.7 67.3 70 59.8 70 59c0-.6.4-1 .9-1 .6 0 6.7-4.4 13.7-9.7 12.8-9.9 18.1-13.6 22.1-15.3 1.3-.5 4.1-1.8 6.3-2.9 2.2-1.1 4.2-1.5 4.6-1 .3.5 1 .7 1.5.4 1.3-.8 1.1.6-.4 3.8-.9 2-1.9 2.7-3.9 2.7-2.5 0-2.8.4-2.8 3.5 0 3.3-.2 3.5-3.5 3.5-2.8 0-3.5-.4-3.5-2 0-2.7-1.8-2.5-4.2.5-1.1 1.4-2.6 2.5-3.4 2.5-.8 0-1.4.5-1.4 1 0 .6-.9 1-2 1s-2 .7-2 1.5-.9 1.5-2 1.5-2 .7-2 1.5c0 .9-.7 1.8-1.5 2.1-.8.3-3.1 2.1-5.2 4-2 1.9-4.3 3.4-5 3.4-.7 0-1.3.5-1.3 1 0 .6-1.3 1-3 1-2.5 0-3 .4-3 2.5 0 1.8-.5 2.5-1.9 2.5-1 0-2.1.9-2.4 2-.3 1.1-1.2 2-2 2s-1.7.7-2.1 1.5c-.3.8-1 1.5-1.6 1.5-.6 0-2.1 1.1-3.4 2.5-1.3 1.4-2.8 2.5-3.5 2.5-.6 0-1.1.4-1.1.9 0 .9-8.3 7.5-12.8 10.1-1.5.8-3.5 2.5-4.5 3.8-1 1.2-2.5 2.2-3.3 2.2-.8 0-1.4.7-1.4 1.5s-.9 1.5-2 1.5c-1.2 0-2 .7-2 1.8-.1 3.3-3.5 6.3-5.3 4.5ZM55 98.5V95h12v7H55v-3.5ZM24.5 92c-.9-1.5-.1-2.3 2.1-1.8 1.5.3 1.6.4.1 1.6-1.1.9-1.7 1-2.2.2Zm15.8-14.5c0-2.2.2-3 .4-1.7.2 1.2.2 3 0 4-.3.9-.5-.1-.4-2.3Zm-14.1.3c.6-1.8 2.8-2.1 2.8-.4 0 .9-.7 1.6-1.6 1.6-.9 0-1.4-.5-1.2-1.2ZM79 75.5c0-3.3.2-3.5 3.5-3.5s3.5.2 3.5 3.5-.2 3.5-3.5 3.5-3.5-.2-3.5-3.5Zm-40.6-6.1c.3-.8.6-1.8.6-2 0-.2.5-.4 1-.4 1.6 0 1.1 2.7-.6 3.4-1.2.5-1.5.2-1-1Zm31.2-14.9c.4-.8 1.2-1.5 2-1.5s1.4.7 1.4 1.5-.9 1.5-2 1.5c-1.3 0-1.8-.5-1.4-1.5Zm-15-.9c.7-1.9 3.8-2.2 3.2-.3-.3.6-1.2 1.3-2.1 1.5-1.2.2-1.5-.1-1.1-1.2ZM83.5 34c-.3-.6.1-1.3 1-1.6 1.9-.8 3 0 2 1.5-.8 1.4-2.2 1.4-3 .1Zm39.999-4c-.3-.5.3-1 1.4-1 1.2 0 2.1.5 2.1 1 0 .6-.6 1-1.4 1-.8 0-1.8-.4-2.1-1Zm18.3-1c-.2-.6-1.6-1.2-3.2-1.4-1.5-.2-3.1-.8-3.6-1.5-.4-.7-1.6-1.2-2.6-1-2.3.3-5.3-.9-7.6-2.9-1.5-1.3-1.8-1.3-1.8-.1 0 .8 1.3 2.3 2.9 3.4 1.7 1.1 2.8 2.1 2.6 2.3-.2.2-1.6-.6-3.2-1.7-1.5-1.2-4.3-2.3-6.1-2.5-3.1-.3-5.8-1.6-3.4-1.6.7 0 1.2-.9 1.2-2s-.7-2-1.5-2-2.4-1.8-3.5-3.9c-1.1-2.2-2.8-4.1-3.7-4.3-1-.3 1.2-1.4 5.1-2.6 12.7-4.1 27.7-2.4 39.2 4.3 3.4 2 4.3 3 3.5 3.8-.9.9-1.4.8-2.1-.3-.7-1.1-1-1.2-1-.2 0 2-5.3 9.2-6.7 9.2-1.2 0-1.5.6-1.7 3.9-.1 1.8-2.3 2.6-2.8 1.1ZM102 15.5c0-.8.7-1.5 1.5-1.5s1.5.7 1.5 1.5-.7 1.5-1.5 1.5-1.5-.7-1.5-1.5Z" fill="#00CFAE"/><path d="M116.499 229.9c-2.2-.5-5.9-1.6-8.2-2.5-3.9-1.4-4.3-1.9-4.3-5 0-1.9.5-3.4 1-3.4.6 0 1-3.2 1-7.5 0-7.4-.1-7.6-3-9.3-1.6-.9-3-2-3-2.4 0-.5-.7-.8-1.5-.8s-1.5-.4-1.5-1c0-.5-.7-1-1.5-1s-1.5-.4-1.5-1c0-.5-.7-1-1.5-1s-2-.9-2.7-2c-.7-1.1-1.9-2-2.6-2-.7 0-1.5-.6-1.8-1.4-.3-.8-1.4-1.6-2.5-1.9-1-.3-1.9-1.2-1.9-2.1 0-.9-.8-1.6-2-1.6-1.1 0-2.3-.7-2.6-1.5-.4-.8-1.2-1.5-2-1.5s-1.9-.9-2.6-2c-.7-1.1-1.8-2-2.5-2s-1.3-.9-1.3-2c0-1.5-.7-2-2.5-2-1.3 0-2.8-.6-3.2-1.3-.4-.8-1.6-1.6-2.5-2-1-.3-1.8-1.3-1.8-2.2 0-.8-.9-1.5-2-1.5s-2-.7-2-1.5c0-.9-.9-1.5-2.1-1.5-1.2 0-2.3-.8-2.6-2-.3-1.1-1.4-2-2.5-2s-2.2-.9-2.5-2c-.3-1.1-1.3-2-2.3-2-1 0-3.5-1.5-5.5-3.4s-4.2-3.7-5-4c-.8-.3-1.5-1-1.5-1.6 0-.5-.6-1-1.4-1-2.1 0-3.8-2.6-3.4-5.5.3-2.4 1.2-1.8 16.4 10.2 8.9 7.1 19.5 15.4 23.5 18.5 4.1 3.2 13.5 10.5 20.9 16.3 8.2 6.4 16.9 12.2 22.1 14.8l8.7 4.2.3 10.8c.2 6.1 0 10.7-.5 10.7-1.7 0 .4 1.4 2.7 1.8 1.2.2 2.9.5 3.7.7.8.2 2.1.4 2.8.4.6.1 1.2.8 1.2 1.6 0 1.7-4 1.9-10.5.4Zm14.501-.4c0-.8.6-1.5 1.3-1.6.6 0 2.2-.2 3.5-.3 1.6-.2 2.2.3 2.2 1.6 0 1.4-.8 1.8-3.5 1.8-2.4 0-3.5-.5-3.5-1.5Zm-51.998-95.6c-5.8-4.4-11.4-8.9-12.5-10-1.9-1.9-1.9-1.9 1.9-1.9 2.9 0 3.9.4 4.3 2 .3 1.1 1.4 2 2.4 2 1.1 0 1.9.7 1.9 1.5s.9 1.5 2 1.5 2 .7 2 1.5c0 .9.9 1.5 2.1 1.5 1.2 0 2.3.8 2.6 2 .3 1.1 1.4 2 2.4 2 1.4 0 1.9.7 1.9 3 0 1.7-.1 3-.2 3-.2 0-5-3.7-10.8-8.1Zm-9.5 5.2c-.7-1.2 1.2-2.4 2.5-1.6 1.1.7.4 2.5-1 2.5-.5 0-1.1-.4-1.5-.9ZM99 137c0-1.5-.7-2-2.5-2-1.5 0-2.5-.6-2.5-1.4 0-.8-1-1.6-2.2-1.8-1.5-.2-2.4-1.1-2.6-2.5-.3-1.7-1-2.3-2.8-2.3-1.5 0-2.4-.6-2.4-1.5 0-.8-.8-1.5-1.8-1.5-2.8 0-5.2-3.2-5.2-7v-3.3l5 .6c2.7.3 9 1.8 14 3.3 7.1 2.1 9 3.1 9 4.6 0 2.4-.8 2.3-13.3-1.6-9.2-2.9-10.6-3.1-9.1-1.5.9 1 2.1 1.6 2.6 1.3.4-.3.7-.1.6.4-.2.5 4.3 4.7 10 9.2 5.6 4.5 10.2 8.4 10.2 8.6 0 .2-1.6.4-3.5.4-2.8 0-3.5-.4-3.5-2Zm-82-3.6c-.6-1.4-1-4.6-1-7.2l.1-4.7 1.3 3.6c.7 2 2.5 5.2 4 7.2l2.8 3.7h-3.1c-2.5 0-3.4-.6-4.1-2.6Zm89.3-15.6c-1.8-.6-3.3-1.5-3.3-1.9 0-.5-1-.9-2.2-.9-1.2 0-4.5-.8-7.5-1.7-3.8-1.2-5.3-2.2-5.3-3.5 0-1.1.7-1.8 1.8-1.7 3.3.1 25.6 8.4 26 9.7.5 1.5-4.8 1.5-9.5 0Zm10.398-8.7c-2.2-3.8-2.2-4.1.8-4.1 2.2 0 2.5.4 2.5 3.5 0 4.3-1 4.4-3.3.6Zm-7.1-12.8c-1.5-2.7-3.5-6.1-4.5-7.8-3.2-5.5-3.3-6.5-.6-6.5 1.8 0 2.5.5 2.5 1.9 0 1 .7 2.1 1.5 2.5.8.3 1.5 1.2 1.5 2.1 0 .8.4 1.5.8 1.5 1.3 0 3.2 4.8 3.2 8 0 4.2-1.3 3.7-4.4-1.7Zm8.102-3.8c-1.5-3.1-2.7-6.9-2.7-8.5 0-2.8.3-3 3.5-3 1.9 0 3.5.5 3.5 1 0 .6.7 1 1.5 1s1.5.7 1.5 1.5.9 1.5 2 1.5c1.6 0 2 .7 2 3.1v3.1l-5.1-3.8-5.1-3.7 3.1 6.1c1.7 3.4 3.1 6.4 3.1 6.7 0 .3-1 .5-2.3.5-1.8 0-2.9-1.2-5-5.5ZM131.002 82c0-1.5-.7-2-2.5-2s-2.5-.5-2.5-2-.7-2-2.5-2c-2.8 0-3.9-1.6-3.3-4.9.3-1.9 1.2-1.4 7.8 4 11.3 9.1 11.1 8.9 6.7 8.9-3 0-3.7-.4-3.7-2Zm-1.903-15c-14.3-10.9-14.4-11-9.8-11 2.4 0 4 .5 4.3 1.5.4.8 1.2 1.5 2 1.5s1.4.7 1.4 1.5.9 1.5 2 1.5 2 .7 2 1.5.9 1.5 2 1.5 2 .6 2 1.4c0 .8 1 1.6 2.2 1.8 1.6.2 2.4 1.2 2.9 3.6.4 1.7.4 3.2 0 3.2-.3-.1-5.3-3.7-11-8ZM147 65.9v-3l3 2.1c4.4 3.1 4.5 4 .6 4-3.3 0-3.6-.2-3.6-3.1Zm-10-8v-3l3 2.1c4.4 3.1 4.5 4 .6 4-3.3 0-3.6-.2-3.6-3.1Z" fill="#00C2C1"/><path d="M131.402 247.3c.3-2.1.6-7.2.6-11.4v-7.7l4.6-.7c2.6-.3 5.3-.9 6.1-1.2 1.2-.5 1.4 1.4 1.2 11.1l-.1 11.6-3.7 1c-2 .5-4.9 1-6.5 1-2.8 0-2.8-.1-2.2-3.7Zm-15.602-17c-1.6-.2-2.8-.9-2.8-1.4 0-.5-1.3-.9-3-.9-2 0-3-.5-3-1.5s-1-1.5-3-1.5c-2.8 0-3-.3-3-3.5 0-3.3.2-3.5 3.4-3.5 2.5 0 3.5.5 3.9 2 .3 1.1 0 2-.6 2.1-2.2.1 6.8 3.8 12.1 4.9 3.3.7 5.2 1.7 5.2 2.6 0 1.4-3 1.6-9.2.7ZM92 215.5c0-3.3.2-3.5 3.5-3.5s3.5.2 3.5 3.5-.2 3.5-3.5 3.5-3.5-.2-3.5-3.5Zm-9-5c0-.8-.9-1.5-2-1.5-1.6 0-2-.7-2-3.5 0-3.3.2-3.5 3.5-3.5 2.4 0 3.5.5 3.5 1.5 0 .8.9 1.5 2 1.5 1.6 0 2 .7 2 3.5 0 3.3-.2 3.5-3.5 3.5-2.4 0-3.5-.5-3.5-1.5Zm-18-14c0-.9-.9-1.5-2.1-1.5-1.2 0-2.3-.8-2.6-2-.3-1.1-1.4-2-2.4-2-1.5 0-1.9-.7-1.9-3.5 0-3.3.2-3.5 3.5-3.5 2.4 0 3.5.5 3.5 1.5 0 .9.9 1.5 2.1 1.5 1.2 0 2.3.8 2.6 2 .3 1.1 1.4 2 2.4 2 1.5 0 1.9.7 1.9 3.5 0 3.3-.2 3.5-3.5 3.5-2.4 0-3.5-.5-3.5-1.5Zm-19-17c0-3.3.2-3.5 3.5-3.5s3.5.2 3.5 3.5-.2 3.5-3.5 3.5-3.5-.2-3.5-3.5Zm-8-6c0-3.3.2-3.5 3.5-3.5s3.5.2 3.5 3.5-.2 3.5-3.5 3.5-3.5-.2-3.5-3.5ZM28 166c0-2.8-.3-3-3.5-3-3.1 0-3.5-.3-3.5-2.5 0-1.8-.5-2.5-2-2.5-1.6 0-2-.7-2-3.5 0-3.3.2-3.5 3.5-3.5 3.1 0 3.5.3 3.5 2.5 0 1.8.5 2.5 2 2.5 1.6 0 2 .7 2 3 0 2.8.3 3 3.5 3 3.3 0 3.5.2 3.5 3.5s-.2 3.5-3.5 3.5c-3.2 0-3.5-.2-3.5-3Zm18.7-36.7c-2.7-2-4.6-4.1-4.3-4.9.3-.7-.1-1.5-.9-1.8-1-.3-1.2 0-.8 1.2.8 2-10.7-6.7-16.7-12.8l-4.5-4.5 2.9-.3c3.2-.4 7.6 3 7.6 6 0 1.3.7 1.8 2.5 1.8 1.4 0 2.8.7 3.1 1.5.8 2 3.4 1.9 3.4 0 0-3 5-6.7 9.7-7.3 2.5-.3 4.8-.1 5.2.4.3.5 2.5 2.2 4.9 3.8 3.4 2.3 4.2 3.5 4.2 5.9 0 2.4-.3 2.7-1.4 1.8-1.1-.9-1.6-.6-2.5 1.6-.6 1.5-1.6 3.6-2.3 4.6-1.1 1.5-1 2.1.7 3.4 2 1.5 2 1.5-.1.9-1.3-.4-2.6-.1-3.4.9-1.7 2-1.8 2-7.3-2.2Zm36.1-19c-1-.2-1.8-.9-1.8-1.4 0-.5-1.1-.9-2.4-.9-3.2 0-16.6-4.8-18.4-6.6-.7-.8-2-1.4-2.8-1.4-.9 0-1.4-1.1-1.4-3.5 0-1.9.4-3.5.8-3.5s1.6-1.3 2.5-3c1-1.6 2.4-3 3.2-3 .7 0 1.5-1.2 1.7-2.7.2-2 .9-2.9 2.5-3.1 1.3-.2 2.4-1.3 2.7-2.8.4-1.4 1.8-2.9 3.1-3.4 1.4-.5 2.5-1.6 2.5-2.4 0-.9 1-2.4 2.2-3.6 1.2-1.1 3.3-4.1 4.7-6.7 1.4-2.6 3.4-4.9 4.4-5.1 2.2-.4 5.1-3.1 6-5.6.4-.9 2-2.4 3.7-3.4 1.6-.9 3-2.5 3-3.6 0-1 1.3-3 2.9-4.5 1.6-1.4 3.1-3.4 3.3-4.5.4-2.4 7.7-5.5 8.8-3.7.5.9.9.7 1.2-.7.4-1.5 1.5-1.9 6.2-2.1 4.6-.1 5.6.1 5.6 1.5 0 2-4.5 7.5-5.4 6.6-.4-.3-.4.1-.1 1 .4.9.2 1.9-.4 2.3-.6.3-1.1 1.5-1.1 2.5s-.5 2.2-1.2 2.6c-.7.5-.8.3-.3-.7.8-1.2.6-1.2-.8 0-.9.7-1.7 2.3-1.7 3.4s-.7 2.9-1.7 3.9c-.9 1.1-1.1 1.8-.5 1.8.7 0 1.2-.4 1.2-1 0-.5.6-.7 1.3-.4 1.2.4 4-1.3 7.8-4.9 2.3-2.1 3.5-2.2 4.3-.1.9 2.2.8 2.4-.9 2.4-.8 0-1.5.7-1.5 1.5 0 .9-.8 1.9-1.7 2.2-1 .4-2.3 1.3-2.9 2.1-.6.9-2.6 1.5-4.5 1.4-5.7-.2-7 .5-5.9 3.4.6 1.5.6 2.4 0 2.4s-1 .6-1.1 1.3c0 .6-1.9 2.6-4.2 4.2-3.6 2.6-4.3 3.7-4.8 7.5-.5 4.4-.5 4.4-1.4 1.5-.7-2.6-.9-2.7-1.6-1-.4 1.1-.9 3.6-1 5.5l-.2 3.5-.6-3.3c-.9-4.8-2.6-4.4-2.9.8-.2 3-.6 4-1.2 3-.7-1.2-1.2-1.1-2.9.4-1.7 1.6-1.9 2.2-.8 3.4 1 1.3.8 1.5-1.5 1-2.1-.4-2.8 0-3.7 1.9-.6 1.3-1.1 3.6-1.1 5.1 0 2.1-.2 2.4-1 1.2-.7-1.1-1-1.1-1-.2 0 .7-.4 1.1-.9.8-.5-.3-1.1.3-1.4 1.4-.4 1.6.3 2.4 3.7 3.9 2.3 1.1 5.4 2.3 6.9 2.6 3.9 1 3.5 3.5-.5 3.4-1.8-.1-4.1-.3-5-.6ZM26.2 94.8c.6-1.8 2.8-2.1 2.8-.4 0 .9-.7 1.6-1.6 1.6-.9 0-1.4-.5-1.2-1.2Z" fill="#00D2BF"/><path d="M113 67c0-2.6.3-2.9 1.8-2.1.9.5 2.6 1.9 3.6 3 1.9 2.1 1.9 2.1-1.7 2.1-3.4 0-3.7-.2-3.7-3Zm-53.9 1.7c.2-.1 1.2-.9 2.2-1.6 1.4-1.2 1.7-1.1 1.7.3 0 1-.8 1.6-2.2 1.6-1.2 0-1.9-.1-1.7-.3Zm25.4-34.8c-1-1.5.3-2.5 1.6-1.2.7.7.7 1.3.1 1.7-.6.3-1.4.1-1.7-.5Zm72.5-12c0-.6 2.4-1.9 3.6-1.9.2 0 .4.6.4 1.4 0 .9-.9 1.4-2 1.3-1.1-.1-2-.4-2-.8Z" fill="#00D2BF"/><path d="M110 228c0-.5-1-1-2.1-1-4 0-12.6-6.1-47.9-33.9-5.8-4.6-15-11.7-20.5-15.9-5.5-4.2-13-10.6-16.7-14.3l-6.8-6.7v-16.3c.1-14.9.2-16.1 1.5-13.2 1.9 4.4 8.4 11.2 17.4 18.3 42.4 33.3 62.4 48.6 67.8 52l6.3 4v10.4c0 6.7-.4 10.6-1.1 10.8-1.1.4.8 1.4 6.4 3.7 3.8 1.5 3.4 3.1-.8 3.1-1.9 0-3.5-.4-3.5-1Zm-36.5-98.6c-5.5-4.2-12.2-9.6-15-12l-5-4.4h3.8c3 0 3.7.4 3.7 2 0 1.3.7 2 2 2 2.5 0 8 3.9 8 5.7 0 .7.9 1.3 2.1 1.3 1.2 0 2.3.8 2.6 2 .3 1.1 1.4 2 2.4 2 1.1 0 1.9.7 1.9 1.5s.9 1.5 2 1.5c1.6 0 2 .7 2 3 0 1.7-.1 3-.2 3-.2 0-4.8-3.5-10.3-7.6Zm11.5-2.9c0-.8-.9-1.5-2-1.5-1.3 0-2-.7-2-2s-.9-2.2-2.5-2.6c-2.1-.5-2.5-1.2-2.5-4 0-3.1.2-3.4 3.2-3.4 5.4 0 13.8 3.1 13.8 5.2 0 2.2-1 2.2-7.4.3-2.7-.8-5.1-1.3-5.3-1.1-.2.2 2.3 2.5 5.6 5.1 3.4 2.5 6.1 4.8 6.1 5.1 0 .2-1.6.4-3.5.4-2.4 0-3.5-.5-3.5-1.5Zm8.3-12.8c-4.6-1.5-6.3-2.6-6.3-3.9 0-2.4.9-2.3 10.7.9 4.7 1.5 8.3 3.3 8.3 4 0 1.9-5.4 1.5-12.7-1ZM51 112c0-.6-1.1-.8-2.5-.4-2.2.5-2.5.3-2.5-2s.4-2.6 3.5-2.6c3.2 0 3.5.2 3.5 3 0 1.7-.4 3-1 3-.5 0-1-.5-1-1Zm27-5c0-2.2 2-2.6 5.1-1 3 1.6 2.3 3-1.6 3-2.8 0-3.5-.4-3.5-2Zm34.501-6c-2-3.8-1.9-4 1-4 2.2 0 2.5.4 2.5 3.5 0 4.3-1.4 4.5-3.5.5Zm-6.202-11.2c-1.7-2.9-4.3-7.5-5.8-10.3-1.4-2.7-3.3-5.7-4.2-6.7-1.2-1.3-1.3-2.2-.6-2.9 1.6-1.6 4.7-.6 5.2 1.6.2 1.1.7 2.2 1.1 2.5.5.3 2.7 3.8 4.9 7.7 3.7 6.6 5.4 13.3 3.3 13.3-.4 0-2.2-2.4-3.9-5.2ZM117 71c0-1.5-.7-2-2.5-2-2.1 0-2.5-.5-2.5-3.1 0-2.8.2-3 1.7-1.8 1 .8 2.6 2.1 3.7 2.9 1 .8 3 2.5 4.5 3.7l2.6 2.2-3.7.1c-3.1 0-3.8-.3-3.8-2Zm8-7.5c-4.7-3.5-9.1-6.5-9.8-6.5-2.8 0-.4-2.5 2.7-2.8 2.6-.3 3.4.1 3.8 1.7.3 1.2 1.4 2.1 2.4 2.1 1.1 0 1.9.7 1.9 1.5s.9 1.5 2 1.5 2 .7 2 1.5.9 1.5 2 1.5c1.6 0 2 .7 2 3 0 1.7-.1 3-.2 3-.2 0-4.1-3-8.8-6.5Zm7.402-6.9c-.3-.8-.4-2.4-.2-3.6.3-2 .5-2 4.3 1.4l4 3.5-3.8.1c-2.4 0-4-.5-4.3-1.4Zm-8.9-7.6c1.6-1.6 3.2-3 3.7-3 .4 0 .8 1.4.8 3 0 2.8-.3 3-3.7 3h-3.7l2.9-3Z" fill="#00CBC8"/><path d="M34.3 119.7c-5.6-4.4-13.3-11.9-14.4-14-.8-1.3-.5-2.6 1-5 1.9-3 9.8-10.4 14.6-13.7 3.2-2.2 9.8-7.2 14.7-11.3 5.7-4.6 18.8-15 26.3-20.7 3.3-2.5 9.8-7.5 14.5-11.1 9.4-7.1 15.4-10.9 17.5-10.9 2 0-.6 7.6-3.6 10.3-1.4 1.2-2.5 3-2.4 3.9 0 .9-1.6 2.8-3.5 4.1-1.9 1.3-3.4 2.9-3.3 3.5.2.6-.6 1.6-1.8 2.2-1.4.8-1.8 1.7-1.4 3.1.6 1.8.5 1.9-1.3.8-1.6-1-2.3-1-3.6 0-.9.7-1.3 1.7-1 2.2.3.5.1.9-.4.9s-1.4 1.1-2 2.4c-.9 2.1-.8 2.5.8 2.8 1.8.3 1.7.4-.5 1.5-1.9.8-2.3.8-1.8 0 .4-.7-.2-.5-1.3.3-2.7 2.1-3.3 3.1-2.7 4.6.3.8-.6 1.6-2.1 2-2.9.7-4.9 3.5-4.1 5.6.4 1-.2 1.4-2.2 1.4-3-.1-3.4 1.4-2 7.9l.7 3-1.1-2.8c-1.3-3.4-3.4-3.2-5.7.5-1.5 2.5-1.5 2.8.1 4.5 1.5 1.8 1.5 2-.6 4.4-3.1 3.5-10.8 8.9-11.9 8.3-.4-.3-.8 0-.8.5 0 .6-.7 1.1-1.5 1.1s-1.5.8-1.5 1.7c0 .9-.3 1.4-.6 1-.4-.3-1.3.1-2.2.9-1.1 1.1-1.2 1.8-.3 2.7.6.6 1.1 1.8 1.1 2.7 0 2.8-5.5 2-9.7-1.3ZM135.499 17c.3-.5 1.3-1 2.1-1s1.4.5 1.4 1c0 .6-.9 1-2.1 1-1.1 0-1.7-.4-1.4-1Z" fill="#00DEBD"/><path d="M123 241v-10h-2.6c-1.4 0-4.5-.5-7-1.1-3.6-.9-4.4-1.5-4.4-3.5 0-2.3 0-2.3 4.3-.8 2.3.9 8.4 1.8 13.4 2.1 5.1.3 9.1.9 8.8 1.3-.2.3-.5 5.4-.6 11.3l-.1 10.7H123v-10Zm-24-18c0-.5-.7-1-1.5-1s-1.5-.4-1.5-1c0-.5-.7-1-1.5-1s-1.5-.7-1.5-1.5c0-.9-.9-1.5-2.1-1.5-1.2 0-2.3-.8-2.6-2-.3-1.1-1.4-2-2.4-2-1.1 0-1.9-.7-1.9-1.5s-.9-1.5-2-1.5-2-.7-2-1.5c0-.9-.9-1.5-2.1-1.5-1.2 0-2.3-.8-2.6-2-.3-1.1-1.4-2-2.5-2s-2.2-.9-2.5-2c-.3-1.1-1.4-2-2.4-2-1.5 0-1.9-.7-1.9-3.1v-3.1l3.8 2.8c2 1.6 9 7 15.6 12.1 6.5 5.1 13.8 10.5 16.2 12 2.4 1.6 4.4 3.1 4.4 3.6 0 .4-1.6.7-3.5.7s-3.5-.4-3.5-1Zm-41.999-32.5c0-.9-.9-1.5-2.1-1.5-1.2 0-2.3-.8-2.6-2-.3-1.1-1.4-2-2.5-2s-2.2-.8-2.5-1.9c-.3-1.1-1.5-2.1-2.7-2.3-1.5-.2-2.2-1.1-2.4-3-.3-2.5-.8-2.8-3.9-2.8-2.6 0-3.6-.5-4-1.9-.3-1.1-1.5-2.1-2.7-2.3-1.3-.2-2.2-1.1-2.4-2.5-.2-1.6-1-2.3-2.4-2.3-2.3 0-8.8-5.7-8.8-7.7 0-.7-.4-1.3-1-1.3s-1-2.7-.9-6.2c0-4.5.3-5.6.8-3.8 2.2 7.1 7.3 13 19.8 22.7 21.5 16.8 26.5 20.8 26.9 21.5.3.4-1.1.8-3 .8-2.5 0-3.6-.4-3.6-1.5Zm-16.398-70c.4-.8 1.2-1.5 2-1.5s1.4.7 1.4 1.5-.9 1.5-2 1.5c-1.3 0-1.8-.5-1.4-1.5Zm13.399-6.3c-1.4-.9-3-2.4-3.7-3.2-.8-1-1.2-1.1-1.3-.3 0 .7-.7 1-1.5.7-2-.8-1.9-4.4.1-4.4 1.8 0 7.9-4.4 11.1-7.9 2-2.3 2.4-2.4 4-1 1 .8 3 2 4.6 2.7 4.1 1.8 3.3 3.4-1.5 3.2-8.2-.5-9.8-.1-9.8 2 0 1.4-.7 2-2.2 2.1-2.1.1-2 .2.5 1.1 2.1.7 2.7 1.6 2.7 3.9 0 1.6-.1 2.9-.2 2.8-.2 0-1.4-.8-2.8-1.7Zm46.7-35.1c-2.2-3.8-2.2-4.1.8-4.1 2.2 0 2.5.4 2.5 3.5 0 4.3-1 4.4-3.3.6ZM80.701 69c.4-1.4.9-1.7 1.7-1.1.6.5 2 1.1 3.1 1.4 1.5.4 1.4.5-.5.4-1.4-.1-3 .2-3.7.6-.7.5-.9 0-.6-1.3Zm18.801-1c1.1-1.2 3.2-2.9 4.7-3.8 1.6-.9 2.8-2.2 2.8-2.9 0-2 3.4-1.5 4.8.7 1.1 1.9 1 2-2.2 2-3 0-3.5.3-3.8 2.8-.3 2.4-.8 2.7-4.3 3l-3.9.3 1.9-2.1ZM88.4 55.9c-.6-1.1 2-2.3 3.8-1.6.7.2 2.2-.3 3.3-1.2 1.5-1.2 1.7-1.2.8-.1-.6.8-1.1 2-1 2.5.2 1.3-6.1 1.6-6.9.4Zm29.102-1.9c.3-.5 1.9-1.9 3.5-3l3-2.1v3c0 2.9-.3 3.1-3.6 3.1-2 0-3.3-.4-2.9-1ZM99.4 49.5c1.1-.8 2.2-1.2 2.5-.9.6.6-1.9 2.4-3.4 2.4-.5-.1-.1-.7.9-1.5Zm13.101-6.4c-.6-1.1.9-2.3 1.9-1.4.9.9.7 2.3-.3 2.3-.6 0-1.2-.4-1.6-.9Z" fill="#00DEC8"/><path d="M116.901 250.3c-1.3-.3-1.6-2.2-1.5-11.9l.1-11.4 4.5.6c2.5.3 5 .7 5.5.9.9.2 1.3 15.1.6 21.3-.1 1.2-5.6 1.5-9.2.5Zm-13.601-24c-1.8-.9-3.3-2-3.3-2.5 0-.4-.7-.8-1.5-.8s-1.5-.4-1.5-1c0-.5-.7-1-1.5-1s-1.5-.4-1.5-1c0-.5-.7-1-1.6-1-.9 0-1.8-.9-2.1-2-.3-1.1-1.4-2-2.5-2s-2.2-.9-2.5-2c-.3-1.1-1.4-2-2.4-2-1.1 0-1.9-.7-1.9-1.5s-.9-1.5-2-1.5-2-.7-2-1.5c0-.9-.9-1.5-2.1-1.5-1.2 0-2.3-.8-2.6-2-.3-1.1-1.4-2-2.5-2s-2.2-.9-2.5-2c-.3-1.1-1.4-2-2.5-2s-2.2-.9-2.5-2c-.3-1.1-1.4-2-2.4-2-1.1 0-1.9-.7-1.9-1.5s-.9-1.5-2-1.5-2-.6-2-1.4c0-.8-1-1.6-2.2-1.8-1.5-.2-2.4-1.1-2.6-2.5-.3-1.7-1-2.3-2.8-2.3-1.5 0-2.4-.6-2.4-1.5 0-.8-.7-1.5-1.5-1.5-2.6 0-6.5-3.1-6.5-5.1 0-1.4-.7-1.9-2.5-1.9-1.6 0-2.5-.6-2.5-1.5 0-.8-.8-1.5-1.8-1.5-2.6 0-4.2-2-4.2-5.3v-3l3.2 2.6c1.8 1.5 6.7 5.3 10.8 8.5 4.1 3.2 12.9 10.1 19.5 15.2 32.9 25.9 41.5 32.3 47.8 35.6 3.7 1.9 6.7 3.9 6.7 4.5 0 1.4-6.2.9-9.7-.8ZM17 155.5c0-4.4.9-4.4 3.8 0L23 159h-3c-2.8 0-3-.3-3-3.5Zm31.199-45.6c-3-1.1-2.8-1.5 1.3-3.5 1.9-.9 5.3-3.3 7.4-5.4 3.8-3.8 4-3.8 5.7-1.9 1.6 1.8 1.6 1.9-.9 1.9-2.2 0-2.7.5-2.7 2.5 0 1.8-.5 2.5-1.9 2.5-1 0-2.1.8-2.4 1.8-.5 2.3-3.5 3.2-6.5 2.1ZM39.7 88.4c-.8-.8.1-2.4 1.4-2.4.5 0 .9.7.9 1.5 0 1.5-1.2 2-2.3.9Zm23.8-7.5c-1-1.5.3-2.5 1.6-1.2.7.7.7 1.3.1 1.7-.6.3-1.4.1-1.7-.5Z" fill="#00E9CE"/><path d="M113.102 249c-2.9-1.1-6.9-2.9-8.8-4-3.6-2.1-22.8-16.8-45.2-34.5-6.9-5.5-17.6-13.9-23.7-18.7-16.5-12.9-19.3-17.9-19.3-34.3v-10l2.1 4c3.3 6.5 9.9 12.7 27.8 26.1 3 2.3 10 7.7 15.5 12.1 39.2 30.9 42.4 33.1 51.8 36.2l6.2 2.1-.5 9.6c-.3 5.2-.2 10.4.2 11.5.9 2.3.7 2.3-6.1-.1Z" fill="#00F3D3"/><path d="M104.9 154.3c-.8-1-3.5-3.5-6-5.5l-4.4-3.7 3.7-.1c5.7 0 6.4-.6 6-4.7l-.5-3.7 4.9 3.7c2.7 2.1 5.9 4.2 7.2 4.7 2.5 1.1 3 4 .6 4-.9 0-3.2 1.6-5.1 3.5-4 4-4.3 4.1-6.4 1.8Zm27.7-20.1c-.3-.4-3.9-1.9-8-3.2-4.9-1.5-7.6-2.9-7.6-3.8 0-1.2 1.1-1.3 6-.8 5 .6 6 .5 6-.9 0-.9.9-1.5 2.5-1.5 2.2 0 2.5-.4 2.5-3.5 0-1.9.4-3.5.8-3.5.5 0 2.1 2.3 3.6 5 1.5 2.8 3.1 5 3.7 5 .5 0 .9.5.9 1 0 .6-.8 1-1.8 1-2.1 0-5.2 2.9-5.2 4.8 0 1.3-2.6 1.6-3.4.4Zm-14.599-13.1c0-.5-.3-1.6-.6-2.4-.4-1.2 0-1.4 1.7-1 1.8.5 2.1.3 1.6-1-.4-1-1-2.4-1.3-3.2-.5-1.1.1-1.5 1.9-1.5 2.8 0 3.7 1.6 3.7 6.6 0 3.2-.2 3.4-3.5 3.4-1.9 0-3.5-.4-3.5-.9Zm38.397-6.4c-.3-.8-3.6-3.8-7.5-6.7-3.8-2.9-7.2-5.7-7.5-6.2-.3-.4 1.1-.8 3-.8 2.5 0 3.6.4 3.6 1.5 0 .8.9 1.5 2 1.5 1.3 0 2 .7 2 2 0 1.5.7 2 2.5 2 1.5 0 2.5.6 2.5 1.4 0 .7.9 1.6 2 1.9 1.6.4 2 0 2-1.8 0-1.3.6-2.6 1.3-2.8.6-.3.1-.6-1.1-.6-1.5-.1-2.6-.9-2.9-2.1-.3-1.1-1.4-2-2.4-2-1.2 0-1.9-.7-1.9-2 0-1.5-.7-2-2.5-2-1.6 0-2.5-.6-2.5-1.5 0-.8-.9-1.5-2-1.5-1.3 0-2-.7-2-1.9 0-1.4-.8-2.1-2.7-2.3-2.4-.3-2.9-.8-3.1-3.7l-.3-3.4 2.4 1.9c1.4 1.1 7.5 5.9 13.7 10.7 6.1 4.9 11.8 9.1 12.6 9.4 2.3.8 1.7 1.9-2.8 4.8-2.4 1.6-4.7 3.4-5.1 4.2-1 1.7-2.6 1.7-3.3 0Zm-27.799-1.3c-.9-2.3-.7-7.4.2-7.4.8 0 5.2 7.1 5.2 8.4 0 1.4-4.8.5-5.4-1Zm44.701-11.7c-.4-.8-6.4-5.7-13.3-11.1-6.9-5.3-13.8-10.8-15.5-12.1l-3-2.4h3.8c3.3-.1 3.7.2 3.7 2.4 0 2.2.4 2.5 3.5 2.5 2.8 0 3.5.4 3.5 2 0 1.5.7 2 2.9 2 1.6 0 3.6-.3 4.5-.6 2.1-.8 2.1-3.4 0-3.4-.9 0-1.8-.9-2.1-2-.3-1.1-1.4-2-2.4-2-1.2 0-1.9-.7-1.9-2 0-1.5-.7-2-2.5-2-2.1 0-2.5-.5-2.5-3.1 0-2.7.2-2.9 1.8-1.7 1 .7 6.3 4.8 11.9 9.1 5.6 4.2 10.5 7.7 10.8 7.7 1 0 19.1-13.7 23.2-17.6 3.7-3.5 5.3-4.2 5.3-2.4 0 1.4 5.1 5.9 6.7 6 2.1 0 2.5 2 .6 2.7-1 .4-4.1 2.5-6.9 4.7-2.8 2.3-10.6 8.3-17.3 13.5-6.6 5.2-12.1 9.8-12.1 10.3 0 1.3-1.8.9-2.7-.5ZM134 96l-3.5-2.9 3.8-.1c3.5 0 3.7.2 3.7 3 0 1.7-.1 3-.3 3-.1 0-1.8-1.3-3.7-3Z" fill="#6DBECB"/><path d="M95.3 146.2c-14.3-11-14.4-11.2-11-11.2 1.5 0 2.7-.4 2.7-.9s.9-1.3 2-1.6c2.9-.9 2.5-3.5-.5-3.5-2.1 0-2.5-.5-2.5-3.1 0-3.6-1.6-4.5 16.3 9.5 7 5.5 12.7 10.6 12.7 11.3 0 1.2-.3 1.1-1.6-.1-2-2.1-2.6-2-6.8.5-3.7 2.2-4.7 3.3-2.1 2.3 1.1-.5 1.3-.2.9 1-.4 1 0 1.8 1 2.2 1.6.6 2.3 2.5.9 2.3-.5 0-5.9-4-12-8.7ZM75 130l-3.5-2.9 3.8-.1c3.5 0 3.7.2 3.7 3 0 1.7-.1 3-.3 3-.1 0-1.8-1.3-3.7-3Zm35.3-3.7c-6.3-2-11.3-4.2-11.3-4.9 0-.7 1.8-1.5 4-1.9 3.1-.5 4.1-1.2 4.6-3l.6-2.3 6.9 2.3c7.1 2.5 7.9 2.3 5.5-1-1.7-2.5-10.6-19.2-10.6-20 0-.3 1.1-.5 2.5-.5 2.1 0 2.5.5 2.5 3 0 1.9.5 3 1.4 3 1.7 0 2.6 2.2 2.6 6.1 0 2.2.5 2.9 2 2.9 1.3 0 2 .7 2 2 0 1.5.7 2 2.5 2 2.2 0 2.5.4 2.5 3.5 0 2.4-.5 3.5-1.5 3.5-.8 0-1.5.9-1.5 2s-.4 2-1 2c-.5 0-1 1.1-1 2.5s-.3 2.5-.7 2.5c-.5-.1-5.9-1.7-12-3.7Z" fill="#73CFD4"/><path d="M98 115c0-.5-1.3-1-3-1-2.5 0-3-.4-3-2.4v-2.4l6.5 2.1c7.1 2.3 8.7 4.7 3 4.7-1.9 0-3.5-.4-3.5-1Zm24.2-13.5c-1.4-3-1.6-8.5-.4-8.5.8 0 6.2 9.1 6.2 10.4 0 .3-1.1.6-2.3.6-1.6 0-2.8-.9-3.5-2.5Zm10.3-6.6c-4.9-3.9-10.3-8-11.9-9.1l-2.8-2.1 1.1 2.1c1.5 2.7 1.4 3.2-.4 3.2-1 0-1.5-1.1-1.5-3.5 0-3.3.2-3.5 3.5-3.5 2.4 0 3.5.5 3.5 1.5 0 .8.9 1.5 2 1.5 1.3 0 2 .7 2 2 0 1.5.7 2 2.5 2 1.6 0 2.5.6 2.5 1.5 0 .8.9 1.5 2 1.5 1.3 0 2 .7 2 2 0 1.5.7 2 2.5 2 2.1 0 2.5.5 2.5 3 0 1.7-.1 3-.2 3-.2 0-4.3-3.2-9.3-7.1ZM141 90c0-1.5-.7-2-2.5-2-1.4 0-2.8-.7-3.1-1.5-.4-.8-1.2-1.5-2-1.5s-1.4-.9-1.4-2c0-1.5-.7-2-2.5-2s-2.5-.5-2.5-2-.7-2-2.5-2c-2.1 0-2.5-.5-2.5-3.1v-3.1l2.4 1.9C135.3 81 142 86.3 145 88.9l3.5 3-3.7.1c-3.1 0-3.8-.3-3.8-2Zm7-9-3.5-2.9 3.8-.1c3.5 0 3.7.2 3.7 3 0 1.7-.1 3-.3 3-.1 0-1.8-1.3-3.7-3Zm-9-7-3.5-2.9 3.8-.1c3.5 0 3.7.2 3.7 3 0 1.7-.1 3-.3 3-.1 0-1.8-1.3-3.7-3Zm14-2c0-1.5-.7-2-2.5-2s-2.5-.5-2.5-2-.7-2-2.5-2-2.5-.5-2.5-2-.7-2-2.5-2c-2.1 0-2.5-.5-2.5-3.1 0-2.4.3-2.9 1.3-2.2 6.9 5.4 20.7 16.6 20.7 16.9 0 .2-1.6.4-3.5.4-2.8 0-3.5-.4-3.5-2Zm-32-12-3.5-2.9 3.8-.1c3.5 0 3.7.2 3.7 3 0 1.7-.1 3-.3 3-.1 0-1.8-1.3-3.7-3Z" fill="#73CFD4"/><path d="m111.402 150.2 2.9-3.2-2.9-2.5c-3.4-3-1.8-3.4 1.9-.5 1.4 1.1 3 2 3.6 2 1.9 0 1.2 1.6-1.1 2.8-1.3.7-3.4 1.9-4.8 2.9-2.3 1.5-2.2 1.4.4-1.5Zm21.098-16.1c-.3-.5-4.8-2.4-10.1-4.1-5.2-1.8-9.3-3.4-9.1-3.6.2-.3 1.6 0 3 .5 3.2 1.3 4 .2 2.3-3-1.6-3.1-1-4.9 1.5-4.9 1.2 0 1.9-.7 1.9-1.8 0-2.4 3.7-5.8 7.1-6.6 2.5-.5 3-.1 6.8 7.4 2.3 4.4 4.9 8.3 5.8 8.8 1.3.8 1 1.2-1.9 2.6-2 1-3.8 2.6-4.1 3.7-.5 2-2.2 2.5-3.2 1Zm3.6-4.1c2.8-1.6 2.3-3-1.1-3-2.8 0-4 1.7-2.3 3.3.8.9 1.1.9 3.4-.3Zm11.903-22.8c-8.4-6.8-9.2-7.7-7-8 1.4-.2 2.9-.8 3.5-1.3.5-.5 1.7-.9 2.6-.9.9 0 1.9-1 2.2-2.2.4-1.6.9-1.9 1.9-1.1.7.5 4.5 3.5 8.4 6.6 3.9 3.2 7.6 5.7 8.3 5.7 2.2 0 1 1.5-3.4 4.5-2.5 1.7-4.5 3.3-4.5 3.8 0 1.9-3.2 0-12-7.1Zm25.397-5.6c-.3-.8-5.9-5.5-12.5-10.6-6.6-5.2-11.9-10-11.9-10.9 0-1.9 9.7-7.4 11.3-6.4.7.4 4.3 3.1 8.1 6.1 5.9 4.7 7.2 5.4 9.3 4.6 3.4-1.3 24.2-17.7 24.3-19.1 0-2 .8-1.6 4.6 2.2 1.9 1.9 4.1 3.5 4.9 3.5.8 0 1.5.7 1.5 1.5s-.5 1.5-1.1 1.5c-1.8 0-35.9 26.7-35.9 28.1 0 1.4-2 1.1-2.6-.5Zm17.1-13.3c9.1-7.3 14.2-12 13.6-12.6-1.4-1.4-6.1.1-6.1 1.8 0 .8-.8 1.5-1.7 1.4-2.4-.1-6.3-1.7-4.4-1.8.8-.1 1.2-.4.8-.7-.6-.7-12.7 8.2-14 10.3-1.1 1.8-3.1 1.6-5.1-.6-1.7-1.9-1.8-1.8-6.2.6-2.6 1.5-5.1 2.2-6.1 1.8-2.1-.8-1.8-.4 6 6.2 3.4 2.9 6.8 5.2 7.4 5.3.7 0 7.8-5.3 15.8-11.7ZM144 78l-3.5-2.9 3.8-.1c3.5 0 3.7.2 3.7 3 0 1.7-.1 3-.3 3-.1 0-1.8-1.3-3.7-3Z" fill="#81C7D2"/><path d="M95.301 145.7c-26.9-20.6-28.8-22.2-25.8-22.5 3.9-.5 5.5-2.4 5.5-6.6 0-3.6 0-3.6 4.4-3.6 3 0 4.6-.5 5-1.5.4-1.1-.1-1.5-1.9-1.5-2 0-2.5-.5-2.5-2.5v-2.4l11.3 3.8c6.1 2.1 14.5 4.8 18.5 6.2 4.1 1.3 7.6 2.7 7.8 3 .2.4-1.2.9-3.1 1.2-1.9.3-4.2 1.3-5.1 2.1-.9.9-2 1.3-2.6 1-.7-.4-.8-.2-.4.4.4.7 1.3 1.2 2 1.2s2.1.7 3.2 1.6c1 .8 1.5 1.3.9 1.1-.5-.2-7.6-2.5-15.7-5.1-8.1-2.5-15.5-4.9-16.5-5.3-3.4-1.3.6 2.5 14.4 13.3 7.3 5.8 13.3 10.8 13.3 11.1 0 .6-1.9-.6-8.2-5.4-5.4-4.1-5.7-4.2-4.8-1.8.8 2.2.7 2.6-.8 2.4-6-.6-5.6 2.4 1 8.3 6.1 5.5 6.2 6.2.1 1.5Z" fill="#82D8D9"/><path d="M96 138.5c0-.9.6-1.2 1.5-.9.8.4 1.5 1 1.5 1.5s-.7.9-1.5.9-1.5-.7-1.5-1.5Zm23.302-25.7c-.6-.7-3.6-6.2-6.8-12.3-3.2-6-6.4-11.9-7.1-13-2-2.8-1.7-3.5 1.1-3.5 2.2 0 2.5.4 2.5 3.5 0 2.8.4 3.5 1.9 3.5 2.1 0 3.1 1.9 3.1 5.6 0 1.5.6 2.4 1.5 2.4.8 0 1.5.7 1.5 1.5 0 1 1 1.5 3 1.5 1.7 0 3 .5 3 1 0 .6.7 1 1.5 1 1.6 0 2 3.6.9 7.8-.7 2.5-4.5 3.1-6.1 1ZM128 91l-3.5-2.9 3.8-.1c3.5 0 3.7.2 3.7 3 0 1.7-.1 3-.3 3-.1 0-1.8-1.3-3.7-3Zm-12.598-2.4c-.3-1.3-.4-3.5-.2-4.7.2-2 1-2.5 4.1-2.7 3.5-.3 3.7-.2 3.7 2.8v3l-2.6-1.7-2.7-1.7 1.7 3.2c2.1 4 2.1 4.2-.9 4.2-1.8 0-2.6-.7-3.1-2.4ZM128 80c0-1.5-.7-2-2.5-2s-2.5-.5-2.5-2-.7-2-2.5-2c-2.1 0-2.5-.5-2.5-3.1 0-2.4.3-2.9 1.3-2.2C125 73.1 135 81.3 135 81.6c0 .2-1.6.4-3.5.4-2.8 0-3.5-.4-3.5-2Zm5-10.6C115.3 55.6 115.7 56 120.3 56c3 0 3.7.4 3.7 2 0 1.5.7 2 2.5 2 1.6 0 2.5.6 2.5 1.5 0 .8.9 1.5 2 1.5 1.3 0 2 .7 2 2 0 1.5.7 2 2.5 2 1.6 0 2.5.6 2.5 1.5 0 .8.9 1.5 2 1.5 1.3 0 2 .7 2 2 0 1.5.7 2 2.5 2 2.1 0 2.5.5 2.5 3 0 1.7-.1 3-.2 3-.2 0-6.4-4.8-13.8-10.6Zm11-4.4c0-1.5-.7-2-2.5-2s-2.5-.5-2.5-2-.7-2-2.5-2-2.5-.5-2.5-2-.7-2-2.5-2c-1.4 0-2.5-.4-2.5-1 0-.5-.7-1-1.5-1-1 0-1.5-1.1-1.5-3.5 0-1.9.5-3.5 1-3.5.6 0 1 .4 1 .9s5.2 5.1 11.5 10.1 11.5 9.4 11.5 9.6c0 .2-1.6.4-3.5.4-2.8 0-3.5-.4-3.5-2Z" fill="#82D8D9"/><path d="M101.499 150.7c-3.6-3.6-4-4.2-1.5-2.3 6.6 5 7.4 5.2 11.5 2l3.7-2.8-2.4-2.1c-10.9-9.1-11.4-9.7-4.8-5 3.6 2.5 7.3 4.9 8.3 5.2 2 .6 2.3 2.3.4 2.3-.7 0-3.2 1.8-5.5 4-2.2 2.2-4.3 3.9-4.4 3.9-.2-.1-2.5-2.4-5.3-5.2Zm31.101-16.6c-.3-.5-4.3-2.2-8.9-3.6-4.5-1.5-8.6-3.1-9.2-3.6-.5-.5 3.1.4 8 2.1 10.3 3.5 11.2 3.6 14.3 1.1 3-2.6 2.8-3.7-1.4-10.4-3.8-6.2-5.1-6.8-7.9-3.7-1 1.1-2.3 1.7-2.9 1.3-.6-.3-.5 0 .2.8 2.3 2.5 1.5 4.2-1.8 3.6-1.6-.4-3.2-.2-3.5.3-.9 1.5-2.5.2-1.8-1.5.3-.9-.1-1.5-1.1-1.5-.9 0-1.6-.5-1.6-1.1 0-.6.6-.9 1.3-.6 6.5 2.4 6.8 2 3.2-3.8-1.3-2.2-2.4-5.1-2.4-6.5l.1-2.5.9 2.7c.6 1.4 1.8 2.9 2.7 3.3.9.3 1.3.3.9-.1s-.1-1.4.6-2.3c1-1.4 1-1.4-.5-.3-2.4 1.9-3 0-1.3-4.1 1.6-3.8 4.4-5.5 5.7-3.5.4.7 3.6 6.5 6.9 12.8 3.4 6.3 6.9 12.3 7.7 13.3.8.9 1.3 1.8 1.1 2-.2.1-1.7.9-3.4 1.7-1.6.9-3 2.2-3 3 0 1.6-2.1 2.5-2.9 1.1Zm24.2-19.9c-.1-.4-6.5-5.6-14-11.6-7.6-5.9-13.8-11.4-13.8-12.2 0-.8 1.1-1.9 2.5-2.4s2.8-1.7 3.1-2.5c1.2-3 4.4-1.3 18 9.5 7.7 6 14.5 11 15.2 11 2.3 0 1.2 1.5-3.3 4.3-2.5 1.6-4.5 3.3-4.5 3.8 0 1.1-2.7 1.2-3.2.1Zm6.2-4.1c1.9-1.6 3.3-3.1 3-3.3-3.2-2.7-13-9.8-13.5-9.8-.4 0-.5.7-.1 1.5.4 1.1-.1 1.5-1.8 1.5-1.3 0-2.9.6-3.5 1.4-.9 1.1 0 2.4 4.5 6.5 3 2.8 6.1 5.1 6.8 5.1.6 0 2.7-1.3 4.6-2.9Zm10.7-8.4c-.3-.7-7.7-6.9-16.6-13.7C143.2 77.2 141 75.2 141 72.8c0-2.1.5-2.8 2-2.8 1.1 0 2-.5 2-1.1 0-1.2 2.5-3.9 3.7-3.9.4 0 6.4 4.5 13.3 10 6.9 5.4 13.3 9.9 14.4 10 1.7 0 20.3-13.9 24.9-18.6l2-2.1 3.4 3.3c1.9 1.9 4.1 3.4 4.9 3.4 2.4 0 1.3 1.5-4.1 5.4l-5 3.7 3.8-3.5c2-2 3.7-3.8 3.7-4.1 0-.2-1.6-1.6-3.4-3l-3.5-2.7-12 9.2c-6.6 5.1-12.2 9.8-12.5 10.6-.6 1.6-3.6 1.9-3.6.4 0-.5-3-3.2-6.7-5.8l-6.6-4.9-4.8 2.6c-4.6 2.4-4.8 2.6-3.1 4.4C157 86.9 173.7 100 175 100c.7 0 2.3-.8 3.4-1.7 1.2-1 .8-.3-.8 1.5-3.4 3.7-3.2 3.6-3.9 1.9Z" fill="#8FD0D7"/><path d="M181.2 96.4c.4-.5 3.5-3.2 6.9-5.9 3.5-2.7 6-4.5 5.7-3.9-.4.5-3.5 3.2-6.9 5.9-3.5 2.7-6 4.5-5.7 3.9Z" fill="#8FD0D7"/><path d="M105.3 154.1c-.6-1-5.5-5.1-10.7-9-5.3-4-9.6-7.5-9.6-7.8 0-.6 4.7 2.8 14.2 10.4 3.7 2.9 7.4 5.3 8.3 5.3.9 0 1.5.5 1.3 1.2-.7 2-2.2 1.9-3.5-.1Zm9.7-7.1c0-.5.7-1 1.5-1s1.5.5 1.5 1c0 .6-.7 1-1.5 1s-1.5-.4-1.5-1Zm-13.5-10.6c-6.6-5.2-12.2-10.3-8.5-7.8 3 2.1 16 12.6 16 13 0 .7-.3.5-7.5-5.2Zm6.301-11.2c-4.2-1.5-8-3-8.4-3.4-.4-.4 3.3.6 8.1 2.2 8.1 2.7 11.2 4.1 8.9 3.9-.5 0-4.4-1.3-8.6-2.7Zm13.498-5.9c.1-1-2.7-7.5-6.3-14.5-6.4-12.6-6.5-12.7-4.8-15.5.9-1.5 2.9-3.2 4.4-3.8 2.3-.8 2.9-.6 4.3 1.4 2.5 3.8 14.2 26.1 13.7 26.1-.3 0-1.7-2.2-3.3-5-2.6-4.6-4.8-6-4.8-3.1 0 1.4-2.4 3.1-4.4 3.1-.8 0-1.1-.6-.7-1.5.3-.8.1-1.5-.4-1.5-.6 0-1 .4-1 .9 0 1.4 5.1 12 6.1 12.6 1.6 1 1 2.5-1.1 2.5-1.3 0-1.9-.6-1.7-1.7Zm-10.999-2.6c-5.1-1.7-9-3.3-8.8-3.5.7-.7 18.5 5.1 18.5 6 0 .4-.1.8-.2.7-.2 0-4.4-1.4-9.5-3.2Zm34.9-12c-.6-.7-7-5.8-14.1-11.2-7.9-6-13.1-10.7-13.1-11.7s.3-1.8.8-1.8c.4 0 2-1.1 3.6-2.5s3.3-2.5 3.7-2.5c1 0 12.8 9 19.1 14.6l4.3 3.7-3.7-2.2c-2.1-1.2-4.2-2-4.8-1.6-.6.4-.9.1-.8-.6.2-.6-.3-1.4-1-1.6-.9-.3-1.2.1-1 1.3.2 1-.3 1.9-.9 2-.7.1-1.5.3-1.8.4-.3.1-.9.3-1.4.4-2.6.3-1.6 1.8 4.2 6.4 6.1 4.9 9.5 8.2 8.4 8.2-.2 0-.9-.6-1.5-1.3Zm-7.399-31.8c-9.6-7.6-11-10.4-6.3-12.9 1.3-.7 2.8-2.4 3.2-3.6.8-2.3 1.4-1.9 14.1 8.1 13.3 10.6 17.9 15.1 7.7 7.5-5.8-4.3-7.1-4.2-8.8.4-.4 1.1-1.3 1.6-2.2 1.2-2.1-.8-1.9 2.2.2 4.6 2.7 3.1 1.2 2-7.9-5.3Zm64.3-7c.5-1.1 1.4-1.7 2-1.4 1.5 1 1 2.2-1.1 2.8-1.7.4-1.8.2-.9-1.4Z" fill="#97DBDD"/><path d="M65.298 122.5c-8.9-6.9-16.6-12.5-17.2-12.5-2 0-1.1-2 1.2-2.9 1.2-.5 4.2-2.8 6.7-5 3.7-3.6 4.8-4 6.5-3.2 1.1.6 8.1 3.2 15.5 5.7 13 4.4 19.3 7.1 14.2 6.1-2.7-.6-5.7 2.9-4.2 4.8.5.7.7 1.5.3 1.8-.3.4.1.7 1 .7s1.8.4 2.2 1c.3.5-2 0-5.1-1-8.2-2.9-9.5-2.5-4.9 1.3 2.2 1.7 5.3 4.5 7 6l3 2.8-4.9-3.1c-5.9-3.6-6.5-3.6-9.4-1-2.9 2.8-2.8 3.3 1.6 7.4 2 2 3.5 3.6 3.2 3.6-.3 0-7.8-5.6-16.7-12.5ZM103.599 84c-3.7-6.6-7.1-12-7.7-12-2.1 0-.7-2 2.4-3.5 1.8-.8 4.9-3.1 7-5.1l3.6-3.6 5.8 5c3.2 2.8 7.2 6.2 8.8 7.6l3 2.5-3.7.1c-3.1 0-3.8-.3-3.8-2 0-1.5-.7-2-2.5-2-1.5 0-2.5-.6-2.5-1.4 0-.7-1.1-1.6-2.5-1.8-6.4-1.3-9.3 1.6-8.7 8.5.2 2.8.8 3.7 2.2 3.7 2.1 0 3 1.9 3 6.1 0 2.2.5 2.9 2 2.9 1.6 0 2 .7 2 3.5 0 1.9-.4 3.5-.8 3.5-.5 0-3.9-5.4-7.6-12ZM124 62l-3.5-2.9 3.8-.1c3.5 0 3.7.2 3.7 3 0 1.7-.1 3-.3 3-.1 0-1.8-1.3-3.7-3Zm-7.703-5.1c-3-1.1-2.9-1.5 1.1-3.4 1.8-.9 4.8-3 6.6-4.8 2.4-2.3 3.4-2.8 3.8-1.8.2.7 1.3 2.1 2.5 3 1.1.9 3.1 2.6 4.6 3.8l2.6 2.2-3.7.1c-3.1 0-3.8-.3-3.8-2 0-1.1-.5-2-1-2-1.3 0-5.1 2.1-6.5 3.6-1.6 1.8-3.8 2.2-6.2 1.3Z" fill="#8EE6E0"/><path d="M77.7 131.9c-7-5.5-12.7-10.3-12.7-10.6 0-.3 1.9 1 4.3 2.9 2.3 1.9 8.1 6.5 13 10.3 7.8 6.1 9.4 7.5 8.4 7.5-.1 0-6-4.5-13-10.1Zm12.8-4.5-4-3.6 4.3 3.2c3.6 2.7 4.9 4 4 4-.2 0-2.1-1.6-4.3-3.6Z" fill="#A0E4E2"/><path d="M79.3 119.2c-3.4-2.6-5.9-5-5.4-5.5.4-.4 6.9 1.3 14.5 3.9 7.5 2.6 13.5 4.8 13.3 5-.2.2-5.7-1.4-12.2-3.6-6.6-2.2-12.2-4-12.5-4-.3 0 1.8 2 4.5 4.5 6.5 5.7 5.6 5.6-2.2-.3Zm42.198.9c-.7-1.2 1.2-2.4 2.5-1.6 1.1.7.4 2.5-1 2.5-.5 0-1.1-.4-1.5-.9ZM80.6 106.9c-9.2-3.2-17.9-5.9-19.2-5.9-1.5 0-2.4-.6-2.4-1.5 0-1.6 2.6-2.1 3.2-.7.2.5 8.7 3.7 19.1 7.2 10.3 3.4 18.7 6.4 18.7 6.6 0 1-3.5-.1-19.4-5.7Zm-31.8 3.4c-2-.5-2.5-2.3-.6-2.3.6 0 2.1-.8 3.2-1.7 2.1-1.8 2.1-1.8.5.2-.9 1.1-1.4 2.6-1.2 3.3.3.6.3 1.1.1 1.1-.1-.1-1.1-.3-2-.6Zm65.6-6.5c-6.2-12.3-15.6-29.2-17.6-31.4-1.9-2.1-1.9-2.2.4-2.7 1.3-.4 4.5-2.7 7.3-5.2 2.7-2.5 5.1-4.1 5.3-3.6.2.6 6.2 5.6 13.3 11.1 13.1 10.3 16 13 9 8.6l-3.9-2.5-2.9 2.4c-1.5 1.4-3.2 2.5-3.8 2.5-.5.1 1.7 2.6 5 5.7l6 5.5-6.8-5.2c-3.8-2.8-7.1-4.9-7.4-4.7-.3.3 1.6 4.4 4.2 9.1 5 9.3 5.6 11.9.7 3.4-1.7-2.9-3.7-6.2-4.5-7.2-1.4-1.9-1.5-1.9-4.1.8-1.4 1.6-2.3 3.3-1.9 3.9.3.6.7 2.2.8 3.6.1 1.5 1.4 5 2.9 7.9 1.4 2.8 2.4 5.2 2.1 5.2-.2 0-2.1-3.3-4.1-7.2ZM166 107c0-.5.7-1 1.5-1s1.5.5 1.5 1c0 .6-.7 1-1.5 1s-1.5-.4-1.5-1Zm-37.5-41.3c-5-4-10.2-7.9-11.5-8.9l-2.5-1.6 2.7-1c1.4-.6 4.2-2.7 6.2-4.6 2.7-2.8 3.7-3.3 4.3-2.2.4.7 5.2 4.8 10.6 9 5.3 4.3 9.7 7.9 9.7 8.2 0 .8-3.6-1.4-5-3-1.6-2-3.6-2-4.4 0-.3.8-1 1.3-1.6.9-.5-.3-1.8 0-2.9.7-1.5.9-1.7 1.5-.9 2.5.6.7.7 1.3.2 1.3-.4 0 .5 1.4 2.1 3 1.6 1.7 2.7 3 2.4 3-.2-.1-4.5-3.3-9.4-7.3ZM210 72c0-.5.7-1 1.5-1s1.5.5 1.5 1c0 .6-.7 1-1.5 1s-1.5-.4-1.5-1Zm-8-6c0-.5.7-1 1.5-1s1.5.5 1.5 1c0 .6-.7 1-1.5 1s-1.5-.4-1.5-1Z" fill="#A0E4E2"/></svg>