<svg width="50" height="50" viewBox="0 0 50 50" fill="none" xmlns="http://www.w3.org/2000/svg">
<g clip-path="url(#clip0_1023_52202)">
<path d="M18.6119 12.8807C18.606 11.5477 18.6084 10.2147 18.5872 8.88293C18.5825 8.54821 18.6968 8.40914 19.0281 8.44685C19.1059 8.4551 19.1849 8.44803 19.2639 8.44803C29.2728 8.44803 39.2818 8.45274 49.2919 8.43507C49.8637 8.43389 50.0016 8.58946 50.0005 9.15047C49.9828 19.6977 49.9875 30.246 49.9875 40.7932C49.9875 41.5487 49.9863 41.5487 49.22 41.5487C39.25 41.5487 29.2799 41.5416 19.3099 41.5652C18.6815 41.5664 18.5483 41.379 18.5813 40.8074C18.6284 39.9871 18.5495 39.1585 18.6084 38.3382C18.6497 37.7572 18.4151 37.6216 17.8952 37.5627C15.5326 37.2928 13.2986 36.5821 11.2037 35.4601C7.04683 33.2338 4.01939 29.883 1.68278 25.8534C1.07211 24.801 0.538063 23.7119 0.0841829 22.5829C-0.0183824 22.3283 -0.0690757 22.1338 0.183211 21.9111C4.60295 18.0075 9.48128 14.9173 15.2603 13.4276C16.3626 13.1435 17.4896 12.9868 18.6225 12.8701C18.6225 13.6986 18.6225 14.5272 18.6225 15.3545C18.5271 15.3699 18.4327 15.3887 18.3361 15.3982C13.1937 15.925 8.9661 18.1902 5.58616 22.0796C5.25135 22.465 5.11577 22.7962 5.33505 23.3289C6.22631 25.5034 7.36042 27.5294 8.8541 29.3456C11.0704 32.041 13.7925 33.9715 17.2397 34.7718C18.5919 35.0853 18.5931 35.0782 18.5931 33.7252C18.5931 32.4076 18.5931 32.4076 17.3529 32.0469C17.2585 32.0198 17.1689 31.9809 17.0758 31.9491C12.8258 30.5006 10.3914 27.3455 8.9048 23.2924C8.79634 22.9965 8.95903 22.8516 9.13351 22.6925C11.832 20.228 14.9632 18.6935 18.6178 18.2857C18.6273 18.8903 18.6815 19.4985 18.632 20.0984C18.5836 20.6794 18.7723 20.9234 19.3594 20.9977C20.4239 21.132 21.3258 21.6211 22.0697 22.4049C22.9161 23.2971 23.482 24.3778 24.1127 25.4138C24.2742 25.6778 24.3792 25.8004 24.6751 25.5447C25.8469 24.5322 27.0364 23.5399 28.2248 22.5475C28.4417 22.366 28.5124 22.2246 28.2825 21.983C26.5354 20.1408 24.4699 18.8774 21.9435 18.4047C20.8318 18.1973 19.7201 18.314 18.6072 18.2975C18.6084 17.3134 18.6108 16.3292 18.6119 15.3439C19.4065 15.1825 20.2094 15.219 21.0051 15.298C25.9294 15.7847 29.6725 18.3611 32.8214 21.9853C33.0347 22.2316 33.0064 22.4025 32.8155 22.6406C30.829 25.1215 28.6185 27.355 25.8304 28.9437C23.7025 30.1565 21.4555 30.7552 19.0057 30.094C18.6862 30.008 18.6343 30.1506 18.6402 30.4181C18.6508 30.8683 18.6685 31.3209 18.6355 31.7699C18.6049 32.1801 18.7711 32.2944 19.1601 32.3463C21.6806 32.6786 24.0844 32.2473 26.3951 31.2537C30.9775 29.2831 34.644 26.1057 37.9532 22.4591C38.1972 22.1904 38.0946 22.0431 37.9084 21.8286C36.377 20.0524 34.6475 18.4943 32.7259 17.1519C29.3884 14.8195 25.7443 13.2991 21.6453 12.9561C20.6349 12.8713 19.6211 12.9891 18.6119 12.8807ZM20.7269 37.71C20.7269 37.6912 20.7281 37.6723 20.7281 37.6535C21.1985 37.6535 21.6724 37.6876 22.1392 37.6487C28.5891 37.1042 34.7359 35.4047 40.621 32.7399C42.4283 31.922 44.1472 30.9438 45.7293 29.7345C46.0122 29.5188 46.1077 29.3538 45.7352 29.1499C45.5807 29.0651 45.4463 28.9472 45.2931 28.86C43.8324 28.0209 42.3588 27.2006 40.9134 26.3343C40.5609 26.1233 40.3581 26.1339 40.0563 26.3991C38.7324 27.5659 37.3507 28.6644 35.9219 29.7003C30.8785 33.3551 25.3954 35.6475 19.0116 35.1254C18.7157 35.1006 18.6332 35.1902 18.6414 35.4719C18.6567 36.04 18.6614 36.6092 18.6402 37.1761C18.6273 37.5144 18.7664 37.6205 19.0859 37.6263C19.6317 37.6358 20.1787 37.6794 20.7269 37.71ZM18.5943 25.3985C18.5943 24.0655 18.5825 22.7337 18.6013 21.4007C18.6072 21.013 18.4764 20.8939 18.0932 20.8975C16.4769 20.9128 15.1424 21.6023 13.9269 22.5852C12.8647 23.4444 12.8553 23.4562 13.4306 24.7137C14.4292 26.8941 15.838 28.6974 18.0979 29.7086C18.4528 29.8677 18.6131 29.8689 18.6037 29.3951C18.5766 28.0633 18.5943 26.7303 18.5943 25.3985Z" fill="#79B82D"/>
</g>
<defs>
<clipPath id="clip0_1023_52202">
<rect width="50.0005" height="33.1301" fill="white" transform="translate(0 8.43506)"/>
</clipPath>
</defs>
</svg>
