<svg width="50" height="50" viewBox="0 0 50 50" fill="none" xmlns="http://www.w3.org/2000/svg">
<g clip-path="url(#clip0_1023_52223)">
<path d="M47.98 23.5644C47.8494 23.5644 47.7188 23.5861 47.6099 23.6079L39.1626 8.81657C39.511 8.44679 39.7287 7.96825 39.7287 7.42445C39.7287 6.3151 38.836 5.42328 37.7257 5.42328C37.1596 5.42328 36.6589 5.6408 36.3106 6.01058L19.9385 2.8783C19.9167 1.79071 19.0241 0.942383 17.9355 0.942383C16.8252 0.942383 15.9325 1.83421 15.9325 2.94356C15.9325 3.22633 15.9978 3.48736 16.0849 3.72663L3.15272 22.3463C2.97854 22.3028 2.80437 22.2593 2.60843 22.2593C1.49809 22.2593 0.605469 23.1511 0.605469 24.2604C0.605469 25.3698 1.49809 26.2616 2.60843 26.2616C2.6302 26.2616 2.67375 26.2616 2.69552 26.2616L9.96716 42.7278C9.66236 43.0758 9.46642 43.5326 9.46642 44.0329C9.46642 45.1423 10.3591 46.0341 11.4694 46.0341C12.1225 46.0341 12.6886 45.7296 13.0587 45.251L33.7415 47.3175C33.8722 48.2963 34.7212 49.0359 35.7227 49.0359C36.8331 49.0359 37.7257 48.144 37.7257 47.0347C37.7257 46.5344 37.5515 46.0993 37.2467 45.7513L47.6317 27.5667V27.545C47.7405 27.5667 47.8494 27.5667 47.98 27.5667C49.0904 27.5667 49.983 26.6749 49.983 25.5655C49.983 24.4779 49.0904 23.5644 47.98 23.5644ZM37.1379 9.33862L34.0246 32.9829C33.7851 33.0047 33.5674 33.07 33.3714 33.157L16.1285 18.4092C16.2373 18.1481 16.3244 17.8654 16.3244 17.5608C16.3244 17.4956 16.3244 17.4303 16.3244 17.3868L36.2017 8.68606C36.4412 8.99059 36.7678 9.20811 37.1379 9.33862ZM17.8484 4.94473C17.8702 4.94473 17.9137 4.94473 17.9355 4.94473C18.3709 4.94473 18.7628 4.81422 19.1112 4.57495L34.8736 7.57671L15.5406 15.9947C15.4318 15.9077 15.3012 15.8207 15.1705 15.7772L17.8484 4.94473ZM15.9761 6.83715L13.7989 15.6467C12.9499 15.8859 12.3185 16.6473 12.3185 17.5826V17.6043L5.24277 21.8025L15.9761 6.83715ZM10.9469 40.5091L4.08889 25.6526C4.41546 25.2828 4.63317 24.8042 4.63317 24.2822C4.63317 24.1952 4.63317 24.1299 4.6114 24.0429L12.9934 19.0617C13.0805 19.127 13.1458 19.1922 13.2329 19.2575L10.9469 40.5091ZM11.9484 42.097L14.5827 19.5403C14.7786 19.5185 14.9964 19.4533 15.1705 19.3662L32.3264 34.3098C32.2611 34.5056 32.2175 34.7231 32.2175 34.9406C32.2175 34.9624 32.2175 34.9624 32.2175 34.9624L13.1893 42.9671C12.9063 42.5538 12.4709 42.2275 11.9484 42.097ZM34.4382 45.512L15.1923 43.5761L32.7618 36.311C33.0666 36.6373 33.4585 36.8548 33.9157 36.92L34.7866 45.2728C34.6559 45.3598 34.5471 45.425 34.4382 45.512ZM35.9187 44.4244L35.1567 36.746C35.788 36.4197 36.2235 35.7454 36.2235 34.9841C36.2235 34.7666 36.1799 34.5491 36.1146 34.3533L45.1062 28.3498L35.9187 44.4244ZM45.9988 25.522L45.89 26.1964L35.3308 33.2875C35.2873 33.2657 35.2438 33.244 35.222 33.2222L38.2264 10.6655L46.0206 24.3474V25.522H45.9988Z" fill="#333333"/>
<path d="M34.8741 7.57647L15.5411 15.9945C15.4322 15.9075 15.3016 15.8205 15.1709 15.777L17.8488 4.94449C17.8706 4.94449 17.9141 4.94449 17.9359 4.94449C18.3713 4.94449 18.7632 4.81398 19.1116 4.57471L34.8741 7.57647Z" fill="#D1D1D0"/>
<path d="M15.9765 6.8374L13.7993 15.6469C12.9503 15.8862 12.3189 16.6475 12.3189 17.5828V17.6046L5.24316 21.8027L15.9765 6.8374Z" fill="#B3B2B1"/>
<path d="M13.2329 19.2573L10.9469 40.5089L4.08887 25.6524C4.41544 25.2826 4.63316 24.804 4.63316 24.282C4.63316 24.195 4.63316 24.1297 4.61139 24.0427L12.9934 19.0615C13.0587 19.1268 13.1458 19.1921 13.2329 19.2573Z" fill="#D8D9D8"/>
<path d="M34.7649 45.2946C34.656 45.3598 34.5472 45.4251 34.4383 45.5121L15.1924 43.5762L32.7619 36.311C33.0667 36.6373 33.4586 36.8548 33.9158 36.9201L34.7649 45.2946Z" fill="#D1D1D0"/>
<path d="M45.1067 28.3281L35.9192 44.4028L35.1572 36.7243C35.7886 36.3981 36.224 35.7238 36.224 34.9624C36.224 34.7449 36.1804 34.5274 36.1151 34.3316L45.1067 28.3281Z" fill="#B3B2B1"/>
<path d="M45.9996 24.3475V25.5221L45.8907 26.1964L35.3316 33.2875C35.288 33.2658 35.2445 33.244 35.2227 33.2223L38.2272 10.6655L45.9996 24.3475Z" fill="#DEDEDD"/>
<path d="M37.1383 9.33858L34.025 32.9829C33.7855 33.0047 33.5678 33.0699 33.3719 33.1569L16.1289 18.4091C16.2378 18.1481 16.3249 17.8653 16.3249 17.5608C16.3249 17.4956 16.3249 17.4303 16.3249 17.3868L36.2022 8.68604C36.4417 8.99056 36.7682 9.20807 37.1383 9.33858Z" fill="white"/>
<path d="M32.2173 34.9624C32.2173 34.9841 32.2173 34.9841 32.2173 34.9841L13.1891 42.9888C12.9061 42.532 12.4707 42.2058 11.9482 42.0752L14.5825 19.5402C14.7785 19.5185 14.9962 19.4532 15.1703 19.3662L32.3262 34.3098C32.2609 34.5273 32.2173 34.7448 32.2173 34.9624Z" fill="#F1F2F1"/>
</g>
<defs>
<clipPath id="clip0_1023_52223">
<rect width="50" height="50" fill="white"/>
</clipPath>
</defs>
</svg>
