<svg width="50" height="50" viewBox="0 0 50 50" fill="none" xmlns="http://www.w3.org/2000/svg">
<g clip-path="url(#clip0_1023_52241)">
<path d="M25 0C11.1913 0 0 11.1913 0 25C0 38.8087 11.1913 50 25 50C38.8087 50 50 38.8087 50 25C50 11.1913 38.8087 0 25 0ZM25 42.7798C15.2527 42.7798 7.22022 34.8375 7.22022 25C7.22022 15.1625 15.2527 7.22022 25 7.22022C34.7473 7.22022 42.7798 15.1625 42.7798 25C42.7798 34.8375 34.8375 42.7798 25 42.7798Z" fill="#030405"/>
<path d="M30.8664 23.7366C28.3393 23.7366 26.2635 21.6608 26.2635 19.1337C26.2635 17.4189 27.1661 15.9749 28.5199 15.2529C27.4368 14.8016 26.1733 14.6211 24.9097 14.6211C19.1336 14.6211 14.4404 19.3142 14.4404 25.0904C14.4404 30.8666 19.1336 35.5597 24.9097 35.5597C30.6859 35.5597 35.3791 30.8666 35.3791 25.0904C35.3791 23.8269 35.1083 22.6536 34.7473 21.4803C34.0253 22.7438 32.5812 23.7366 30.8664 23.7366Z" fill="#4F4898"/>
</g>
<defs>
<clipPath id="clip0_1023_52241">
<rect width="50" height="50" fill="white"/>
</clipPath>
</defs>
</svg>
