<svg width="52" height="50" viewBox="0 0 52 50" fill="none" xmlns="http://www.w3.org/2000/svg">
<g clip-path="url(#clip0_1023_52314)">
<path fill-rule="evenodd" clip-rule="evenodd" d="M25.4062 9.57132C24.7098 9.75986 24.1096 10.2646 23.8001 10.9218C23.1274 12.3504 24.0584 14.054 25.6594 14.3241C26.8966 14.5328 28.1807 13.6953 28.4613 12.4967C28.7107 11.4314 28.1974 10.2987 27.2306 9.781C26.7285 9.51214 25.9537 9.42307 25.4062 9.57132ZM46.8048 9.57623C46.3986 9.68368 46.0588 9.8828 45.7195 10.2121C45.2227 10.6942 45.0028 11.2231 45.0017 11.9386C45.001 12.4417 45.1313 12.8743 45.4048 13.2774C45.6614 13.6555 45.9302 13.8823 46.3827 14.1026C47.343 14.57 48.4395 14.3866 49.1982 13.6316C49.5772 13.2546 49.7668 12.9093 49.8762 12.397C50.1406 11.1589 49.3381 9.89818 48.0735 9.56532C47.7507 9.48038 47.1475 9.48554 46.8048 9.57623ZM14.1094 16.2932C14.07 16.3544 13.1112 18.4117 11.9789 20.865L9.92001 25.3256H5.71407C2.42643 25.3256 1.49014 25.339 1.42585 25.3871C1.31095 25.4729 -0.018293 28.412 0.000190964 28.5394L0.0152777 28.6434L4.17416 28.656C6.48965 28.663 8.33304 28.6875 8.33304 28.7114C8.33304 28.7349 7.22026 31.1618 5.86019 34.1046C4.50013 37.0474 3.38734 39.5049 3.38734 39.5657C3.38734 39.6397 3.42456 39.6853 3.49975 39.7033C3.56159 39.7181 4.43209 39.724 5.43421 39.7165L7.25628 39.7028L12.6494 28.0361C16.9053 18.8293 18.0315 16.3524 17.9906 16.2886C17.9443 16.2163 17.7404 16.2064 16.0599 16.1949L14.1811 16.182L14.1094 16.2932ZM21.5282 16.3874C21.4767 16.5049 21.184 17.146 20.878 17.8121C20.5474 18.5316 20.3341 19.0554 20.3524 19.1024C20.3798 19.1726 20.5436 19.1815 21.7981 19.1815C23.6622 19.1815 24.2147 19.2568 24.9686 19.6137C25.4563 19.8446 26.081 20.4393 26.3142 20.8948C26.6865 21.6223 26.7766 22.5708 26.5428 23.2994C26.2387 24.2465 25.4289 24.9944 24.4325 25.2484C24.1693 25.3155 23.5893 25.3256 19.9806 25.3256C17.0934 25.3256 15.7949 25.3419 15.7118 25.3792C15.5747 25.4406 15.5763 25.4376 14.8017 27.116C14.4114 27.9617 14.2265 28.4177 14.2371 28.5085L14.2529 28.6434L19.1986 28.657C24.652 28.6721 24.6327 28.673 25.6024 28.3679C26.544 28.0717 27.4594 27.5287 28.1508 26.8562C29.043 25.9884 29.5608 25.101 29.9042 23.851C30.0207 23.4269 30.0327 23.2962 30.035 22.4256C30.0373 21.5755 30.0241 21.4143 29.9189 21.0002C29.3067 18.5899 27.5388 16.8713 25.0847 16.3005C24.8239 16.2399 24.3767 16.2157 23.1829 16.1975L21.622 16.1738L21.5282 16.3874ZM35.4387 16.2932C35.3982 16.3544 32.9685 21.5898 30.0395 27.9275C26.488 35.612 24.7189 39.4927 24.7288 39.5767L24.7438 39.7028L26.6171 39.7147C27.6475 39.7212 28.5161 39.7101 28.5473 39.6901C28.5785 39.6701 31.0261 34.4127 33.9862 28.0072C38.0655 19.1798 39.3564 16.3422 39.3193 16.2843C39.2766 16.2177 39.0276 16.2061 37.3914 16.1949L35.5125 16.182L35.4387 16.2932ZM42.7882 16.5349C41.8684 18.5283 41.6459 19.0405 41.6713 19.1058C41.697 19.1715 41.8901 19.1816 43.1387 19.1818C45.0579 19.1822 45.5646 19.2585 46.4001 19.6729C46.6127 19.7784 46.8556 19.963 47.1045 20.2081C47.7127 20.8074 47.9963 21.5043 47.9978 22.403C47.9992 23.2357 47.7423 23.8547 47.1496 24.447C46.8852 24.7113 46.6702 24.8734 46.4206 24.9966C45.7296 25.3376 45.916 25.3256 41.3072 25.3256C37.8375 25.3256 37.1308 25.337 37.0181 25.3946C36.9073 25.4514 36.7598 25.7322 36.1932 26.9651C35.6103 28.2335 35.5117 28.4821 35.558 28.5672C35.6127 28.6678 35.6233 28.668 40.5692 28.6678C46.0712 28.6676 46.0046 28.671 46.9994 28.3437C48.0037 28.0134 48.8436 27.4869 49.6125 26.7057C50.3263 25.9805 50.8231 25.1699 51.1161 24.2519C51.514 23.0056 51.4776 21.5125 51.0189 20.2629C50.3216 18.3635 48.6727 16.8897 46.661 16.368C46.0783 16.2169 46.067 16.2159 44.515 16.195L42.9547 16.1738L42.7882 16.5349Z" fill="#2932E1"/>
</g>
<defs>
<clipPath id="clip0_1023_52314">
<rect width="52" height="31" fill="white" transform="translate(0 9.5)"/>
</clipPath>
</defs>
</svg>
