<svg width="42" height="50" viewBox="0 0 42 50" fill="none" xmlns="http://www.w3.org/2000/svg">
<g clip-path="url(#clip0_4233_152109)">
<path d="M35.4428 14.7768C35.508 14.7985 35.5516 14.8638 35.6168 14.9073C38.4663 17.8655 40.3152 21.3676 41.0765 25.3917C41.4028 27.1101 41.5116 28.8285 41.3811 30.5687C41.0113 35.5716 39.0971 39.9002 35.5951 43.4893C32.6585 46.4911 29.1347 48.4052 25.0236 49.2318C23.1747 49.6016 21.3041 49.7321 19.4116 49.5798C14.4957 49.1666 10.2541 47.2524 6.70853 43.8156C3.85903 41.0531 1.98837 37.7033 1.07479 33.8314C0.639755 31.9825 0.465739 30.1119 0.574498 28.2412C0.879025 22.9555 2.8802 18.4093 6.62153 14.668C11.3199 9.96959 16.0183 5.27118 20.7168 0.551015C20.782 0.48576 20.8473 0.398752 20.8908 0.333496C21.0213 0.398752 20.9778 0.464007 20.9778 0.529263C20.9778 2.79146 20.9778 5.05366 20.9778 7.31586C20.9778 7.48988 20.8908 7.59864 20.782 7.72915C17.28 11.2095 13.7996 14.7115 10.2976 18.1918C8.77497 19.7145 7.57861 21.4329 6.75204 23.434C6.18649 24.8262 5.83846 26.2835 5.68619 27.7844C5.05539 34.658 9.03599 40.8573 15.083 43.3805C16.5404 43.9896 18.063 44.3594 19.6509 44.4899C26.7855 45.0989 33.1588 40.7268 35.3993 34.31C36.0518 32.4393 36.3564 30.5252 36.2476 28.5457C36.0518 24.6739 34.6162 21.3458 31.9407 18.5399C31.7885 18.3658 31.7667 18.3658 31.919 18.2136C33.0283 17.1042 34.1377 15.9949 35.247 14.8638C35.3558 14.842 35.3993 14.7985 35.4428 14.7768Z" fill="#E94D30"/>
<path d="M28.2453 13.7979C26.7661 13.7979 25.5915 12.6668 25.548 11.1877C25.5045 9.7303 26.6791 8.49045 28.1583 8.4687C29.6374 8.42519 30.8555 9.59979 30.8773 11.1007C30.899 12.558 29.7679 13.7761 28.2453 13.7979Z" fill="#E94E30"/>
</g>
<defs>
<clipPath id="clip0_4233_152109">
<rect width="42" height="50" fill="white"/>
</clipPath>
</defs>
</svg>
