<svg width="42" height="50" viewBox="0 0 42 50" fill="none" xmlns="http://www.w3.org/2000/svg">
<g clip-path="url(#clip0_1023_52301)">
<path d="M18.0844 0.344238L0.348633 10.5241V19.7469L11.1207 13.6346V37.6922L18.0844 41.8903V0.344238Z" fill="#EF7E16"/>
<path d="M37.4957 19.7469V10.5241L19.7383 0.344238V41.8903L26.7237 37.6922V26.1854L32.1859 29.296V21.313L26.7237 18.1807V13.6346L37.4957 19.7469Z" fill="#EF7E16"/>
<path d="M32.3389 31.0356C27.1949 31.0356 23.0244 35.2045 23.0244 40.3462C23.0244 45.4879 27.1949 49.6567 32.3389 49.6567C37.4829 49.6567 41.6514 45.4879 41.6514 40.3462C41.6514 35.2045 37.4829 31.0356 32.3389 31.0356ZM35.4072 35.3872C36.5606 35.3872 37.4313 35.6484 37.9971 36.1704C38.5846 36.6924 38.8894 37.3668 38.9111 38.2368L37.0596 38.3228C36.9725 37.8443 36.8207 37.4973 36.5596 37.2798C36.2984 37.0622 35.9079 36.9536 35.3857 36.9536C34.8416 36.9536 34.4267 37.062 34.1221 37.3013C33.9262 37.4536 33.8389 37.6479 33.8389 37.8872C33.8389 38.1047 33.9262 38.3013 34.1221 38.4536C34.3614 38.6493 34.9271 38.8669 35.8193 39.0845C36.7115 39.302 37.386 39.519 37.8213 39.7583C38.2565 39.9975 38.5836 40.302 38.8447 40.7153C39.0841 41.1285 39.2158 41.63 39.2158 42.2173C39.2158 42.7611 39.0632 43.2602 38.7803 43.7388C38.4974 44.2173 38.0841 44.5662 37.54 44.7837C36.996 45.0229 36.3433 45.1313 35.5381 45.1313C34.3847 45.1313 33.4915 44.849 32.8604 44.3052C32.2293 43.7614 31.8601 42.9567 31.7295 41.9126L33.5342 41.7388C33.643 42.3479 33.862 42.8033 34.1885 43.1079C34.5149 43.3906 34.9723 43.5435 35.5381 43.5435C36.1256 43.5435 36.581 43.4138 36.8857 43.1528C37.1904 42.8918 37.3428 42.5868 37.3428 42.2388C37.3428 42.0213 37.2781 41.8247 37.1475 41.6724C37.017 41.5202 36.8001 41.3908 36.4736 41.2603C36.256 41.1733 35.7549 41.0419 34.9932 40.8462C33.9922 40.5851 33.295 40.2804 32.9033 39.9106C32.3375 39.3886 32.0557 38.7577 32.0557 38.0181C32.0557 37.5396 32.1852 37.0837 32.4463 36.6704C32.7075 36.2571 33.1001 35.9309 33.6006 35.7134C34.1011 35.4959 34.6891 35.3872 35.4072 35.3872ZM29.1826 35.5825H31.0322V41.52C31.0322 42.303 30.9675 42.8916 30.8369 43.3267C30.6629 43.8705 30.3371 44.3048 29.8584 44.6528C29.3796 45.0009 28.7688 45.1528 27.9854 45.1528C27.0714 45.1528 26.3981 44.8916 25.8975 44.3696C25.4188 43.8475 25.1572 43.087 25.1572 42.0864L26.8975 41.8911C26.9193 42.4349 26.9853 42.8044 27.1377 43.022C27.3335 43.37 27.6384 43.522 28.0518 43.522C28.4653 43.522 28.7468 43.392 28.9209 43.1528C29.095 42.9135 29.1826 42.4122 29.1826 41.6509V35.5825Z" fill="#435066"/>
</g>
<defs>
<clipPath id="clip0_1023_52301">
<rect width="41.3036" height="49.3117" fill="white" transform="translate(0.348633 0.344238)"/>
</clipPath>
</defs>
</svg>
