<svg width="42" height="50" viewBox="0 0 42 50" fill="none" xmlns="http://www.w3.org/2000/svg">
<g clip-path="url(#clip0_1023_52277)">
<path d="M18.0843 0.344238L0.348633 10.5241V19.7469L11.1206 13.6346V37.6922L18.0843 41.8903V0.344238Z" fill="#EF7E16"/>
<path d="M19.7373 0.344238V41.8911L26.5713 37.7837V37.2134H26.7236V26.186L32.1865 29.2954V21.313L26.7236 18.1802V13.6353L37.4951 19.7466V10.5239L19.7373 0.344238Z" fill="#EF7E16"/>
<path d="M32.3389 31.0356C27.195 31.0356 23.0244 35.2045 23.0244 40.3462C23.0244 45.4879 27.195 49.6567 32.3389 49.6567C37.4829 49.6567 41.6514 45.4879 41.6514 40.3462C41.6514 35.2045 37.4829 31.0356 32.3389 31.0356ZM29.1611 34.5161H30.4893V36.3872H31.7939V34.5161H33.1221V36.3872H34.4053V34.5161H35.7334V36.3872H36.4521V37.2134H38.3232V38.5415H36.4521V39.8247H38.3232V41.1509H36.4521V42.4556H38.3232V43.7837H36.4521V44.3911H35.7334V46.2622H34.4053V44.3911H33.1221V46.2622H31.7939V44.3911H30.4893V46.2622H29.1611V44.3911H28.4424V43.7837H26.5713V42.4556H28.4424V41.1509H26.5713V39.8247H28.4424V38.5415H26.5713V37.2134H28.4424V36.3872H29.1611V34.5161ZM29.7275 37.6489V43.1079H35.1885V37.6489H29.7275ZM33.2529 38.2368C33.514 38.2368 33.7314 38.4542 33.7314 38.7153C33.7314 38.9763 33.514 39.1938 33.2529 39.1938C33.2094 39.1938 33.1656 39.1724 33.1221 39.1724L32.9482 39.7798C33.1005 39.8886 33.2096 40.0626 33.2314 40.2583H33.8623C33.8623 39.9973 34.0797 39.7798 34.3408 39.7798C34.6019 39.7798 34.8191 39.9987 34.8408 40.3032C34.8408 40.5643 34.6234 40.7817 34.3623 40.7817C34.1229 40.7817 33.9274 40.607 33.8838 40.3677L33.2529 40.4556C33.2311 40.6949 33.1226 40.911 32.9268 41.0415L33.3174 41.6938C33.3827 41.6285 33.4703 41.6079 33.5791 41.6079C33.8403 41.6079 34.0576 41.8254 34.0576 42.0864C34.0576 42.3474 33.8403 42.5649 33.5791 42.5649C33.318 42.5649 33.1006 42.3474 33.1006 42.0864C33.1006 41.9559 33.1443 41.8473 33.2314 41.7603L32.6865 41.1509C32.6212 41.1509 32.535 41.1724 32.4697 41.1724C32.3391 41.1724 32.1859 41.1282 32.0771 41.063L31.2725 41.8462C31.3596 41.9332 31.4033 42.0653 31.4033 42.1958C31.4033 42.4568 31.1841 42.6743 30.9229 42.6743C30.6618 42.6743 30.4443 42.4568 30.4443 42.1958C30.4443 41.9347 30.6618 41.7173 30.9229 41.7173C31.0317 41.7173 31.1191 41.738 31.2061 41.8032L31.8604 40.8677C31.7733 40.7372 31.708 40.5846 31.708 40.4106C31.708 40.3018 31.729 40.2164 31.7725 40.1294L31.2939 39.6938C31.2069 39.7808 31.0769 39.8462 30.9463 39.8462C30.6852 39.8462 30.4658 39.6287 30.4658 39.3677C30.4658 39.1067 30.6852 38.8892 30.9463 38.8892C31.2074 38.8892 31.4248 39.1067 31.4248 39.3677C31.4248 39.4547 31.402 39.5407 31.3584 39.606L31.9033 39.9106C32.0556 39.7366 32.2519 39.6274 32.4912 39.6274C32.5565 39.6274 32.5997 39.6291 32.665 39.6509L32.9912 39.1274C32.8606 39.0404 32.7744 38.8893 32.7744 38.7153C32.7744 38.4542 32.9918 38.2368 33.2529 38.2368Z" fill="#435066"/>
</g>
<defs>
<clipPath id="clip0_1023_52277">
<rect width="41.3036" height="49.3117" fill="white" transform="translate(0.348633 0.344238)"/>
</clipPath>
</defs>
</svg>
