<svg width="50" height="50" viewBox="0 0 50 50" fill="none" xmlns="http://www.w3.org/2000/svg">
<g clip-path="url(#clip0_1023_52290)">
<path d="M0 11.1298C0.45869 10.886 0.47537 10.3847 0.675525 9.99563C1.83476 7.7711 4.33671 6.37117 6.69132 6.65335C9.72979 7.01497 11.7341 8.77926 12.3429 11.6229C12.8544 14.0091 11.7202 16.65 9.44067 17.8773C8.47326 18.3979 8.16746 18.9677 8.2175 19.9923C8.30646 21.8004 8.18414 23.6222 8.287 25.4303C8.47604 28.8137 11.5896 31.3643 15.0033 31.0273C17.6665 30.7643 19.7709 27.3508 18.7702 24.9263C18.5644 24.4277 18.0585 24.3893 17.6721 24.1756C15.0145 22.7017 13.8274 19.6142 14.856 16.8089C15.879 14.0145 18.9342 12.2859 21.8142 12.8667C24.8916 13.4885 27.0738 16.0939 26.9098 19.091C26.7819 21.3813 25.6783 23.1483 23.5711 24.2222C22.9845 24.5208 22.6343 24.8139 22.6509 25.5372C22.6899 27.1727 22.5592 28.8 21.8281 30.3177C21.639 30.7095 21.5723 31.0602 22.1645 31.0492C23.6851 31.0246 25.2224 31.2629 26.718 30.8355C29.5063 30.0383 31.2354 27.8302 31.3049 24.729C31.3883 20.9237 31.2993 17.113 31.3494 13.305C31.3605 12.4722 30.8657 12.2557 30.2763 11.9462C27.9551 10.7243 26.604 8.06697 27.0516 5.68902C27.5548 3.00698 29.6203 0.990656 32.3029 0.568762C34.8688 0.163305 37.5486 1.53309 38.7607 3.86446C40.2619 6.75471 39.2222 10.3025 36.2838 11.8421C35.3914 12.3105 35.169 12.8228 35.1635 13.7324C35.1412 17.7184 35.397 21.7155 35.0523 25.6933C34.6158 30.7177 31.1186 34.1833 26.0175 34.8271C25.8924 34.8435 25.77 34.9011 25.492 34.986C26.7319 36.5832 27.8077 38.1968 28.3387 40.0871C28.4888 40.6185 28.7724 40.4158 29.0476 40.2049C31.4105 38.4022 34.146 38.0433 37.0399 38.0899C40.1423 38.1392 41.852 36.4352 41.9076 33.4189C41.9187 32.8738 41.8715 32.3286 41.9187 31.7889C41.9799 31.115 41.7269 30.7616 41.0875 30.4383C38.3632 29.0575 37.0816 26.4878 37.6849 23.8167C38.3187 21.0087 40.4787 19.1321 43.2642 18.9704C46.4 18.7869 48.6628 20.2827 49.7164 23.2387C49.7776 23.4113 49.7887 23.5894 50.0028 23.6496C50.0028 24.5564 50.0028 25.4632 50.0028 26.37C49.2744 27.7645 48.724 29.3671 47.1561 30.0493C45.9024 30.5944 45.5882 31.3917 45.7606 32.5916C45.8245 33.0354 45.7828 33.4956 45.7634 33.9477C45.5743 37.8981 42.9584 41.0432 39.1249 41.7527C37.9156 41.9774 36.6424 41.8678 35.397 41.9007C32.1333 41.9856 29.6342 43.969 29.0115 47.0702C28.853 47.8592 28.9253 48.6893 28.8919 49.503C27.5965 49.503 26.2982 49.503 25.0028 49.503C25.0083 47.5113 25.0417 45.5196 25.0111 43.528C24.9444 39.0488 21.7058 35.4599 17.205 34.8956C16.3405 34.7887 15.4537 34.86 14.5752 34.849C8.74291 34.7696 4.48126 30.6027 4.3923 24.866C4.36451 23.0551 4.38952 21.2443 4.38119 19.4334C4.37841 19.0389 4.4896 18.5759 3.96975 18.3896C1.88758 17.6363 0.875681 15.9432 0 14.1241C0 13.1269 0 12.1297 0 11.1298ZM35.5638 6.65335C35.5832 5.33288 34.5741 4.32471 33.2314 4.31923C31.9248 4.31375 30.8407 5.37123 30.8518 6.63965C30.8629 7.82041 31.9332 8.89158 33.148 8.93268C34.4407 8.97925 35.5471 7.93547 35.5638 6.65335ZM6.20483 10.3819C4.92327 10.4066 3.85856 11.5106 3.89192 12.779C3.92527 14.0858 4.97609 15.0309 6.34382 14.9789C7.63093 14.9323 8.60669 13.9515 8.59835 12.7078C8.59557 11.453 7.4697 10.36 6.20483 10.3819ZM43.7285 22.6552C42.4525 22.6771 41.3711 23.7893 41.4016 25.0495C41.435 26.3508 42.4914 27.296 43.8647 27.2494C45.1657 27.2056 46.1164 26.2495 46.1109 24.9838C46.1053 23.7181 44.9961 22.6332 43.7285 22.6552ZM23.0513 18.9102C23.0874 17.6417 22.0282 16.576 20.7189 16.5678C19.4651 16.5596 18.4199 17.5185 18.3448 18.743C18.2725 19.9759 19.3456 21.132 20.6133 21.1785C21.8781 21.2278 23.0151 20.1704 23.0513 18.9102Z" fill="#FE7262"/>
</g>
<defs>
<clipPath id="clip0_1023_52290">
<rect width="50" height="49" fill="white" transform="translate(0 0.5)"/>
</clipPath>
</defs>
</svg>
